<svg xmlns="http://www.w3.org/2000/svg" viewBox="0 0 125 40"><path fill="#263241" d="M14.126 14.087c.509-1.159 1.345-1.801 2.646-1.816 1.33-.015 2.111.704 2.651 1.867.059-.096.107-.16.14-.231.357-.751.934-1.276 1.725-1.493 1.207-.331 2.312-.134 3.203.821.327.351.512.782.579 1.249.059.414.087.835.089 1.253.008 2.474.004 4.949.002 7.423 0 .099-.009.202-.037.297a.342.342 0 0 1-.348.259c-.692.003-1.385.006-2.078-.001-.225-.002-.355-.145-.37-.37-.005-.077-.002-.156-.002-.233 0-2.179.005-4.357-.005-6.536a4.124 4.124 0 0 0-.118-.918c-.141-.599-.717-.794-1.243-.724-.723.096-1.125.64-1.199 1.293-.049.431-.068.868-.07 1.302a784.695 784.695 0 0 0-.001 5.532c.002.571-.121.673-.659.66-.56-.013-1.12-.002-1.681-.003-.376-.001-.486-.111-.486-.484v-6.279c0-.437-.03-.87-.175-1.286-.212-.609-.788-.898-1.419-.732-.552.145-.827.539-.922 1.057a7.75 7.75 0 0 0-.138 1.34c-.015 1.953-.006 3.906-.006 5.859 0 .418-.107.525-.523.526-.607.001-1.214.002-1.821-.001-.36-.001-.491-.134-.491-.495V13.022c0-.376.165-.541.539-.542.552-.002 1.105-.002 1.657 0 .367.001.499.137.499.508v1.066a3.5 3.5 0 0 0 .062.033z"/><path fill="#0B83C2" d="M73.457 13.584c.311-.183.586-.354.87-.51 1.117-.615 2.301-.968 3.588-.882.854.057 1.604.345 2.133 1.063.069.093.129.194.191.292.106.167.104.166.28.058.31-.191.615-.392.934-.566a6.936 6.936 0 0 1 2.433-.806c.629-.082 1.262-.099 1.875.069.946.259 1.591.854 1.896 1.807.142.443.199.893.199 1.352.004 2.544.002 5.088.002 7.632v.07c-.004.444-.113.554-.55.555h-1.144c-.393-.001-.496-.1-.506-.494-.006-.225-.001-.451-.001-.677 0-2.093.002-4.186-.002-6.278-.001-.411-.024-.822-.149-1.22-.169-.537-.499-.884-1.068-1.018-.558-.131-1.099-.037-1.639.065-.652.124-1.254.393-1.84.703-.182.096-.243.21-.242.419.008 2.653.002 5.306.01 7.959.001.364-.19.564-.553.546-.396-.02-.793-.002-1.19-.006-.343-.004-.478-.143-.478-.486 0-2.272.001-4.543-.001-6.815 0-.396.001-.789-.09-1.181-.179-.77-.618-1.146-1.296-1.239-.548-.076-1.081.019-1.615.131-.606.127-1.157.382-1.697.671-.18.097-.24.22-.24.426.007 2.614.005 5.228.004 7.842 0 .093-.001.187-.012.279-.03.248-.124.36-.365.367-.482.014-.965.012-1.447.001-.23-.005-.332-.118-.362-.346a1.977 1.977 0 0 1-.014-.256v-9.989c0-.529.078-.606.605-.606.272 0 .545-.003.817.001.32.004.434.094.508.399.027.113.037.23.063.343.021.1.056.199.093.325z"/><path fill="#263241" d="M6.585 22.456c-.398.308-.751.613-1.136.87-.549.366-1.173.519-1.831.533-.209.004-.419.009-.628-.001-1.236-.059-2.147-.61-2.62-1.781-.138-.343-.239-.706-.222-1.088.006-.148-.001-.296.001-.443.023-1.473.726-2.511 2.031-3.158.612-.304 1.272-.443 1.943-.532.585-.078 1.172-.138 1.758-.208.25-.03.256-.036.256-.287 0-.249.008-.498-.007-.746-.055-.907-.717-1.296-1.506-1.245-.366.024-.717.134-1.004.384-.255.222-.4.51-.48.833-.075.301-.21.395-.519.361-.579-.064-1.159-.121-1.737-.192-.351-.043-.446-.192-.377-.543.26-1.319 1.058-2.176 2.289-2.657.961-.376 1.965-.459 2.977-.346.841.094 1.643.333 2.301.912.46.404.761.902.855 1.507.061.39.105.786.109 1.18.013 1.338.008 2.676.004 4.014-.002.578.144 1.102.493 1.568.125.167.246.34.342.524.1.191.067.315-.092.454-.496.435-.995.867-1.495 1.297-.212.182-.426.178-.654.003-.374-.288-.658-.657-.923-1.042-.042-.064-.09-.122-.128-.171zm-.458-4.173c-.077-.006-.124-.018-.168-.012-.46.06-.928.089-1.378.196-.466.111-.888.35-1.149.774a1.92 1.92 0 0 0-.139 1.828c.224.531.663.786 1.228.715.423-.053.77-.271 1.037-.606.355-.445.542-.958.565-1.522.019-.449.004-.9.004-1.373zM33.341 22.432c-.129.111-.249.207-.36.31-.465.434-.976.795-1.599.96a3.908 3.908 0 0 1-.776.142c-.495.026-.99.054-1.484-.066-.924-.225-1.616-.74-1.951-1.632-.439-1.17-.393-2.335.254-3.431.436-.739 1.109-1.197 1.904-1.49.825-.304 1.688-.408 2.553-.502.286-.031.572-.059.858-.086.115-.011.19-.047.185-.183-.014-.387.024-.775-.081-1.159-.132-.487-.441-.769-.922-.878-.593-.135-1.126-.013-1.583.392a1.284 1.284 0 0 0-.409.715c-.074.355-.216.458-.567.42-.572-.061-1.143-.121-1.714-.187-.338-.039-.466-.218-.393-.541.267-1.192.944-2.055 2.064-2.558.667-.3 1.369-.438 2.099-.474a6.17 6.17 0 0 1 1.577.102c.87.182 1.664.509 2.225 1.242.269.351.446.751.496 1.188.056.485.093.975.098 1.463.013 1.253.01 2.506.002 3.758-.003.543.173 1.018.48 1.454.098.14.203.275.296.418.147.226.116.417-.086.593-.461.404-.922.809-1.384 1.212-.28.244-.487.239-.781.003-.343-.276-.606-.621-.853-.98-.042-.064-.089-.124-.148-.205zm-.43-4.15c-.088-.006-.142-.018-.195-.011-.43.055-.862.098-1.287.177a2.08 2.08 0 0 0-1.001.513c-.582.515-.625 1.629-.34 2.185.226.441.587.645 1.069.642.466-.003.825-.233 1.127-.569.401-.447.573-.993.62-1.572.036-.445.007-.896.007-1.365zM60.466 14.188l.277-.498c.329-.586.771-1.046 1.425-1.267.543-.184 1.101-.19 1.658-.101.474.076.9.268 1.268.591a2.6 2.6 0 0 1 .787 1.211c.191.614.245 1.25.249 1.886.015 2.364.017 4.729.024 7.093 0 .07.004.14-.002.21-.018.236-.141.368-.375.405a1.282 1.282 0 0 1-.186.012c-.583.001-1.167.003-1.75 0-.423-.002-.536-.12-.536-.545 0-2.054.006-4.107-.005-6.161a7.303 7.303 0 0 0-.118-1.178c-.087-.515-.438-.879-.872-.947-.547-.086-.984.111-1.285.565-.332.499-.451 1.073-.456 1.66-.015 2.015-.013 4.029-.017 6.044-.001.433-.132.562-.571.563h-1.704c-.417-.001-.544-.12-.572-.531-.005-.07-.002-.14-.002-.21v-9.848c0-.085-.003-.172.011-.256.045-.271.202-.405.479-.406a170.14 170.14 0 0 1 1.75 0c.307.002.454.154.455.459.002.411 0 .822 0 1.233l.068.016zM46.951 18.09a7.417 7.417 0 0 1 .353-2.523c.401-1.22 1.073-2.231 2.246-2.841a3.942 3.942 0 0 1 1.718-.447c.546-.016 1.084.015 1.613.178a4.029 4.029 0 0 1 1.905 1.237c.632.733 1.003 1.589 1.22 2.528a8.536 8.536 0 0 1 .148 3.054c-.17 1.28-.613 2.457-1.541 3.394-1.053 1.064-2.341 1.438-3.812 1.222a3.93 3.93 0 0 1-2.211-1.099c-.543-.527-.917-1.169-1.185-1.873-.256-.672-.382-1.373-.451-2.085-.023-.246-.003-.497-.003-.745zm6.269.115c-.027-.897-.069-1.787-.311-2.656-.148-.53-.418-.941-.999-1.08-.462-.111-1.06.039-1.369.472-.338.473-.456 1.016-.511 1.573-.048.493-.052.992-.059 1.488-.005.318.019.636.031.953.025.678.111 1.346.394 1.97.206.455.527.791 1.062.826.527.035.929-.188 1.214-.631.241-.374.356-.795.412-1.224.071-.559.092-1.127.136-1.691z"/><path fill="#0B83C2" d="M26.815 32.056c-.544 0-1.09.017-1.633-.005-.433-.018-.864-.078-1.294-.132-.554-.07-1.108-.139-1.659-.232-.481-.081-.96-.183-1.434-.299a24.915 24.915 0 0 1-1.659-.451 31.31 31.31 0 0 1-1.901-.674 24.382 24.382 0 0 1-3.344-1.624 24.056 24.056 0 0 1-3.18-2.181 57.046 57.046 0 0 1-1.033-.867 1.156 1.156 0 0 1-.229-.26c-.136-.22-.006-.454.251-.449a.67.67 0 0 1 .306.083c1.127.636 2.27 1.242 3.47 1.728.968.392 1.944.767 2.934 1.094.94.311 1.897.581 2.86.813.858.207 1.731.356 2.603.496.75.12 1.508.193 2.262.283 1.346.161 2.699.182 4.05.139.984-.031 1.966-.132 2.946-.232a29.089 29.089 0 0 0 2.141-.303 31.937 31.937 0 0 0 1.931-.422 33.064 33.064 0 0 0 1.907-.51 44.62 44.62 0 0 0 2.043-.694c.465-.167.917-.371 1.382-.538a.801.801 0 0 1 .429-.022c.176.039.328.149.365.35a.56.56 0 0 1-.239.591c-.308.223-.611.456-.938.648-.647.38-1.295.764-1.968 1.093-.694.34-1.411.639-2.133.913-.701.266-1.416.505-2.138.706-.731.203-1.476.353-2.219.51-.47.1-.944.183-1.42.25-.461.065-.925.114-1.389.144-.689.045-1.379.068-2.069.1l-.001-.046zM100.108 18.135v4.994c0 .078.004.156-.003.233-.019.199-.124.334-.318.342-.404.016-.809.02-1.212-.001-.228-.012-.339-.165-.378-.405a12.87 12.87 0 0 0-.102-.548c-.029-.137-.103-.158-.242-.07-.236.149-.464.31-.705.45a6.63 6.63 0 0 1-2.463.862c-.739.1-1.474.102-2.187-.144-.83-.286-1.38-.864-1.678-1.686-.18-.496-.232-1.012-.233-1.534-.002-2.489-.001-4.978-.001-7.467 0-.568.078-.646.644-.646.366 0 .731.001 1.097 0 .286-.001.457.1.467.418.003.093.011.186.011.279l.001 6.931c0 .447.072.884.275 1.284.258.508.709.739 1.256.807.636.078 1.249-.028 1.857-.209.532-.158 1.015-.413 1.496-.682.17-.095.23-.209.229-.406-.007-2.59-.004-5.18-.004-7.771 0-.078-.001-.156.001-.233.005-.27.125-.409.392-.414a36.3 36.3 0 0 1 1.4-.001c.285.006.398.144.398.46.002 1.276.001 2.551.001 3.827l.001 1.33z"/><path fill="#263241" d="M41.86 20.01c.09.009.142.019.195.018a8.255 8.255 0 0 1 1.92.205 5.713 5.713 0 0 1 1.626.616.724.724 0 0 1 .385.67c-.001.482.002.965-.001 1.447-.002.409-.276.581-.637.397-1.13-.578-2.337-.833-3.598-.806a7.327 7.327 0 0 0-3.205.792c-.107.055-.233.109-.347.103-.169-.008-.306-.194-.308-.387-.005-.607-.018-1.214.005-1.821.011-.302.126-.585.306-.841 1.118-1.595 2.23-3.194 3.343-4.792.18-.259.357-.52.568-.828-.14-.013-.227-.028-.313-.028-.98-.002-1.961-.001-2.941-.002-.085 0-.172-.004-.254-.022-.229-.05-.337-.172-.34-.404a58.164 58.164 0 0 1 0-1.447c.003-.263.161-.413.428-.413 2.218-.001 4.435-.002 6.653 0 .306 0 .418.118.421.43.003.358-.009.716.004 1.074.009.253-.052.475-.195.68-.403.58-.804 1.161-1.208 1.739-.809 1.157-1.62 2.312-2.43 3.469-.026.035-.041.079-.077.151z"/><path fill="#0B83C2" d="M105.924 24.043c-.818.022-1.608-.099-2.384-.3-.321-.083-.628-.219-.94-.335-.269-.1-.411-.298-.413-.584a9.093 9.093 0 0 1 .018-.792c.022-.272.167-.358.434-.283.32.09.636.2.961.267a18.49 18.49 0 0 0 1.512.256c.376.045.76.053 1.139.042.492-.014.965-.109 1.392-.39.697-.459.887-1.836-.083-2.293a28.957 28.957 0 0 0-1.446-.629c-.638-.26-1.296-.476-1.922-.762-.724-.331-1.31-.835-1.626-1.591-.458-1.095-.326-2.41.557-3.313.462-.473 1.034-.778 1.674-.962.714-.205 1.442-.221 2.172-.174a7.318 7.318 0 0 1 1.976.402c.124.044.25.084.369.139a.572.572 0 0 1 .354.553c0 .233.004.467-.001.7-.006.29-.127.404-.413.349-.334-.063-.661-.162-.993-.237-.761-.171-1.531-.259-2.31-.159a3.665 3.665 0 0 0-.787.186c-.672.246-.86.863-.758 1.474.07.42.345.697.705.872.487.237.99.443 1.49.65.622.258 1.256.487 1.871.759.449.198.855.477 1.182.851.523.598.661 1.317.626 2.082-.072 1.556-1.09 2.509-2.375 2.944-.647.221-1.313.3-1.981.278zM122.068 23.943a5.528 5.528 0 0 1-1.846-.195c-1.288-.352-2.278-1.091-2.883-2.306a6.161 6.161 0 0 1-.604-2.135 10.138 10.138 0 0 1 .02-2.412 6.5 6.5 0 0 1 .483-1.787c.444-1 1.141-1.764 2.122-2.257.783-.393 1.621-.557 2.494-.574.656-.013 1.304.025 1.939.196.268.073.531.166.791.265.196.074.317.22.318.442.002.302.017.605-.002.905-.018.284-.185.38-.467.307-.225-.058-.451-.11-.677-.164a5.661 5.661 0 0 0-2.267-.077c-.963.16-1.733.612-2.137 1.555a4.186 4.186 0 0 0-.329 1.325 14.827 14.827 0 0 0-.047 1.605c.023.731.14 1.446.495 2.106.302.561.754.942 1.344 1.152a4.395 4.395 0 0 0 2.201.203c.466-.075.927-.181 1.39-.273.076-.015.152-.031.23-.038.231-.023.354.082.358.312.004.272-.014.545.005.816.019.268-.107.436-.328.532-.269.116-.545.23-.828.3-.591.146-1.188.249-1.775.197zM114.394 18.127v4.97c0 .531-.09.619-.625.619-.373 0-.747.003-1.12-.001-.324-.003-.426-.098-.462-.422a2.436 2.436 0 0 1-.011-.256V13.19c0-.609.069-.677.685-.677.334 0 .669-.001 1.003 0 .411.001.529.114.529.526.002 1.697.001 3.393.001 5.088zM41.97 24.151c.541.027 1.076.052 1.6.183.179.045.355.108.527.177.197.08.286.238.314.45.074.556-.005 1.102-.119 1.641a8.187 8.187 0 0 1-.734 2.074c-.355.685-.782 1.32-1.383 1.82-.041.035-.086.065-.131.096-.116.08-.243.129-.363.027-.119-.101-.088-.247-.043-.369.219-.594.46-1.181.669-1.779.225-.644.414-1.299.466-1.984.037-.48-.238-.783-.779-.854a8.435 8.435 0 0 0-2.021-.019c-.563.062-1.128.105-1.692.155-.046.004-.093.003-.14.002-.108-.002-.232.012-.269-.125-.035-.128-.006-.255.102-.336.154-.116.315-.226.484-.319a5.915 5.915 0 0 1 2.057-.694c.482-.068.969-.099 1.455-.146zM113.295 7.896c.425.018.848.116 1.131.479.25.321.278.698.233 1.085a1.21 1.21 0 0 1-1.084 1.073c-.508.049-.986.004-1.341-.409a1.272 1.272 0 0 1-.26-.484c-.156-.584-.024-1.277.574-1.597.24-.128.49-.153.747-.147z"/></svg>