<svg xmlns="http://www.w3.org/2000/svg" viewBox="476.5 133.28 1000.22 279.77"><path fill="#F68D11" d="M834.67 374.83c-33.47 24.91-82.13 38.2-124 38.22-58.69.05-111.5-21.69-151.55-58-3.14-2.84-.33-6.74 3.45-4.51 43.16 25.17 96.5 40.36 151.62 40.31 37.16-.02 78.05-7.84 115.62-23.88 5.67-2.43 10.44 3.77 4.86 7.86"/><path fill="#F68D11" d="M848.67 358.8c-4.32-5.48-28.39-2.58-39.19-1.26-3.3.4-3.8-2.49-.85-4.55 19.21-13.58 50.66-9.7 54.32-5.15 3.67 4.55-.94 36.25-18.93 51.43-2.77 2.32-5.38 1.03-4.17-1.98 4.04-10.18 13.11-32.96 8.82-38.5"/><path d="M810.15 257.21v-13.16c-.01-2 1.5-3.36 3.3-3.36l58.74-.04a3.3 3.3 0 0 1 3.38 3.34l.01 11.27c0 1.9-1.6 4.36-4.43 8.3l-30.36 43.68c11.31-.28 23.22 1.42 33.48 7.24 2.34 1.27 2.99 3.23 3.13 5.14v14.03c.01 1.95-2.09 4.16-4.31 3-18.06-9.5-42.07-10.54-62.06.17-2.03 1.09-4.17-1.08-4.17-3.04l-.01-13.38c0-2.14.03-5.76 2.17-9.04l35.2-50.85-30.68.02a3.26 3.26 0 0 1-3.39-3.31M596 339.64l-17.89.01a3.36 3.36 0 0 1-3.2-3l-.04-92.18c0-1.83 1.5-3.32 3.43-3.32l16.64-.01a3.31 3.31 0 0 1 3.24 3.07l.01 12.03h.35c4.32-11.64 12.5-17.07 23.49-17.08 11.2 0 18.2 5.41 23.2 17.05 4.33-11.65 14.18-17.08 24.67-17.09 7.53 0 15.71 3.07 20.7 10.08 5.66 7.76 4.54 18.99 4.55 28.87v58.18c0 1.86-1.5 3.31-3.44 3.32l-17.85.01a3.35 3.35 0 0 1-3.19-3.32l-.04-48.83c0-3.9.31-13.59-.52-17.28-1.35-6.2-5.33-7.94-10.52-7.94-4.33 0-8.86 2.93-10.67 7.57-1.83 4.65-1.63 12.4-1.63 17.67l.04 48.83a3.39 3.39 0 0 1-3.47 3.32l-17.85.02a3.36 3.36 0 0 1-3.21-3.32l-.07-48.83c0-10.3 1.66-25.43-11.02-25.42-12.8.01-12.33 14.73-12.32 25.44l.04 48.83a3.35 3.35 0 0 1-3.43 3.32m330.14-100.72c26.5-.02 40.87 22.86 40.9 51.93.01 28.14-15.8 50.45-40.82 50.47-26 .02-40.2-22.84-40.23-51.35-.02-28.72 14.3-51.03 40.15-51.05m.17 18.8c-13.18 0-13.98 18.04-13.97 29.33 0 11.22-.13 35.31 13.86 35.3 13.83-.01 14.49-19.43 14.48-31.27 0-7.77-.34-17.07-2.67-24.45-2.03-6.39-6-8.92-11.7-8.92m75.17 81.61l-17.8.02a3.36 3.36 0 0 1-3.22-3.32l-.1-92.2a3.4 3.4 0 0 1 3.43-2.98l16.56-.02a3.4 3.4 0 0 1 3.2 2.56v14.1h.32c5.01-12.62 11.99-18.63 24.35-18.63 8-.01 15.87 2.88 20.86 10.8 4.69 7.4 4.7 19.82 4.7 28.74l.05 58a3.4 3.4 0 0 1-3.45 2.9l-17.91.01a3.36 3.36 0 0 1-3.16-2.89l-.04-50.05c-.01-10.1 1.16-24.84-11.2-24.83-4.35 0-8.35 2.93-10.33 7.38-2.5 5.63-2.83 11.26-2.82 17.46l.04 49.63a3.43 3.43 0 0 1-3.48 3.32M795.2 322.59c-3.29-4.52-6.75-8.2-6.75-16.64l-.03-27.97c0-11.86.86-22.74-7.85-30.92-6.87-6.59-18.26-8.91-26.95-8.9-16.99 0-35.97 6.43-39.92 27.49-.45 2.29 1.2 3.46 2.68 3.8l17.3 1.85c1.6-.08 2.82-1.68 3.1-3.31 1.5-7.25 7.53-10.76 14.36-10.77 3.66 0 7.83 1.36 10.02 4.64 2.54 3.7 2.19 8.77 2.2 13.02v2.33c-10.37 1.18-23.9 1.96-33.6 6.27-11.19 4.88-19.05 14.79-19.04 29.35.01 18.68 11.7 27.99 26.75 27.98 12.73-.01 19.66-3.03 29.47-13.1 3.24 4.73 4.34 7.03 10.26 11.97 1.33.74 3.04.67 4.2-.43l.04.05a935.66 935.66 0 0 1 13.73-11.95c1.43-1.18 1.14-3.12.03-4.76zm-35.17-8.03c-2.84 5.05-7.31 8.16-12.33 8.17-6.88 0-10.89-5.23-10.9-13.05 0-15.24 13.62-18.08 26.57-18.1v3.91c0 7.02.17 12.84-3.34 19.07zm-199.05 8.21c-3.3-4.52-6.75-8.2-6.76-16.65l-.02-27.96c0-11.86.8-22.74-7.9-30.92-6.83-6.58-18.2-8.91-26.9-8.9-17 0-35.97 6.42-39.94 27.5-.41 2.28 1.22 3.45 2.65 3.8l17.35 1.84c1.6-.09 2.78-1.68 3.09-3.3 1.46-7.26 7.54-10.78 14.37-10.78 3.67 0 7.84 1.36 10.02 4.64 2.5 3.7 2.2 8.77 2.2 13.02v2.33c-10.37 1.18-23.9 1.96-33.6 6.26-11.17 4.88-19.05 14.8-19.04 29.37.02 18.67 11.74 27.98 26.75 27.97 12.74 0 19.66-3.03 29.46-13.09 3.25 4.72 4.3 7.02 10.26 11.96 1.35.75 3.06.68 4.22-.43l.04.05a756.9 756.9 0 0 1 13.71-11.95c1.45-1.17 1.16-3.12.04-4.76zm-35.15-8.02c-2.85 5.05-7.37 8.15-12.37 8.16-6.86 0-10.87-5.23-10.88-13.05-.01-15.24 13.62-18.08 26.57-18.09v3.9c.01 7.03.16 12.85-3.32 19.08z"/><path fill="#F68D11" d="M1167.54 215.8l-85.33.06-.01-15 85.32-.07.02 15m-.02-22.49l-85.33.06v-15l85.32-.07v15m-.01-22.5l-85.32.06-.02-15 85.33-.06.01 15m-.02-22.51l-85.32.07-.01-15 85.32-.07.01 15m92.77 67.44l-85.32.07-.01-15 85.32-.07.01 15m-.01-22.5l-85.33.06v-15l85.31-.06.02 15m92.84 22.43l-85.33.07-.01-15 85.33-.07.01 15m-.02-22.5l-85.33.06v-15l85.32-.07.01 15m-.01-22.5l-85.33.07-.01-15 85.32-.07.02 15"/><path d="M1297.7 320.14c.2-.4.81-.8 1.22-.81.4 0 1 .2 1.61.4 8.93 4.41 17.87 6.82 24.76 6.81 9.75 0 16.23-5.83 16.22-14.45 0-6.82-3.46-10.83-13-15.22-13.6-6.21-17.86-8.41-22.74-12.43-6.28-5.01-9.33-11.22-9.34-19.04-.01-16.24 12.76-27.89 30.82-27.9 10.55 0 26.17 5 26.17 8.41 0 .4 0 .4-.4 1.4l-3.64 7.43c-.4.6-1.22 1.2-1.83 1.2-.4 0-.82-.2-1.62-.4-7.72-3.6-13.6-5.2-19.07-5.2-9.74.01-15.42 5.03-15.41 13.44 0 3.81 1.43 7.42 4.06 9.83 2.85 2.6 2.85 2.6 21.3 11.4 15.03 7.21 20.3 13.83 20.3 25.86.02 17.05-12.94 28.49-32.21 28.5-10.15.01-21.71-2.99-30.02-7.8-1.03-.6-1.23-1-1.23-1.8 0-.4 0-.4.2-.81l3.84-8.82m76.51-75.74c0-2.03.14-2.44 2.17-2.44h10.74c1.83 0 2.24.4 2.24 2.42v91.42a3.42 3.42 0 0 1-3.4 3.52h-8.56c-1.83 0-3.18-1.58-3.18-3.62v-91.3m97.86 15.18c-.61 1.01-1.02 1.42-1.62 1.42-.41 0-1.02-.2-1.63-.8-9.94-7.3-14-9.13-20.9-9.13-16.23.02-24.53 12.8-24.51 37.75.02 25.36 7.53 37.94 22.54 37.93 8.11 0 12.37-1.85 23.93-9.97.61-.4 1.01-.61 1.42-.61.61 0 1.01.41 1.43 1.23l3.03 7.7c.2.6.62 1.82.62 2.02 0 1.02-1.02 2.23-3.24 3.86-8.3 6.09-18.45 9.54-28.4 9.55-24.13.02-38.34-18.42-38.37-49.26-.02-33.27 15.58-53.77 41.14-53.79 8.72 0 17.25 2.63 24.75 7.9 3.25 2.22 4.47 3.64 4.47 5.07l-.2 1.21-4.46 7.92m-279.74 10.54c-.02-11.49-.03-31-26.11-30.97-10.18 0-19.05 6.93-23.48 15.51-3.16-11.12-10-15.49-21.47-15.48-9.4 0-19.48 4.93-23.73 13.5v-7.91a3.3 3.3 0 0 0-3.21-3.28h-9.02a3.37 3.37 0 0 0-3.41 2.98v91.66c0 1.77 1.5 3.18 3.31 3.3l9.02-.01a3.36 3.36 0 0 0 3.41-2.99l-.05-64.41c-.01-15.32 11.3-19.7 18.5-19.7 10.9-.02 12.9 8.87 13.25 16.13v68.33c0 1.74 1.8 2.64 3.62 2.74h8.72c1.79 0 3.19-1.36 3.33-2.74v-65.23c.22-14.93 11.3-19.27 18.44-19.27 11.13-.01 12.98 9.27 13.28 16.6l.05 67.82c0 1.31 1.18 2.35 2.7 2.62l-.02.1h9.5c1.8 0 3.27-1.09 3.42-2.48l-.02-18.39-.03-48.43m20.43 54.8c1.9 5.1 9.25 15.5 24.1 15.49 13.9-.02 22-4.93 26.17-13.51v7.9a3.3 3.3 0 0 0 3.15 3.3h8.87a3.27 3.27 0 0 0 3.3-2.98v-91.66a3.34 3.34 0 0 0-3.2-3.3h-8.87a3.23 3.23 0 0 0-3.24 2.99v64.4c0 15.33-14.34 19.68-24.07 19.72-10.73.05-12.68-8.88-13.03-16.14l-.05-68.32c-.32-1.48-1.73-2.65-3.5-2.74h-8.6c-1.74 0-3.18 1.1-3.33 2.48v65.49s.4 11.8 2.3 16.88m174.32-123.74l-10.75.01c-2.02 0-2.23.37-2.23 2.2v1.57l.01 7.76v1.5c0 1.82.41 2.19 2.23 2.19l10.76-.01c2.02 0 2.23-.37 2.23-2.2v-1.57l-.01-7.76v-1.5c0-1.82-.41-2.19-2.24-2.19"/></svg>