<svg xmlns="http://www.w3.org/2000/svg" width="28.2" height="28.2"><defs/><path d="M28.2 7.2c0-.9 0-1.7-.3-2.6A5.8 5.8 0 0025.3 1C24.7.6 24 .3 23.1.2L21.3 0H6.5c-.9 0-1.8.2-2.6.5a5.9 5.9 0 00-3.8 5v1.3L0 7v14.9c0 1 .2 1.9.6 2.8.8 1.6 2 2.7 3.8 3.3L6 28h16.8c1-.1 1.9-.4 2.7-1A6 6 0 0028 23c.2-.8.2-1.6.2-2.4V7.2m-7.6 4.7v6.7c0 .5 0 1-.2 1.4-.4.7-1 1.1-1.7 1.3l-1.2.3a2.2 2.2 0 01-1-4.2 5 5 0 011.1-.4l1.3-.3c.4 0 .6-.3.6-.6v-.2a4542.3 4542.3 0 000-6.6c0-.2-.1-.3-.3-.3a4 4 0 00-.6 0l-2.7.6-2.7.6-1.6.3c-.4 0-.5.2-.5.6V20.4c0 .5 0 1-.3 1.4-.3.8-.9 1.3-1.7 1.5l-1.2.2c-1.2 0-2-.7-2.3-1.8-.2-1 .3-2 1.4-2.5a7 7 0 011.3-.3l1-.2c.4-.1.7-.4.7-.9v-.2a18137.8 18137.8 0 010-10.8c.1-.4.4-.5.7-.6l.9-.2 2.6-.5 2.6-.6 2.4-.5h.8c.3-.1.6.1.6.5v7z"/></svg>