<svg viewBox="0 0 1770 512" xmlns="http://www.w3.org/2000/svg"><path d="M382 140h33v78c9-15 28-24 45-24 46 0 69 37 69 82 0 41-20 80-64 80-20 0-42-5-51-25h-1v21h-31zm73 81c-27 0-41 21-41 54 0 31 15 54 41 54 30 0 41-27 41-54 0-28-14-54-41-54M783 194c-20 0-37 10-47 27v-23h-31v131h-22c-6 0-8-3-8-11v-79c0-33-30-45-59-45-33 0-65 12-68 51h33c1-17 14-24 33-24 13 0 30 3 30 20 0 20-21 18-44 22-28 3-57 10-57 48 0 30 24 45 51 45 17 0 38-6 51-19 3 14 12 19 25 19 6 0 16-2 67-4h1v-91c0-23 14-40 35-40 20 0 29 10 29 34v97h33V246c0-34-20-52-52-52M643 300c0 22-23 29-37 29-12 0-30-4-30-19 0-18 12-24 26-26 15-3 30-2 41-9zM1004 352h-31v-21h-1c-9 17-27 25-46 25-47 0-69-36-69-82 0-56 32-80 64-80 19 0 39 7 49 24h1v-79h33zm-74-23c30 0 42-27 42-54 0-34-16-54-41-54-31 0-42 28-42 56 0 26 13 52 41 52M1134 250c-3-19-16-29-34-29-17 0-41 9-41 56 0 25 11 52 39 52 19 0 32-13 35-35h33c-6 40-30 62-68 62-46 0-72-34-72-79 0-47 24-83 73-83 35 0 64 18 67 55zM1507 194c-22 0-36 10-47 26-6-18-23-26-41-26-24 0-36 10-46 26h-1v-22h-31v131h-22c-6 0-7-3-7-11v-79c0-33-31-45-60-45-32 0-65 12-67 51h32c2-16 15-24 33-24 13 0 31 3 31 21 0 19-21 17-45 21-27 4-57 10-57 48 0 30 24 45 51 45 18 0 39-6 52-19 2 14 12 19 25 19 5 0 16-2 66-4h1v-92c0-25 16-39 32-39 20 0 27 11 27 32v99h32v-90c0-26 10-41 32-41 25 0 27 17 27 41v90h33V246c0-38-19-52-50-52m-228 106c0 22-22 29-37 29-11 0-30-4-30-19 0-18 13-24 27-26 14-3 30-2 40-9zM1586 198h31v21h1c9-17 27-25 46-25 46 0 69 37 69 82 0 41-20 80-64 80-19 0-39-7-50-24v77h-33zm73 23c-27 0-41 21-41 54 0 31 15 54 41 54 30 0 41-27 41-54 0-28-14-54-41-54"/><path d="M268 351H22l115-211h245z" fill="#6399a8"/></svg>