<svg aria-label="Bands in Town" class="bit-logo-desktop" xmlns="http://www.w3.org/2000/svg" xmlns:xlink="http://www.w3.org/1999/xlink" width="144" height="20" viewBox="0 0 172 24"><defs><path id="ba" d="M9.9 12.1c0-2.2-1.5-3.8-3.7-3.8S2.6 10 2.6 12.1 4 16 6.2 16s3.7-1.5 3.7-3.8zm-7.3 4.2v1.8H0V0h2.5v8c.8-1.4 2.1-2.2 4.1-2.2 3.2 0 5.8 2.3 5.8 6.3s-2.6 6.4-5.8 6.4c-2 0-3.3-.9-4-2.2zm11.6-4.2c0-4 2.7-6.3 5.8-6.3 2 0 3.3.9 4 2.1h.1V6.2h2.6V18H24v-1.8c-.8 1.3-2 2.2-4 2.2-3.2 0-5.9-2.4-5.9-6.4zm10.3 0c0-2.2-1.5-3.8-3.7-3.8s-3.6 1.6-3.6 3.8 1.4 3.8 3.6 3.8 3.7-1.5 3.7-3.8zm16.4-1.3V18h-2.5v-6.9c0-2-1-2.9-2.8-2.9-1.8 0-3.1 1.1-3.1 4.1V18h-2.6V6h2.6v2c.8-1.4 2-2.2 4-2.2 2.5 0 4.4 1.4 4.4 5zm2.5 1.3c0-4 2.7-6.3 5.9-6.3 2 0 3.2.8 4 2.1V0H56v18.1h-2.6v-1.8c-.8 1.3-2 2.2-4 2.2-3.2 0-5.9-2.4-5.9-6.4zm10.3 0c0-2.2-1.5-3.8-3.7-3.8s-3.6 1.6-3.6 3.8S47.8 16 50 16s3.7-1.5 3.7-3.8zm4.4 5.1l1-2.2c1.2.6 2.5 1.1 3.9 1.1 1.2 0 1.8-.3 1.8-1 0-.6-.2-1-1.2-1.4l-2.2-1c-1.8-1-2.5-2.2-2.5-3.5 0-2.2 1.6-3.4 4.2-3.4 1.4 0 2.9.4 4.2 1l-1 2.1c-1-.4-2-.8-3.2-.8-1.2 0-1.5.4-1.5 1 0 .5.3.9 1.4 1.4l2.2 1c1.5.7 2.3 1.8 2.3 3.4 0 2.4-1.8 3.6-4.6 3.6a10 10 0 0 1-4.8-1.3zm12 1h2.6v-12H70v12zm16.8-7.4V18h-2.5v-6.9c0-2-1-2.9-2.8-2.9-1.8 0-3.1 1.1-3.1 4.1V18h-2.6V6h2.6v2c.8-1.4 2-2.2 4-2.2 2.5 0 4.4 1.4 4.4 5zm6.4-2.5v6.3c0 .8.3 1.2 1.2 1.2h.6v2.3H94c-2 0-3.2-1-3.2-3V8.3h-2v-2h2V1.4h2.5v4.7h2.4v2.1h-2.4zm16.6 3.8c0 3.7-2.8 6.4-6.6 6.4s-6.5-2.7-6.5-6.4 2.8-6.3 6.5-6.3 6.6 2.7 6.6 6.3zm-10.2 0c0 2.4 1.5 3.8 3.8 3.8s3.8-1.4 3.8-3.8-1.5-3.8-3.8-3.8-3.8 1.5-3.8 3.8zm29.2-6l-4 12h-2.3l-2.8-8.5-2.9 8.5h-2.3l-4-12h2.8l2.4 8.7 2.7-8.6h2.5l2.7 8.6 2.4-8.6h2.8zm13.1 4.7V18h-2.5v-6.9c0-2-1-2.9-2.7-2.9-1.9 0-3.2 1.1-3.2 4.1V18h-2.5V6h2.5v2a4.3 4.3 0 0 1 4-2.2c2.5 0 4.4 1.4 4.4 5zm-68.6-9c0 1-.8 1.8-1.8 1.8a1.8 1.8 0 0 1-1.9-1.8c0-1 .9-1.8 1.9-1.8 1 0 1.8.8 1.8 1.8z"/></defs><g fill="none" fill-rule="evenodd" ><g transform="translate(29.5 3.2)"><mask id="bb" fill="#fff"><use xlink:href="#ba"/></mask><path fill="#FFE" d="M0 18.5h142V0H0z" mask="url(#bb)"/></g><path fill="#FFE" d="M17.7 0H23v12.3h-5.2V0zm-5.9 5.8H17v6.5h-5.2V5.8zM6 5.8h5.2v6.5H6V5.8zM23 24H0V0h5.2v18.9h12.5v-.7H6V13h17v11z"/></g></svg>