<svg class="bit-logo-desktop" xmlns="http://www.w3.org/2000/svg" xmlns:xlink="http://www.w3.org/1999/xlink" width="144" height="20" viewBox="0 0 172 24">
      <defs>
          <path id="a" d="M9.858 12.143c0-2.233-1.44-3.806-3.651-3.806S2.556 9.91 2.556 12.143s1.44 3.806 3.65 3.806c2.212 0 3.652-1.573 3.652-3.806zm-7.277 4.198h-.052v1.758H0V0h2.529v7.912h.052c.748-1.293 2.065-2.146 4.026-2.146 3.148 0 5.807 2.378 5.807 6.36s-2.659 6.36-5.807 6.36c-1.961 0-3.278-.853-4.026-2.145zm11.658-4.198c0-3.971 2.658-6.343 5.807-6.343 1.962 0 3.278.85 4.026 2.14h.052V6.186h2.529V18.1h-2.529v-1.754h-.052c-.748 1.29-2.064 2.14-4.026 2.14-3.149 0-5.807-2.372-5.807-6.343zm10.223 0c0-2.233-1.44-3.806-3.65-3.806-2.212 0-3.652 1.573-3.652 3.806s1.44 3.806 3.651 3.806 3.651-1.573 3.651-3.806zm16.43-1.357v7.338h-2.525v-6.898c0-2.041-1.031-2.894-2.733-2.894-1.854 0-3.17 1.11-3.17 4.082v5.71H29.94V6.187h2.526v1.809h.051c.774-1.37 2.062-2.196 3.892-2.196 2.551 0 4.484 1.369 4.484 4.986zm2.556 1.34c0-3.982 2.658-6.36 5.807-6.36 1.961 0 3.277.853 4.026 2.146h.052V0h2.529v18.099h-2.53V16.34h-.05c-.75 1.292-2.066 2.145-4.027 2.145-3.149 0-5.807-2.378-5.807-6.36zm10.223.017c0-2.233-1.44-3.806-3.651-3.806-2.212 0-3.651 1.573-3.651 3.806s1.44 3.806 3.65 3.806c2.212 0 3.652-1.573 3.652-3.806zm4.381 5.08l1.135-2.243c1.11.644 2.374 1.134 3.792 1.134 1.213 0 1.858-.36 1.858-1.108 0-.49-.258-.852-1.264-1.342l-2.167-1.057c-1.806-.85-2.502-2.063-2.502-3.429 0-2.192 1.625-3.378 4.23-3.378 1.367 0 2.864.36 4.127.928L66.23 8.92c-.903-.387-2.013-.774-3.173-.774-1.11 0-1.47.361-1.47.903 0 .567.335.928 1.367 1.418l2.218 1.057c1.548.722 2.373 1.754 2.373 3.352 0 2.424-1.857 3.61-4.643 3.61-1.703 0-3.482-.464-4.85-1.263zm12.049.9h2.556V6.164H70.1v11.96zm16.795-7.337v7.338H84.37v-6.898c0-2.041-1.03-2.894-2.731-2.894-1.856 0-3.171 1.11-3.171 4.082v5.71h-2.525V6.187h2.525v1.809h.052c.773-1.37 2.062-2.196 3.892-2.196 2.551 0 4.484 1.369 4.484 4.986zm6.383-2.44v6.227c0 .85.354 1.235 1.215 1.235h.607v2.316h-1.139c-2.05 0-3.164-1.106-3.164-3.062V8.346h-2.076V6.21h2.076V1.45h2.48v4.76h2.38v2.136h-2.38zm16.619 3.797c0 3.662-2.805 6.343-6.572 6.343s-6.572-2.681-6.572-6.343S99.559 5.8 103.326 5.8s6.572 2.681 6.572 6.343zm-10.223 0c0 2.309 1.57 3.806 3.834 3.806 2.264 0 3.833-1.497 3.833-3.806s-1.569-3.806-3.833-3.806c-2.265 0-3.834 1.497-3.834 3.806zm29.209-5.98l-3.98 11.96h-2.311l-2.824-8.569-2.85 8.57h-2.311l-3.98-11.962h2.773l2.388 8.622 2.748-8.622h2.438l2.748 8.622 2.388-8.622h2.773zm13.143 4.623v7.338h-2.525v-6.898c0-2.041-1.031-2.894-2.732-2.894-1.856 0-3.17 1.11-3.17 4.082v5.71h-2.526V6.187h2.526v1.809h.051c.774-1.37 2.062-2.196 3.892-2.196 2.552 0 4.484 1.369 4.484 4.986zm-68.64-8.974c0 1.001-.817 1.813-1.825 1.813a1.82 1.82 0 0 1-1.826-1.813c0-1 .817-1.812 1.826-1.812 1.008 0 1.825.811 1.825 1.812z"></path>
      </defs>
      <g fill="none" fill-rule="evenodd" opacity="0.402400362">
          <g transform="translate(29.522 3.243)">
              <mask id="b" fill="#fff">
                  <use xlink:href="#a"></use>
              </mask>
              <path fill="#A9A9A9" d="M-.013 18.506H142.04V-.02H-.013z" mask="url(#b)"></path>
          </g>
          <path fill="#A9A9A9" d="M17.709 0h5.208v12.343h-5.208V0zm-5.903 5.829h5.208v6.514h-5.208V5.829zm-5.903 0h5.208v6.514H5.903V5.829zM22.917 24H0V0h5.208v18.857h12.5v-.686H5.904V13.03h17.014V24z"></path>
      </g>
  </svg>