<svg class="social" aria-label="Holonis" xmlns="http://www.w3.org/2000/svg" viewBox="0 0 9000 9000"><desc>Lorenzo Wood Music on Holonis</desc><path d="M4370 8980c-104-7-190-29-269-70-153-78-3220-1853-3267-1891-87-69-225-242-208-259 5-5 479-284 1054-621 575-336 1082-633 1127-660l82-48 61 91c195 290 438 502 750 652 211 101 417 156 670 179l135 12 3 1313c2 1245 1 1312-15 1310-10 0-65-4-123-8z" fill="#92bb60"/><path d="M6076 3516c-84-144-273-355-421-471-300-235-629-363-1025-398l-135-12-3-1311-2-1311 102 4c115 5 223 30 301 70 72 36 3149 1806 3217 1850 68 45 182 159 235 237 34 49 38 60 25 68-110 68-2253 1318-2259 1318-5 0-21-20-35-44z" fill="#d2514f"/><path d="M4492 7676l3-1311 135-12c481-43 880-229 1201-559 103-107 159-177 234-292 30-47 52-72 61-68 25 10 2239 1297 2252 1310 18 18-64 131-164 226-75 72-152 118-1679 1002-880 509-1619 935-1642 947-69 34-182 59-296 64l-107 5 2-1312z" fill="#e8bc56"/><path d="M1755 2914c-622-361-1133-659-1137-663-20-18 150-218 241-285 61-45 3200-1862 3267-1892 80-35 159-52 277-57l107-5-2 1312-3 1311-135 12c-599 54-1093 343-1420 832-34 50-62 91-63 91s-511-295-1132-656z" fill="#8f8bb0"/><path d="M596 6728c-38-66-83-187-100-270-14-66-16-299-16-1969-1-1855 0-1896 19-1971 25-96 77-222 105-255l22-25 1114 647c613 356 1124 653 1136 660 20 13 19 15-42 139a1844 1844 0 0 0 1 1634c49 99 58 125 48 134-22 18-2245 1318-2254 1318-4 0-19-19-33-42z" fill="#508096"/><path d="M7252 6106c-617-359-1127-657-1133-663s8-46 45-119c260-522 258-1132-4-1656l-59-117 32-19c339-205 2218-1296 2232-1296 26-1 72 84 117 214l32 95 8 1710c10 2023 9 2129-20 2239-23 82-105 266-119 266-4-1-513-295-1131-654z" fill="#d78a54"/></svg>