<svg xmlns="http://www.w3.org/2000/svg" style="display: none;"> <symbol id="apple-music-color"> <svg aria-label="Apple Music" viewBox="0 0 512 512" xmlns="http://www.w3.org/2000/svg"><rect width="512" height="512" rx="15%" fill="#fff"/><style>stop:last-child{stop-color:#fff;stop-opacity:0}</style><linearGradient id="b" x1=".78" x2=".29" y1=".92" y2=".6"><stop stop-color="#39f" offset="0"/><stop offset="1"/></linearGradient><linearGradient id="a" x1=".75" x2=".93" y1=".16" y2=".59"><stop stop-color="#f66" offset="0"/><stop offset="1"/></linearGradient><path d="M199 359V199q0-9 10-11l138-28q11-2 12 10v122q0 15-45 20c-57 9-48 105 30 79 30-11 35-40 35-69V88s0-20-17-15l-170 35s-13 2-13 18v203q0 15-45 20c-57 9-48 105 30 79 30-11 35-40 35-69" fill="#96f"/><path d="M199 359V199q0-9 10-11l138-28q11-2 12 10v122q0 15-45 20c-57 9-48 105 30 79 30-11 35-40 35-69V88s0-20-17-15l-170 35s-13 2-13 18v203q0 15-45 20c-57 9-48 105 30 79 30-11 35-40 35-69" fill="url(#b)"/><path d="M199 359V199q0-9 10-11l138-28q11-2 12 10v122q0 15-45 20c-57 9-48 105 30 79 30-11 35-40 35-69V88s0-20-17-15l-170 35s-13 2-13 18v203q0 15-45 20c-57 9-48 105 30 79 30-11 35-40 35-69" fill="url(#a)"/></svg> </symbol> <symbol id="apple-music-monochrome"> <svg xmlns="http://www.w3.org/2000/svg" viewBox="0 0 28.2 28.2"><defs/><path d="M28.2 7.2c0-.9 0-1.7-.3-2.6A5.8 5.8 0 0025.3 1C24.7.6 24 .3 23.1.2L21.3 0H6.5c-.9 0-1.8.2-2.6.5a5.9 5.9 0 00-3.8 5v1.3L0 7v14.9A6.2 6.2 0 004.4 28H22.8c1-.1 1.9-.4 2.7-1a6 6 0 002.5-4c.2-.8.2-1.6.2-2.4V7.2m-7.6 4.7v6.7c0 .5 0 1-.2 1.4-.4.7-1 1.1-1.7 1.3l-1.2.3a2.2 2.2 0 01-1-4.2 5 5 0 011.1-.4l1.3-.3c.4 0 .6-.3.6-.6v-.2a4542.3 4542.3 0 000-6.6c0-.2-.1-.3-.3-.3a4 4 0 00-.6 0l-2.7.6-2.7.6-1.6.3c-.4 0-.5.2-.5.6v9.3c0 .5 0 1-.3 1.4-.3.8-.9 1.3-1.7 1.5l-1.2.2c-1.2 0-2-.7-2.3-1.8-.2-1 .3-2 1.4-2.5a7 7 0 011.3-.3l1-.2c.4-.1.7-.4.7-.9v-.2a18137.8 18137.8 0 010-10.8c.1-.4.4-.5.7-.6l.9-.2 2.6-.5 2.6-.6 2.4-.5h.8c.3-.1.6.1.6.5v7z"/></svg> </symbol> <symbol id="facebook"> <svg aria-label="Facebook" xmlns="http://www.w3.org/2000/svg" viewBox="0 0 24 24"><desc>Lorenzo Wood Music on Facebook</desc><path d="M22.68 0H1.32C.6 0 0 .6 0 1.32v21.36C0 23.4.6 24 1.32 24h11.5v-9.3H9.69v-3.62h3.13V8.41c0-3.1 1.9-4.79 4.66-4.79 1.32 0 2.46.1 2.8.15V7h-1.92c-1.5 0-1.8.71-1.8 1.76v2.32h3.59l-.47 3.62h-3.12V24h6.12c.73 0 1.32-.6 1.32-1.32V1.32C24 .6 23.4 0 22.68 0z"/></svg> </symbol> <symbol id="instagram"> <svg aria-label="Instagram" xmlns="http://www.w3.org/2000/svg" viewBox="0 0 24 24"><desc>Lorenzo Wood Music on Instagram</desc><path d="M12 2.16c3.2 0 3.58.01 4.85.07 3.25.15 4.77 1.7 4.92 4.92.06 1.27.07 1.65.07 4.85 0 3.2-.01 3.58-.07 4.85-.15 3.23-1.66 4.77-4.92 4.92-1.27.06-1.64.07-4.85.07a83 83 0 0 1-4.85-.07c-3.26-.15-4.77-1.7-4.92-4.92A82.98 82.98 0 0 1 2.16 12a84 84 0 0 1 .07-4.85c.15-3.23 1.67-4.77 4.92-4.92A84.4 84.4 0 0 1 12 2.16zM12 0C8.74 0 8.33.01 7.05.07 2.7.27.27 2.7.07 7.05A84.29 84.29 0 0 0 0 12c0 3.26.01 3.67.07 4.95.2 4.36 2.62 6.78 6.98 6.98 1.28.06 1.7.07 4.95.07 3.26 0 3.67-.01 4.95-.07 4.35-.2 6.78-2.62 6.98-6.98.06-1.28.07-1.7.07-4.95 0-3.26-.01-3.67-.07-4.95C23.73 2.7 21.3.27 16.95.07A84.33 84.33 0 0 0 12 0zm0 5.84a6.16 6.16 0 1 0 0 12.32 6.16 6.16 0 0 0 0-12.32zM12 16a4 4 0 1 1 0-8 4 4 0 0 1 0 8zm6.4-11.85a1.44 1.44 0 1 0 0 2.89 1.44 1.44 0 0 0 0-2.89z"/></svg> </symbol> <symbol id="spotify"> <svg xmlns="http://www.w3.org/2000/svg" viewBox="0 0 168 168"><path d="M84 .28a83.74 83.74 0 1 0 0 167.48A83.74 83.74 0 0 0 84 .28zm38.4 120.78a5.22 5.22 0 0 1-7.18 1.73c-19.66-12.01-44.41-14.73-73.56-8.07a5.22 5.22 0 0 1-2.33-10.18c31.9-7.3 59.27-4.15 81.34 9.34a5.22 5.22 0 0 1 1.73 7.18zm10.25-22.8a6.53 6.53 0 0 1-8.98 2.15c-22.51-13.84-56.82-17.85-83.45-9.77a6.54 6.54 0 0 1-3.8-12.49c30.42-9.23 68.23-4.76 94.08 11.13a6.53 6.53 0 0 1 2.15 8.97zm.88-23.75C106.54 58.48 62.01 57 36.24 64.82a7.83 7.83 0 1 1-4.55-14.99c29.58-8.98 78.76-7.24 109.83 11.2a7.82 7.82 0 1 1-7.99 13.48z"/></svg> </symbol> <symbol id="youtube"> <svg aria-label="YouTube" xmlns="http://www.w3.org/2000/svg" viewBox="0 0 24 24"><desc>Lorenzo Wood Music on YouTube</desc><path d="M4.65 0H6.1l.99 3.7L8 0h1.45L7.79 5.5v3.76H6.35V5.51L4.65 0zm6.6 2.37c-1.12 0-1.86.74-1.86 1.84v3.35c0 1.2.62 1.83 1.86 1.83 1.02 0 1.82-.69 1.82-1.83V4.2c0-1.07-.8-1.84-1.82-1.84zm.53 5.13c0 .37-.2.65-.53.65-.36 0-.56-.3-.56-.65V4.32c0-.37.17-.65.53-.65.39 0 .56.27.56.65V7.5zm4.73-5.07v5.19c-.16.19-.5.5-.75.5-.27 0-.34-.18-.34-.45V2.43h-1.27v5.71c0 .68.2 1.22.89 1.22.38 0 .92-.2 1.47-.85v.75h1.27V2.43H16.5zm2.2 13.86c-.45 0-.54.31-.54.76v.66h1.07v-.66c0-.44-.1-.76-.53-.76zm-4.7.04a.93.93 0 0 0-.25.2v4.05c.1.1.19.18.28.23.2.1.49.1.62-.07.07-.09.1-.24.1-.45v-3.36a.82.82 0 0 0-.12-.5c-.15-.19-.42-.2-.63-.1zm4.82-5.2a183 183 0 0 0-13.66 0c-2.82.2-3.15 1.9-3.17 6.37.02 4.47.35 6.17 3.17 6.37a183 183 0 0 0 13.66 0c2.82-.2 3.15-1.9 3.17-6.37-.02-4.47-.35-6.17-3.17-6.37zM6.51 21.82H5.15v-7.54H3.74V13h4.18v1.28H6.5v7.54zm4.84 0h-1.2v-.72c-.23.27-.46.47-.7.6-.65.38-1.55.37-1.55-.95v-5.44h1.21v5c0 .25.06.43.32.43.24 0 .57-.3.71-.49v-4.94h1.21v6.5zm4.66-1.35c0 .8-.3 1.43-1.1 1.43-.45 0-.82-.16-1.15-.58v.5h-1.22V13h1.22v2.84c.27-.33.64-.6 1.07-.6.89 0 1.18.74 1.18 1.62v3.61zm4.47-1.75h-2.31v1.23c0 .49.04.9.53.9.5 0 .54-.34.54-.9v-.45h1.24v.48c0 1.26-.53 2.02-1.81 2.02-1.16 0-1.75-.85-1.75-2.02v-2.92c0-1.13.75-1.91 1.84-1.91 1.16 0 1.72.74 1.72 1.91v1.66z"/></svg> </symbol> <symbol id="bandsintown"> <svg aria-label="Bands in Town" xmlns="http://www.w3.org/2000/svg" viewBox="0 0 24 24"><desc>Lorenzo Wood Music on Bands in Town</desc><path fill="#00AEA8" d="M0 0h24v24H0z"/><path fill="#FFF" d="M12.5 7.5h4v5h-4zm4.5-5h4v10h-4z"/><path d="M3.5 3v18.5H21V13H8v4h9v.5H7.5V3h-4z" fill="#FFF"/><path fill="#FFF" d="M8 7.5h4v5H8z"/></svg> </symbol> <symbol id="downarrow"> <svg xmlns="http://www.w3.org/2000/svg" width="24" height="24"><path d="M1 6l11 10L23 6" stroke-width="4" stroke-linecap="square" fill="none"/></svg> </symbol> </svg> 