<svg viewBox="0 0 846 73" aria-label="Lorenzo Wood Music" xmlns="http://www.w3.org/2000/svg" style="padding-top:3%;max-width:75%;max-height:140px"><g fill="none" fill-rule="evenodd"><path d="M.1 71V3.6h12.3v57.1h27.7V71H.1zm69.8-49.8c14.5 0 24.2 10.2 24.2 25 0 17.9-12.6 25.9-25 25.9-13.8 0-24.4-9.5-24.4-25.1 0-16 10.5-25.8 25.2-25.8zm-.3 9c-8.7 0-12.2 8.4-12.2 16.5 0 9.4 4.6 16.5 12.1 16.5 7 0 11.9-6.9 11.9-16.7 0-7.6-3.4-16.3-11.8-16.3zM104.2 71V38c0-6.6-.1-11.3-.4-15.7h10.7l.4 9.3h.4c2.4-6.9 8.1-10.4 13.3-10.4 1.2 0 1.9.1 2.9.3v11.6c-1-.2-2.1-.4-3.6-.4-5.9 0-9.9 3.8-11 9.3-.2 1.1-.4 2.4-.4 3.8V71h-12.3zm76-20.9h-32.6c.3 8.8 7.2 12.6 15 12.6 5.7 0 9.8-.8 13.5-2.2l1.8 8.5c-4.2 1.7-10 3-17 3-15.8 0-25.1-9.7-25.1-24.6 0-13.5 8.2-26.2 23.8-26.2 15.8 0 21 13 21 23.7 0 2.3-.2 4.1-.4 5.2zm-32.6-8.6H169c.1-4.5-1.9-11.9-10.1-11.9-7.6 0-10.8 6.9-11.3 11.9zM190.5 71V36.8c0-5.6-.1-10.3-.4-14.5h10.8l.6 7.3h.3c2.1-3.8 7.4-8.4 15.5-8.4 8.5 0 17.3 5.5 17.3 20.9V71h-12.3V43.5c0-7-2.6-12.3-9.3-12.3-4.9 0-8.3 3.5-9.6 7.2-.4 1.1-.5 2.6-.5 4V71h-12.4zm52.6 0v-7.1l18.3-23.4c2.5-3 4.6-5.4 7.2-8.2v-.2h-23.7v-9.8h38.7v7.5l-17.9 22.9c-2.4 2.9-4.7 5.7-7.2 8.3v.2h25.7V71h-41.1zm71-49.8c14.5 0 24.2 10.2 24.2 25 0 17.9-12.6 25.9-25 25.9-13.8 0-24.4-9.5-24.4-25.1 0-16 10.5-25.8 25.2-25.8zm-.3 9c-8.7 0-12.2 8.4-12.2 16.5 0 9.4 4.6 16.5 12.1 16.5 7 0 11.9-6.9 11.9-16.7 0-7.6-3.4-16.3-11.8-16.3zM373.1 71h-13.3L343.3 3.6h13.1l6.4 30.6c1.7 8.2 3.3 16.8 4.4 23.5h.2c1.1-7.1 3-15.1 4.9-23.6l7.3-30.5h12.9l6.7 31c1.7 8 3.1 15.5 4.1 22.8h.2c1.2-7.4 2.8-15.1 4.6-23.3l7-30.5h12.5L409.5 71h-13.2l-7-31.7c-1.7-7.7-2.9-14.1-3.7-21.4h-.2c-1.2 7.2-2.5 13.7-4.5 21.4L373.1 71zm80.5-49.8c14.5 0 24.2 10.2 24.2 25 0 17.9-12.6 25.9-25 25.9-13.8 0-24.4-9.5-24.4-25.1 0-16 10.5-25.8 25.2-25.8zm-.3 9c-8.7 0-12.2 8.4-12.2 16.5 0 9.4 4.6 16.5 12.1 16.5 7 0 11.9-6.9 11.9-16.7 0-7.6-3.4-16.3-11.8-16.3zm56.7-9c14.5 0 24.2 10.2 24.2 25 0 17.9-12.6 25.9-25 25.9-13.8 0-24.4-9.5-24.4-25.1 0-16 10.5-25.8 25.2-25.8zm-.3 9c-8.7 0-12.2 8.4-12.2 16.5 0 9.4 4.6 16.5 12.1 16.5 7 0 11.9-6.9 11.9-16.7 0-7.6-3.4-16.3-11.8-16.3zM576.9 0h12.3v57.3c0 5 .2 10.4.4 13.7h-11l-.5-7.7h-.2c-2.9 5.4-8.8 8.8-15.9 8.8-11.6 0-20.8-9.9-20.8-24.9-.1-16.3 10.1-26 21.8-26 6.7 0 11.5 2.8 13.7 6.4h.2V0zm0 49.9v-7.3c0-1-.1-2.2-.3-3.2-1.1-4.8-5-8.7-10.6-8.7-7.9 0-12.3 7-12.3 16.1 0 8.9 4.4 15.4 12.2 15.4 5 0 9.4-3.4 10.6-8.7.3-1.1.4-2.3.4-3.6z" fill="#FFF"/><path d="M661.3 71L660 43.5c-.4-8.7-.9-19.2-.8-28.3h-.3c-2.2 8.2-5 17.3-8 25.8l-9.8 29.2h-9.5l-9-28.8c-2.6-8.6-5-17.8-6.8-26.2h-.2c-.3 8.8-.7 19.5-1.2 28.7L612.9 71h-11.5l4.5-67.4h16.2l8.8 27.1c2.4 7.9 4.5 15.9 6.2 23.4h.3c1.8-7.3 4.1-15.6 6.7-23.5l9.3-27h16l3.9 67.4h-12zm67.6-48.7v34.1c0 5.8.2 10.6.4 14.6h-10.8l-.6-7.4h-.2c-2.1 3.5-6.9 8.5-15.6 8.5-8.9 0-17-5.3-17-21.2V22.3h12.3v26.5c0 8.1 2.6 13.3 9.1 13.3 4.9 0 8.1-3.5 9.4-6.6.4-1.1.7-2.4.7-3.8V22.3h12.3zm10.3 46.3l2.4-8.9c2.8 1.7 8.1 3.5 12.5 3.5 5.4 0 7.8-2.2 7.8-5.4 0-3.3-2-5-8-7.1-9.5-3.3-13.5-8.5-13.4-14.2 0-8.6 7.1-15.3 18.4-15.3 5.4 0 10.1 1.4 12.9 2.9l-2.4 8.7c-2.1-1.2-6-2.8-10.3-2.8-4.4 0-6.8 2.1-6.8 5.1 0 3.1 2.3 4.6 8.5 6.8 8.8 3.2 12.9 7.7 13 14.9 0 8.8-6.9 15.2-19.8 15.2-5.9 0-11.2-1.4-14.8-3.4zm57.1 2.4h-12.4V22.3h12.4V71zm-6.2-69c4.2 0 6.8 2.9 6.9 6.7 0 3.7-2.7 6.6-7 6.6-4.1 0-6.8-2.9-6.8-6.6 0-3.8 2.8-6.7 6.9-6.7zm53.5 58.4l1.7 9.1c-2.6 1.2-7.7 2.5-13.8 2.5-15.2 0-25.1-9.7-25.1-24.8 0-14.6 10-26 27.1-26 4.5 0 9.1 1 11.9 2.3l-2.2 9.2c-2-.9-4.9-1.9-9.3-1.9-9.4 0-15 6.9-14.9 15.8 0 10 6.5 15.7 14.9 15.7 4.3 0 7.3-.9 9.7-1.9z" fill="#62B1DE"/></g></svg>