<svg xmlns="http://www.w3.org/2000/svg" viewBox="85 90 441 49"><defs/><path d="M90.4 132.4V92.9c0-.7-.7-1.3-1.4-1.4h-3.3V137H97c1.5 0 2.2-.7 2.5-1.2l1.5-3.4H90.4zM125.6 91a5.8 5.8 0 00-5.9 5.8v35a6 6 0 005.9 5.7h3.5a5.9 5.9 0 005.7-5.8V96.8a6 6 0 00-5.7-5.8h-3.5zm1.3 42.4a2.6 2.6 0 01-2.5-2.6V97.7c0-1.4 1.1-2.5 2.5-2.6h.7c1.3 0 2.4 1.2 2.4 2.6v33.1c0 1.4-1 2.6-2.4 2.6h-.7zm46.4 3.6v-17.4s.1-3.4-1.7-4.3c1.9-.5 1.7-4 1.7-4v-14c0-3.3-2.6-5.8-5.8-5.8H159V137h4.7v-19.6h2.5c1.2 0 2.4.8 2.4 3V137h4.7zm-9.6-24V96h2.5c1.2 0 2.4.6 2.4 2.3v12.2c0 2.1-1.2 2.6-2.4 2.6h-2.5zm41 19.4v-15.8c0-.6.5-1.1 1-1.1h2c1.5 0 2.2-.7 2.5-1.3l1.5-3.4h-7V97.3c0-.7.4-1.1 1-1.1h3.8c1.5 0 2.3-.7 2.5-1.3l1.6-3.4h-12.2c-.8 0-1.4.6-1.4 1.3V137h10.4c1.5 0 2.2-.7 2.5-1.2l1.5-3.4h-9.7zm47-40.9H247v26.2L242.2 94c-.2-1.3-.7-2.5-3.3-2.5h-2.1V137h4.7v-25.4l5 22.5c.2.9.5 2.9 3 2.9h2.2V91.5zM279.5 115.3L272 137h17c1.4 0 2-.7 2.4-1.3l1.5-3.3h-12.7c-.6 0-1-.5-.8-1.2l5.3-15.9h-5.3zM293 91.5h-17.8l1.6 3.4c.3.6 1 1.3 2.5 1.3h5.2c.8 0 1 .5 1 1l-4.7 13.7h5.5l6.6-19.4zM320.6 91a5.8 5.8 0 00-5.9 5.8v35a6 6 0 005.9 5.7h3.5a5.9 5.9 0 005.7-5.8V96.8a6 6 0 00-5.7-5.8h-3.5zm1.3 42.4a2.6 2.6 0 01-2.5-2.6V97.7c0-1.4 1.1-2.5 2.5-2.6h.7c1.3 0 2.4 1.2 2.4 2.6v33.1c0 1.4-1 2.6-2.4 2.6h-.7zM414 91.5h-3.7c-1 0-1.3.6-1.4 1l-3 24.9-3-19.4h-.6c-3 0-3.8 1-4 3.6l-2.3 15.8-3.2-25c0-.2-.3-.9-1.4-.9h-3.6l5.7 45.5h4.3l3.1-23 3.2 23h4.3l5.6-45.5zm24.9-.5a5.8 5.8 0 00-5.9 5.8v35a6 6 0 005.9 5.7h3.5a5.9 5.9 0 005.7-5.8V96.8a6 6 0 00-5.7-5.8H439zm1.3 42.4a2.6 2.6 0 01-2.5-2.6V97.7c0-1.4 1.1-2.5 2.5-2.6h.7c1.3 0 2.4 1.2 2.4 2.6v33.1c0 1.4-1 2.6-2.4 2.6h-.7zM477.9 91a5.8 5.8 0 00-5.9 5.8v35a6 6 0 005.9 5.7h3.5a5.9 5.9 0 005.7-5.8V96.8a6 6 0 00-5.7-5.8H478zm1.3 42.4a2.6 2.6 0 01-2.5-2.6V97.7c0-1.4 1.1-2.5 2.5-2.6h.7c1.3 0 2.4 1.2 2.4 2.6v33.1c0 1.4-1 2.6-2.4 2.6h-.7zm31.9-41.9V137h9c3.3 0 5.8-2.5 5.9-5.7v-34a5.8 5.8 0 00-5.8-5.8h-9zm10.2 38.5c0 1.7-1.1 2.4-2.4 2.4h-3V96.2h3c1.3 0 2.4.6 2.4 2.3V130z"/></svg>