<svg aria-label="SoundCloud" xmlns="http://www.w3.org/2000/svg" viewBox="0 6 24 12"><desc>Lorenzo Wood Music on SoundCloud</desc><path fill="#f50" d="M7 17.94H6V9.87c.3-.23.64-.43 1-.56v8.63zm3 0h1V8.7c-.23.27-.44.55-.62.86L10 9.4v8.55zm-2 0h1V9.09c-.5-.08-.62-.05-1 0v8.85zm-4 0h1v-7.02a4.7 4.7 0 0 0-.7 1.53l-.3-.18v5.67zm-3-5.25a3.07 3.07 0 0 0 0 4.53V12.7zm18.88-.67c-.2-2.84-2.4-5.08-5.12-5.08-1.02 0-1.96.33-2.76.88v10.12h9.09c1.6 0 2.91-1.4 2.91-3.1 0-2.24-2.17-3.78-4.12-2.82zM3 11.99c-.3-.02-.53-.03-1 .12v5.7c.45.14.64.13 1 .13v-5.95z"/></svg>