<svg xmlns="http://www.w3.org/2000/svg" xmlns:xlink="http://www.w3.org/1999/xlink" width="125" height="40"><defs><path id="a" d="M59.9 16.5v5.1c0 1.5-.7 2.4-1.9 2.4s-1.9-.9-1.9-2.4v-5.1h-1.8v5.1c0 2.6 1.5 4.1 3.7 4.1 2.3 0 3.7-1.5 3.7-4.2v-5.1h-1.8zm9.6 0v5.8c-.1-.2-.4-.7-.6-1l-3.2-4.8H64v9.1h1.8v-4-2c.1.2.4.7.6 1l3.3 5h1.6v-9.1h-1.8zm6 1.8h1c1.9 0 2.7.9 2.7 2.8 0 1.7-.9 2.8-2.8 2.8h-.9v-5.6zm-1.8-1.8v9.1h2.7c2.3 0 4.7-1.3 4.7-4.5 0-3.3-1.9-4.5-4.5-4.5h-2.9zm17.9 0v9.1h5.5v-1.8h-3.6v-7.3h-1.9zm21.5 0v5.1c0 1.5-.7 2.4-1.9 2.4s-1.9-.9-1.9-2.4v-5.1h-1.8v5.1c0 2.6 1.5 4.1 3.7 4.1 2.3 0 3.7-1.5 3.7-4.2v-5.1h-1.8zm5.9 1.8h1c1.9 0 2.7.9 2.7 2.8 0 1.7-.9 2.8-2.8 2.8h-.9v-5.6zm-1.8-1.8v9.1h2.7c2.3 0 4.7-1.3 4.7-4.5 0-3.3-1.9-4.5-4.5-4.5h-2.9zm-80.7 2.6c0 1.8 1.2 2.3 2.8 2.7 1.7.4 2 .6 2 1.2 0 .7-.5 1-1.6 1-.9 0-1.7-.3-2.3-1l-1.3 1.2c.7 1 2 1.7 3.5 1.7 2.5 0 3.6-1.2 3.6-2.9 0-2-1.6-2.5-3-2.8-1.4-.3-1.8-.5-1.8-1.1 0-.4.3-.8 1.3-.8.8 0 1.5.3 2.1.9l1.3-1.3c-.9-.9-1.9-1.4-3.3-1.4-1.9-.1-3.3.9-3.3 2.6m10 2c0-1.6.6-2.9 2.1-2.9s2.1 1.3 2.1 2.9c0 1.6-.6 2.9-2.1 2.9s-2.1-1.3-2.1-2.9m-1.9 0c0 2.8 1.5 4.7 3.9 4.7 2.5 0 4-1.9 4-4.7 0-2.8-1.5-4.7-4-4.7-2.4 0-3.9 1.9-3.9 4.7m38 0c0 2.9 1.6 4.7 4 4.7 1.7 0 2.7-.8 3.4-2.1l-1.5-.9c-.5.8-1 1.2-1.8 1.2-1.4 0-2.2-1.2-2.2-2.9s.8-2.9 2.1-2.9c.8 0 1.3.4 1.7 1l1.7-.8c-.6-1.2-1.6-2-3.3-2-2.4 0-4.1 1.9-4.1 4.7m17.2 0c0-1.6.6-2.9 2.1-2.9s2.1 1.3 2.1 2.9c0 1.6-.6 2.9-2.1 2.9s-2.1-1.3-2.1-2.9m-1.9 0c0 2.8 1.5 4.7 3.9 4.7 2.5 0 3.9-1.9 3.9-4.7 0-2.8-1.5-4.7-3.9-4.7s-3.9 1.9-3.9 4.7m-97.7.6L0 23.5l.2 1.8c0 .1.1.1.1.1.1 0 .1-.1.1-.1l.3-1.8-.3-1.8c0-.1-.1-.1-.1-.1s-.1 0-.1.1m1.2-1.1l-.3 2.9.3 2.9c0 .1.1.1.1.1.1 0 .1-.1.1-.1l.4-2.9-.4-2.9c0-.1-.1-.1-.1-.1 0-.1-.1 0-.1.1m3.8-.4L5 23.5l.2 3.5c0 .1.1.2.2.2s.2-.1.2-.2l.4-3.5-.3-3.3c0-.1-.1-.2-.2-.2-.2 0-.3.1-.3.2M2.7 20l-.3 3.5.3 3.3c0 .1.1.2.2.2 0 0 .1-.1.1-.2l.3-3.3L3 20c0-.1-.1-.2-.2-.2 0 .1-.1.1-.1.2m1.2-.1l-.3 3.6.3 3.4c0 .1.1.2.2.2s.2-.1.2-.2l.3-3.4-.3-3.6c0-.1-.1-.2-.2-.2s-.1.1-.2.2m2.6-1.8l-.3 5.4.3 3.5c0 .1.1.2.2.2.2 0 .3-.1.3-.2l.3-3.5-.3-5.4c0-.1-.1-.2-.2-.2-.2 0-.3.1-.3.2m1.3-1.2l-.2 6.6.2 3.5c0 .2.1.3.3.3.1 0 .3-.1.3-.3l.3-3.5-.3-6.6c0-.2-.1-.3-.3-.3-.2 0-.3.1-.3.3m5.3-.3l-.2 6.9.2 3.3c0 .2.2.4.4.4s.4-.2.4-.4l.2-3.3-.2-7c0-.2-.2-.4-.4-.4-.3.1-.4.2-.4.5m-4-.3l-.2 7.2.2 3.4c0 .2.1.3.3.3.2 0 .3-.1.3-.3l.2-3.4-.2-7.2c0-.2-.1-.3-.3-.3-.2 0-.3.2-.3.3m2.6 0l-.2 7.2.2 3.4c0 .2.2.4.4.4s.4-.2.4-.4l.2-3.4-.2-7.2c0-.2-.2-.4-.4-.4s-.4.2-.4.4m-1.3-.2l-.2 7.4.2 3.4c0 .2.1.3.3.3.2 0 .3-.1.3-.3l.2-3.4-.2-7.4c0-.2-.2-.3-.3-.3-.1 0-.3.1-.3.3m4-.9l-.2 8.3.2 3.3c0 .2.2.4.4.4s.4-.2.4-.4l.2-3.3-.2-8.3c0-.2-.2-.4-.4-.4s-.4.2-.4.4m1.4-.7l-.2 9 .2 3.3c0 .2.2.4.4.4s.4-.2.4-.4l.2-3.3-.2-9c0-.2-.2-.4-.4-.4-.2-.1-.4.1-.4.4m1.6-.9c-.3.1-.4.2-.4.5v12.7c0 .2.2.4.4.5h11.1c2.2 0 4-1.8 4-4s-1.8-4-4-4c-.5 0-1.1.1-1.5.3-.3-3.6-3.3-6.4-7-6.4-.9-.1-1.8.1-2.6.4"/></defs><clipPath id="b"><use xlink:href="#a" overflow="visible"/></clipPath><linearGradient id="c" gradientUnits="userSpaceOnUse" x1="357.387" y1="281.287" x2="358.559" y2="281.287" gradientTransform="matrix(0 53.0063 53.0063 0 -14847.688 -18966.55)"><stop offset="0" stop-color="#f8a01d"/><stop offset=".713" stop-color="#f26e23"/><stop offset="1" stop-color="#ef5826"/></linearGradient><path clip-path="url(#b)" fill="url(#c)" d="M0 0h124.5v39.4H0z"/></svg>