<svg xmlns="http://www.w3.org/2000/svg" viewBox="0 0 125 40"><path d="M42 7.8V18c-.7-1-2.2-2.7-5.2-2.7s-7.6 2.2-7.6 8.4 4.4 8.5 7.8 8.5c2.3 0 4.2-1.3 5.2-2.7v2.3h4.2v-24H42zm-4.2 20.7c-2.4 0-4.3-2.1-4.3-4.7s2-4.7 4.3-4.7 4.4 2 4.4 4.7-2 4.7-4.4 4.7zM60 25.7s-.7 2.8-3.8 2.8c-3 0-4.2-2.2-4.3-4h11c1-3.3-.7-9.2-7.4-9.2a8 8 0 0 0-8 8.4c0 6 5 8.4 8.5 8.4 3.8 0 6.7-2 7.6-5L60 25.7zm-4.4-7c2.5 0 3.3 1.8 3.3 3h-7c0-1 1.3-3 3.7-3zM76.2 25.7s-.7 2.8-3.8 2.8c-3 0-4.2-2.2-4.3-4h11c1-3.3-.7-9.2-7.4-9.2a8 8 0 0 0-8 8.4c0 6 5 8.4 8.5 8.4 3.8 0 6.7-2 7.6-5l-3.6-1.4zm-4.4-7c2.5 0 3.3 1.8 3.3 3h-7c0-1 1.3-3 3.7-3zM107.2 25.7s-.6 2.8-3.7 2.8c-3 0-4.3-2.2-4.3-4h11c1-3.3-.7-9.2-7.4-9.2a8 8 0 0 0-8 8.4c0 6 5 8.4 8.4 8.4 3.9 0 6.8-2 7.7-5l-3.7-1.4zm-4.3-7c2.4 0 3.3 1.8 3.3 3h-7c0-1 1.3-3 3.7-3zM80.3 15.6v3.8h8.6L80 28.1v3.7h14.7v-3.9h-9.2l8.9-8.7v-3.6zM120.3 15.3c-2 0-3.3 1.4-3.8 2.4v-2H112v16h4.4V21.4c0-1.3 1-2.6 2.3-2.6 1.3 0 2.2.8 2 3h4c.6-2.5-.3-6.4-4.5-6.4z"/><linearGradient id="ta" gradientUnits="userSpaceOnUse" x1="25.3" y1="30.2" x2="-.5" y2="30.2"><stop offset="0" stop-color="#1682b4"/><stop offset="0" stop-color="#1d75b2"/><stop offset=".1" stop-color="#3748ab"/><stop offset=".2" stop-color="#4137a8"/></linearGradient><path fill="url(#ta)" d="M19.3 28.7h5.4v3.1h-5.4z"/><linearGradient id="tb" gradientUnits="userSpaceOnUse" x1="25.3" y1="30.2" x2="-.5" y2="30.2"><stop offset="0" stop-color="#1682b4"/><stop offset=".2" stop-color="#244ab9"/><stop offset=".2" stop-color="#4137a8"/><stop offset=".4" stop-color="#a71c81"/><stop offset=".7" stop-color="#ef8907"/><stop offset="1" stop-color="#f6a400"/></linearGradient><path fill="url(#tb)" d="M0 28.7h5.4v3.1H0z"/><linearGradient id="tc" gradientUnits="userSpaceOnUse" x1="25.3" y1="30.2" x2="-.5" y2="30.2"><stop offset="0" stop-color="#1682b4"/><stop offset=".2" stop-color="#244ab9"/><stop offset=".2" stop-color="#4137a8"/><stop offset=".4" stop-color="#a71c81"/><stop offset=".7" stop-color="#ef8907"/><stop offset="1" stop-color="#f6a400"/></linearGradient><path fill="url(#tc)" d="M12.9 28.7h5.3v3.1h-5.3z"/><linearGradient id="td" gradientUnits="userSpaceOnUse" x1="25.3" y1="30.2" x2="-.5" y2="30.2"><stop offset="0" stop-color="#1682b4"/><stop offset=".2" stop-color="#244ab9"/><stop offset=".2" stop-color="#4137a8"/><stop offset=".4" stop-color="#a71c81"/><stop offset=".7" stop-color="#ef8907"/><stop offset="1" stop-color="#f6a400"/></linearGradient><path fill="url(#td)" d="M6.5 28.7h5.3v3.1H6.5z"/><linearGradient id="te" gradientUnits="userSpaceOnUse" x1="25.3" y1="25.8" x2="-.5" y2="25.8"><stop offset="0" stop-color="#1682b4"/><stop offset="0" stop-color="#1d75b2"/><stop offset=".1" stop-color="#3748ab"/><stop offset=".2" stop-color="#4137a8"/></linearGradient><path fill="url(#te)" d="M19.3 24.3h5.4v3.1h-5.4z"/><linearGradient id="tf" gradientUnits="userSpaceOnUse" x1="25.3" y1="25.8" x2="-.5" y2="25.8"><stop offset="0" stop-color="#1682b4"/><stop offset=".2" stop-color="#244ab9"/><stop offset=".2" stop-color="#4137a8"/><stop offset=".4" stop-color="#a71c81"/><stop offset=".7" stop-color="#ef8907"/><stop offset="1" stop-color="#f6a400"/></linearGradient><path fill="url(#tf)" d="M6.5 24.3h5.3v3.1H6.5z"/><linearGradient id="tg" gradientUnits="userSpaceOnUse" x1="25.3" y1="21.5" x2="-.5" y2="21.5"><stop offset=".4" stop-color="#b83664"/><stop offset=".6" stop-color="#ef8907"/><stop offset="1" stop-color="#f6a400"/></linearGradient><path fill="url(#tg)" d="M6.5 19.9h5.3V23H6.5z"/><linearGradient id="th" gradientUnits="userSpaceOnUse" x1="25.3" y1="25.8" x2="-.5" y2="25.8"><stop offset=".3" stop-color="#4137a8"/><stop offset=".5" stop-color="#a71c81"/></linearGradient><path fill="url(#th)" d="M12.9 24.3h5.3v3.1h-5.3z"/><g><linearGradient id="ti" gradientUnits="userSpaceOnUse" x1="22" y1="23" x2="22" y2="15.7"><stop offset=".1" stop-color="#1d958d"/><stop offset=".7" stop-color="#29ab70"/></linearGradient><path fill="url(#ti)" d="M19.3 19.9h5.4V23h-5.4z"/><linearGradient id="tj" gradientUnits="userSpaceOnUse" x1="22" y1="23" x2="22" y2="15.7"><stop offset=".1" stop-color="#1d958d"/><stop offset=".7" stop-color="#29ab70"/></linearGradient><path fill="url(#tj)" d="M19.3 15.7h5.4v3.1h-5.4z"/></g><path fill="none" d="M0 0h125v40H0z"/></svg>