<svg aria-label="iTunes" xmlns="http://www.w3.org/2000/svg" xmlns:xlink="http://www.w3.org/1999/xlink" viewBox="0 0 124.22 26.16"><path d="M30.95 12.31a1.08 1.08 0 0 1 2.16 0c0 .59-.48 1.06-1.09 1.06-.6 0-1.08-.47-1.08-1.06zm.14 2.4h1.86v9.06H31.1V14.7zm6.82 9.06V13H34.1v-1.66h9.54V13h-3.8v10.78h-1.93zm13.51 0h-1.78v-1.56h-.05c-.51 1.09-1.42 1.66-2.8 1.66-1.98 0-3.19-1.27-3.19-3.35V14.7h1.86v5.46c0 1.38.66 2.11 1.94 2.11 1.35 0 2.16-.93 2.16-2.34V14.7h1.86v9.07zm1.83-9.07h1.78v1.55h.04c.54-1.1 1.46-1.65 2.86-1.65 2 0 3.14 1.28 3.14 3.36v5.81H59.2v-5.45c0-1.36-.63-2.12-1.94-2.12-1.33 0-2.14.95-2.14 2.35v5.22h-1.87V14.7zm17.39 6.4c-.25 1.65-1.86 2.78-3.9 2.78-2.65 0-4.28-1.76-4.28-4.6 0-2.85 1.64-4.69 4.2-4.69 2.5 0 4.08 1.72 4.08 4.47v.64h-6.4v.12c0 1.55.97 2.56 2.43 2.56 1.04 0 1.85-.49 2.1-1.27h1.77zm-6.3-2.7h4.54c-.04-1.39-.93-2.3-2.23-2.3-1.28 0-2.21.93-2.3 2.3zm11.22-3.8c2.01 0 3.45 1.11 3.5 2.71H77.3c-.07-.8-.75-1.29-1.79-1.29-1 0-1.68.47-1.68 1.17 0 .55.45.9 1.39 1.14l1.52.36c1.83.43 2.52 1.1 2.52 2.44 0 1.63-1.55 2.75-3.77 2.75-2.13 0-3.57-1.1-3.71-2.75h1.84c.13.88.83 1.34 1.96 1.34 1.11 0 1.81-.46 1.81-1.18 0-.56-.34-.86-1.3-1.1l-1.61-.4c-1.64-.4-2.47-1.23-2.47-2.5 0-1.6 1.44-2.7 3.55-2.7zm10.3 5.7c.14 1.24 1.34 2.05 2.98 2.05 1.56 0 2.7-.81 2.7-1.92 0-.97-.69-1.55-2.3-1.94l-1.61-.4c-2.29-.54-3.35-1.61-3.35-3.34 0-2.15 1.87-3.63 4.53-3.63 2.63 0 4.43 1.48 4.49 3.63h-1.88c-.11-1.25-1.14-2-2.64-2s-2.52.76-2.52 1.87c0 .87.65 1.4 2.25 1.79l1.38.33c2.55.6 3.6 1.63 3.6 3.45 0 2.33-1.85 3.79-4.8 3.79-2.75 0-4.62-1.43-4.74-3.68h1.91zm11.56-7.75v2.15h1.72v1.48h-1.72v5c0 .77.34 1.13 1.1 1.13.19 0 .49-.02.61-.04v1.47c-.2.05-.62.08-1.03.08-1.84 0-2.56-.69-2.56-2.45v-5.2h-1.32V14.7h1.32v-2.15h1.88zm2.48 6.69c0-2.86 1.69-4.65 4.3-4.65 2.64 0 4.3 1.8 4.3 4.65 0 2.86-1.66 4.64-4.3 4.64-2.63 0-4.3-1.78-4.3-4.64zm6.71 0c0-1.96-.9-3.12-2.4-3.12s-2.4 1.17-2.4 3.12c0 1.96.89 3.1 2.4 3.1s2.4-1.14 2.4-3.1zm3.33-4.54h1.78v1.55h.04a2.16 2.16 0 0 1 2.18-1.64c.27 0 .5.03.64.07v1.74a2.62 2.62 0 0 0-.83-.12c-1.2 0-1.94.82-1.94 2.1v5.37h-1.87V14.7zm13.18 6.4c-.25 1.65-1.85 2.78-3.9 2.78-2.64 0-4.28-1.76-4.28-4.6 0-2.85 1.65-4.69 4.2-4.69 2.5 0 4.08 1.72 4.08 4.47v.64h-6.4v.12c0 1.55.97 2.56 2.44 2.56 1.03 0 1.84-.49 2.1-1.27h1.76zm-6.3-2.7h4.54c-.04-1.39-.93-2.3-2.22-2.3s-2.22.93-2.31 2.3z"/><defs><path id="a" d="M0 0h25.16v25.16H0z"/></defs><clipPath id="b"><use xlink:href="#a" overflow="visible"/></clipPath><g clip-path="url(#b)"><defs><path id="c" d="M7.72 0h-.75l-.76.01c-.55.02-1.1.05-1.65.15a5.6 5.6 0 0 0-2.91 1.49 5.3 5.3 0 0 0-1.5 2.9C.07 5.1.04 5.66.02 6.22v.76L0 7.69v9.78a87.12 87.12 0 0 0 .01 1.48c.02.55.05 1.1.15 1.65a5.56 5.56 0 0 0 1.49 2.91 5.27 5.27 0 0 0 2.9 1.5c.55.1 1.1.13 1.66.14a32.02 32.02 0 0 0 1.5.01H18.2l.76-.01a11.5 11.5 0 0 0 1.66-.14 5.57 5.57 0 0 0 2.9-1.5 5.27 5.27 0 0 0 1.5-2.9c.1-.55.13-1.1.14-1.66a32.02 32.02 0 0 0 .01-1.48V6.97l-.01-.76c-.01-.55-.05-1.1-.14-1.65a5.56 5.56 0 0 0-1.5-2.91 5.27 5.27 0 0 0-2.9-1.5c-.55-.09-1.1-.12-1.66-.14h-.76L17.44 0H7.72z"/></defs><clipPath id="d"><use xlink:href="#c" overflow="visible"/></clipPath><linearGradient id="e" gradientUnits="userSpaceOnUse" x1="-1245.58" y1="-853.43" x2="-1245.55" y2="-853.43" gradientTransform="matrix(0 961.0199 961.0199 0 820180.19 1197022.63)"><stop offset="0" stop-color="#ef4db7"/><stop offset="1" stop-color="#c643fd"/></linearGradient><path clip-path="url(#d)" fill="url(#e)" d="M0 0h25.16v25.16H0z"/></g><g clip-path="url(#b)"><defs><path id="f" d="M12.43 3.2a.52.52 0 0 0-.14.13l-.02.03c-.06.08-.1.17-.14.26l-.29.81-1.68 5.18h4.83l-1.68-5.18c-.09-.27-.18-.54-.29-.81-.03-.1-.08-.18-.13-.26l-.02-.03a.5.5 0 0 0-.14-.13.29.29 0 0 0-.15-.05.3.3 0 0 0-.15.05"/></defs><clipPath id="g"><use xlink:href="#f" overflow="visible"/></clipPath><radialGradient id="h" cx="-1245.76" cy="-855.89" r=".03" gradientTransform="matrix(717.8253 0 0 -717.8253 894237.31 -614363.31)" gradientUnits="userSpaceOnUse"><stop offset="0" stop-color="#fbe3f8"/><stop offset=".74" stop-color="#fbe3f8"/><stop offset=".81" stop-color="#fadef6"/><stop offset=".88" stop-color="#f9d1f0"/><stop offset=".96" stop-color="#f6bae7"/><stop offset=".98" stop-color="#f5b1e3"/><stop offset="1" stop-color="#f5b1e3"/></radialGradient><path clip-path="url(#g)" fill="url(#h)" d="M10.16 3.15H15v6.46h-4.84z"/></g><g clip-path="url(#b)"><defs><path id="i" d="M12.58 17.05l4.4 3.2.71.49c.09.05.17.1.27.13l.03.01.19.03a.4.4 0 0 0 .15-.06.29.29 0 0 0 .1-.12.53.53 0 0 0 .03-.19v-.04c0-.1-.02-.2-.04-.29a15.8 15.8 0 0 0-.25-.83l-1.68-5.17-3.91 2.84z"/></defs><clipPath id="j"><use xlink:href="#i" overflow="visible"/></clipPath><radialGradient id="k" cx="-1245.76" cy="-855.89" r=".03" gradientTransform="matrix(717.8253 0 0 -717.8253 894237.31 -614363.31)" gradientUnits="userSpaceOnUse"><stop offset="0" stop-color="#f9e3fb"/><stop offset=".75" stop-color="#f9e3fb"/><stop offset=".81" stop-color="#f8defb"/><stop offset=".88" stop-color="#f3d0fa"/><stop offset=".96" stop-color="#ecbaf9"/><stop offset=".98" stop-color="#eab2f9"/><stop offset="1" stop-color="#eab2f9"/></radialGradient><path clip-path="url(#j)" fill="url(#k)" d="M12.58 14.21h5.88v6.7h-5.88z"/></g><g clip-path="url(#b)"><defs><path id="l" d="M4.72 9.6c-.3 0-.58.02-.87.03-.1 0-.2.02-.29.05l-.03.01a.5.5 0 0 0-.17.1.28.28 0 0 0-.09.12.3.3 0 0 0 0 .16c.01.06.04.11.08.17l.02.03c.06.08.13.15.2.21l.7.53 4.4 3.2 1.49-4.6H4.72z"/></defs><clipPath id="m"><use xlink:href="#l" overflow="visible"/></clipPath><radialGradient id="n" cx="-1245.86" cy="-856.1" r=".03" gradientTransform="matrix(978.9961 0 0 -978.9961 1219679.13 -838118)" gradientUnits="userSpaceOnUse"><stop offset="0" stop-color="#fae1f8"/><stop offset=".6" stop-color="#fae1f8"/><stop offset=".85" stop-color="#f7d6f7"/><stop offset="1" stop-color="#f7d6f7"/></radialGradient><path clip-path="url(#m)" fill="url(#n)" d="M3.25 9.61h6.9v4.6h-6.9z"/></g><g clip-path="url(#b)"><defs><path id="o" d="M6.98 19.38a12.95 12.95 0 0 0-.29 1.13v.03c0 .07.02.13.04.19.02.05.05.1.1.12.04.03.09.05.14.05a.5.5 0 0 0 .2-.02l.03-.01c.09-.03.18-.08.26-.13.24-.16.48-.32.71-.5l4.4-3.2-2.48-1.8-1.43-1.03-1.68 5.17z"/></defs><clipPath id="p"><use xlink:href="#o" overflow="visible"/></clipPath><radialGradient id="q" cx="-1246.74" cy="-855.42" r=".03" gradientTransform="matrix(696.9604 0 0 -696.9604 868944.88 -596170.19)" gradientUnits="userSpaceOnUse"><stop offset="0" stop-color="#fae9fc"/><stop offset=".67" stop-color="#fae9fc"/><stop offset=".81" stop-color="#f8defa"/><stop offset=".91" stop-color="#f6d4f8"/><stop offset="1" stop-color="#f6d4f8"/></radialGradient><path clip-path="url(#p)" fill="url(#q)" d="M6.7 14.21h5.88v6.7H6.7z"/></g><g clip-path="url(#b)"><defs><path id="r" d="M15 9.6l1.49 4.6 4.4-3.2c.23-.16.46-.34.69-.52a.95.95 0 0 0 .2-.2l.02-.04a.5.5 0 0 0 .09-.17.3.3 0 0 0 0-.16.28.28 0 0 0-.1-.13.5.5 0 0 0-.16-.09h-.04a1 1 0 0 0-.29-.06l-.86-.02h-5.45z"/></defs><clipPath id="s"><use xlink:href="#r" overflow="visible"/></clipPath><radialGradient id="t" cx="-1246.74" cy="-855.42" r=".03" gradientTransform="matrix(696.9604 0 0 -696.9604 868944.88 -596170.19)" gradientUnits="userSpaceOnUse"><stop offset="0" stop-color="#fae9fb"/><stop offset=".68" stop-color="#fae9fb"/><stop offset=".81" stop-color="#f8def8"/><stop offset=".98" stop-color="#f5caf2"/><stop offset="1" stop-color="#f5caf2"/></radialGradient><path clip-path="url(#s)" fill="url(#t)" d="M14.99 9.61h6.91v4.6h-6.91z"/></g><path clip-path="url(#b)" fill="#FFF" d="M10.16 9.6l-1.5 4.6 1.43 1.05 2.49 1.8 3.9-2.84L15 9.6z"/><path d="M30.9 7.54V1.48h2.42c1.14 0 1.83.58 1.83 1.51 0 .64-.47 1.2-1.07 1.3v.07c.82.09 1.37.67 1.37 1.46 0 1.07-.78 1.72-2.07 1.72h-2.49zm.93-3.5h1.12c.83 0 1.26-.3 1.26-.88 0-.55-.4-.88-1.1-.88h-1.28v1.77zm1.36 2.7c.85 0 1.3-.35 1.3-.99 0-.63-.47-.96-1.35-.96h-1.3v1.95h1.35zm7.33.8h-.87V6.8h-.07c-.22.52-.69.81-1.38.81-1.01 0-1.57-.61-1.57-1.69V2.97h.9V5.7c0 .74.3 1.09.96 1.09.73 0 1.13-.43 1.13-1.15V2.97h.9v4.57zm1.51 1.63V8.4l.3.01c.42 0 .66-.17.82-.63l.06-.23-1.65-4.58h.98L43.7 6.6h.07l1.14-3.63h.96l-1.7 4.76c-.4 1.1-.83 1.46-1.76 1.46-.07 0-.29 0-.37-.02zm7.12-3.92c0-1.47.82-2.37 2.16-2.37 1.33 0 2.15.9 2.15 2.37 0 1.48-.82 2.37-2.15 2.37-1.34 0-2.16-.89-2.16-2.37zm3.38 0c0-1-.44-1.57-1.22-1.57-.79 0-1.23.58-1.23 1.57 0 1 .44 1.57 1.23 1.57.78 0 1.22-.58 1.22-1.57zm2.13-2.28h.87v.72h.07c.22-.5.68-.81 1.36-.81 1.02 0 1.59.61 1.59 1.7v2.96h-.9V4.8c0-.73-.32-1.1-1-1.1-.66 0-1.08.45-1.08 1.16v2.68h-.9V2.97z"/></svg>