<svg role="img" aria-label="YouTube Music" xmlns="http://www.w3.org/2000/svg" viewBox="0 0 2442 356"><style>.st2{fill:#282828}</style><path d="M497 56.3c-5.8-21.8-23-39-44.8-44.8C412.6.8 254 .8 254 .8S95.5.8 55.9 11.4c-21.8 5.8-39 23-44.8 44.8C.5 95.8.5 178.3.5 178.3s0 82.5 10.6 122.1c5.8 21.8 23 39 44.8 44.8C95.5 355.8 254 355.8 254 355.8s158.6 0 198.1-10.6c21.8-5.8 39-23 44.8-44.8 10.6-39.5 10.6-122.1 10.6-122.1s.1-82.5-10.5-122z" fill="#ff0401"/><path d="M203.3 254.4l131.8-76.1-131.8-76z" fill="#fff"/><path class="st2" d="M736.5 323.8c-10-6.8-17.2-17.3-21.4-31.5-4.2-14.3-6.3-33.2-6.3-56.9V203c0-23.9 2.4-43.2 7.3-57.7 4.8-14.5 12.4-25.1 22.7-31.7 10.3-6.6 23.8-10 40.4-10 16.4 0 29.6 3.4 39.5 10.2 9.9 6.8 17.2 17.3 21.8 31.7 4.6 14.4 6.9 33.5 6.9 57.5v32.3c0 23.7-2.2 42.7-6.7 57.1-4.5 14.4-11.7 24.9-21.8 31.5-10 6.6-23.6 10-40.8 10-17.7 0-31.5-3.4-41.6-10.1zm56.3-34.8c2.8-7.3 4.2-19.1 4.2-35.5v-69.3c0-16-1.4-27.6-4.2-35-2.8-7.4-7.7-11.1-14.7-11.1-6.8 0-11.5 3.7-14.3 11.1-2.8 7.4-4.2 19-4.2 35v69.3c0 16.4 1.3 28.3 4 35.5 2.7 7.3 7.5 10.9 14.5 10.9 7-.1 11.9-3.7 14.7-10.9zm714-53.2V247c0 14.3.4 25 1.3 32.1.8 7.1 2.6 12.3 5.3 15.6 2.7 3.3 6.8 4.9 12.3 4.9 7.5 0 12.6-2.9 15.4-8.7 2.8-5.8 4.3-15.5 4.5-29l43.2 2.5c.2 1.9.4 4.6.4 8 0 20.6-5.6 35.9-16.9 46.1-11.2 10.2-27.1 15.2-47.7 15.2-24.7 0-41.9-7.7-51.9-23.2-9.9-15.5-14.9-39.4-14.9-71.8v-38.8c0-33.4 5.1-57.7 15.4-73.1 10.3-15.3 27.9-23 52.8-23 17.2 0 30.3 3.1 39.5 9.4 9.2 6.3 15.7 16.1 19.4 29.4 3.7 13.3 5.6 31.7 5.6 55.1v38.1h-83.7zm6.3-93.5c-2.5 3.1-4.2 8.3-5.1 15.4-.9 7.1-1.3 18-1.3 32.5v16h36.6v-16c0-14.3-.5-25.1-1.4-32.5-1-7.4-2.7-12.6-5.3-15.6-2.5-3-6.5-4.5-11.8-4.5-5.2-.1-9.2 1.5-11.7 4.7zm-898.4 89.4L557.8 26h49.7l19.9 93.2c5.1 23 8.8 42.6 11.2 58.7h1.5c1.7-11.6 5.4-31.1 11.2-58.4L672 26h49.7L664 231.7v98.6h-49.3v-98.6zM1008.9 108v222.3h-39.2l-4.4-27.2h-1.1c-10.6 20.6-26.6 30.8-47.9 30.8-14.7 0-25.6-4.8-32.6-14.5s-10.5-24.8-10.5-45.3V108h50v163.2c0 9.9 1.1 17 3.3 21.2 2.2 4.2 5.8 6.3 10.9 6.3 4.4 0 8.5-1.3 12.5-4s6.9-6 8.9-10.2V108h50.1zm256.7 0v222.3h-39.2l-4.4-27.2h-1.1c-10.6 20.6-26.6 30.8-47.9 30.8-14.7 0-25.6-4.8-32.6-14.5s-10.5-24.8-10.5-45.3V108h50v163.2c0 9.9 1.1 17 3.3 21.2 2.2 4.2 5.8 6.3 10.9 6.3 4.4 0 8.5-1.3 12.5-4s6.9-6 8.9-10.2V108h50.1z"/><path class="st2" d="M1144.9 66.3h-49.7v264h-49v-264h-49.7V26h148.3v40.3zm286.3 77.2c-3-14-7.9-24.2-14.7-30.5-6.8-6.3-16.1-9.4-27.9-9.4-9.2 0-17.8 2.6-25.7 7.8-8 5.2-14.1 12-18.5 20.5h-.4V14.8h-48.2v315.5h41.3l5.1-21h1.1c3.9 7.5 9.7 13.4 17.4 17.8 7.7 4.4 16.3 6.5 25.7 6.5 16.9 0 29.4-7.8 37.4-23.4 8-15.6 12-39.9 12-73.1v-35.2c0-24.9-1.5-44.3-4.6-58.4zm-45.8 90.7c0 16.2-.7 28.9-2 38.1-1.3 9.2-3.6 15.7-6.7 19.6-3.1 3.9-7.4 5.8-12.7 5.8-4.1 0-7.9-1-11.4-2.9s-6.3-4.8-8.5-8.7V159.9c1.7-6 4.6-11 8.7-14.9 4.1-3.9 8.6-5.8 13.4-5.8 5.1 0 9 2 11.8 6 2.8 4 4.7 10.7 5.8 20.1 1.1 9.4 1.6 22.8 1.6 40.3v28.6z"/><path d="M1697.1 82.8c.6-.1 1.2-.1 1.8-.2l3.6 18.9c9.5 48.7 19.1 97.4 28.6 146.1 5 25.7 10.1 51.3 15.1 77 .6 3 1.3 5.2 5.3 5.2 11.5-.2 23-.2 34.6 0 2.9 0 4.3-1.1 4.8-3.9.6-3.4 1.3-6.9 1.9-10.3 7.2-37.4 14.4-74.9 21.6-112.3 7.6-39.2 15.3-78.5 23-117.7.2-1.1.8-2.1 1.3-3.2.5.1 1.1.2 1.6.3v7.2c0 77.8 0 155.6-.1 233.4 0 4.9 1.1 6.8 6.4 6.6 10.2-.4 20.4-.3 30.5 0 4.1.1 5.5-1.3 5.5-5.4-.1-97.3-.1-194.7 0-292 0-4.2-1.4-5.4-5.5-5.4-19.9.2-39.7.2-59.6 0-3.9 0-5.5 1.3-6.3 5.2-4.8 24.5-10 48.9-14.6 73.5-5.4 28.5-10.6 56.9-15.4 85.5-3.8 22.8-6.7 45.8-10.1 68.6-.3 1.7-1.7 3.3-2.5 5-.9-1.5-1.9-3-2.6-4.6-.4-.9-.4-1.9-.6-2.9-3.4-25.1-5.9-50.3-10.5-75.1-9.3-50.3-19.8-100.3-29.8-150.4-.7-3.3-2.1-4.7-5.7-4.6-19.7.2-39.4.2-59.1 0-4.2 0-5.4 1.4-5.4 5.5.1 97.3.1 194.7 0 292 0 4.3 1.5 5.4 5.6 5.3 9.8-.2 19.7-.1 29.5-.1 7.2 0 7.2 0 7.2-7.1V89.5c-.1-2.5-.1-4.6-.1-6.7zm310.7 218.8c.9 2.9 1.5 4.3 1.7 5.7 1.1 6.1 2.3 12.1 2.9 18.2.4 3.4 1.9 4.1 4.9 4.1 9.5-.1 19-.2 28.5 0 3.7.1 5-1.1 5-4.9-.1-70.3-.1-140.5 0-210.8 0-4.2-1.6-5-5.4-5-12.2.2-24.4.3-36.5-.1-5.2-.2-6.4 1.5-6.4 6.5.2 53.9.1 107.8.1 161.7 0 10.9-5.7 18.5-16.2 21.6-10.3 3.1-17.7-1.2-19.6-11.7-.8-4.1-1.1-8.3-1.1-12.4-.1-53.2-.1-106.5 0-159.7 0-4.6-1.3-6.1-5.9-6-12.2.3-24.4.1-36.6.1-6.7 0-6.7 0-6.7 6.5 0 45.9-.1 91.8 0 137.7 0 12.2-.1 24.4 1.2 36.5.9 8.1 3.2 16.4 6.3 24 4 9.8 12 15.7 22.4 18.4 21.8 5.5 43.4-2.9 55.8-21.8 1.6-2.4 3.2-4.8 5.6-8.6zm112.5-38.3c-12.1 0-23.9.1-35.7-.1-4.2-.1-5.8 1.7-5.8 5.6 0 6.7-.3 13.4.1 20 1.2 20.1 13.3 35.8 32.6 41.9 18.6 5.9 37.5 5.5 56.2.6 12.6-3.2 23.5-10 29.3-21.7 12-24 11.8-48.3-2.5-71.5-7.1-11.5-17.9-19.7-28.4-28-10.9-8.6-22.1-16.8-32.8-25.5-7.8-6.3-11.8-15-12-24.9-.1-6.3.7-12.8 6.5-17.1 12-8.9 27.4-3.6 31.1 10.8.5 1.9.9 3.9 1.1 5.9.7 6.4 1.1 12.9 2 19.3.2 1.2 2.1 3 3.1 3 10.8-.3 21.6-1.1 32.4-1.4 3.4-.1 4.9-1.2 4.7-4.7-.5-8.9-.2-18-1.3-26.8-3-23.5-16.1-37.3-39.2-42-14.1-2.9-28.2-2.6-42.2.5-14.9 3.3-27.2 10.7-34.3 25.1-4.8 9.9-6 20.5-6.1 31.1-.2 24.5 10.1 44.1 29 59.4 6.5 5.2 13.2 10.2 19.5 15.6 9.6 8.2 19.4 16.3 28.5 25.1 6.7 6.5 8.3 15.2 6.2 24.1-1.8 7.8-7.5 12.1-15.2 13.4-9.4 1.6-17.3-1.9-21.8-9.7-5-8.5-5.5-18.1-5-28zm241-43.9c0-15.4-.4-30.7.2-46.1.3-8.4 1.7-16.9 3.8-25.1 2-7.8 7.2-11.1 14.2-11.1 6.7 0 11.4 3.5 13.9 10.9 1.5 4.6 2.5 9.4 2.9 14.1.7 8.5.8 17 1.1 25.5.1 2.2-.2 4.6 3.2 4.4 11.1-.9 22.2-2.1 33.3-2.5 5-.2 6.7-2.4 6.5-6.6-.5-12.1-.3-24.4-2.1-36.3-3.5-22.8-16.4-36-38.8-40.1-8.3-1.5-16.9-1.5-25.4-1.4-28.6.3-46.4 13.9-55 41.3-5 15.9-6.3 32.4-6.6 48.8-.4 20.3-.1 40.7 1 61 .6 12.1 2.3 24.2 5.1 36 4.7 20 16.3 34.3 37.2 38.9 14.1 3.1 28.4 3.2 42.7.6 19.9-3.6 32.4-15.4 38.4-34.4 4.4-13.8 5.2-28.1 4.6-42.5-.1-1.2-1.9-3.4-3-3.4-11.8-.9-23.6-1.4-35.4-2.1-2.9-.2-3.7 1.4-3.7 4-.2 6.2-.2 12.3-1 18.5-.7 5.9-1.7 11.9-3.5 17.6-2.8 8.7-7.7 11.5-17.7 11.1-6.3-.2-10.8-4-12.5-12.2-1.6-7.6-2.8-15.4-3-23.2-.7-15.3-.4-30.5-.4-45.7zm-81 .4c0-35-.1-70.1.1-105.1 0-4.4-1.2-5.8-5.7-5.7-11.8.3-23.7.2-35.5 0-4-.1-5.2 1.3-5.1 5.2.1 70.1.1 140.2 0 210.3 0 3.9 1.2 5.3 5.1 5.2 11.5-.2 23-.1 34.5-.1 6.6 0 6.6 0 6.6-6.7V219.8zm-23.1-138.3V81c2.2 0 4.3.1 6.5 0 10.4-.4 17.4-5.6 18.8-15.8 1.2-8.8 1.2-17.9.2-26.7-1.2-10.1-8.2-15.8-18.4-16.6-4.7-.4-9.6-.4-14.3 0-8.4.7-14.4 5.2-16.8 13.4-3.2 11.1-3.2 22.3.4 33.4 1.9 6 6.1 10 12.3 11.3 3.7.8 7.6 1 11.3 1.5z" fill="gray"/></svg>