<svg xmlns="http://www.w3.org/2000/svg" viewBox="0 0 168 168"><!-- #1ED760 --><path d="M84 .28a83.74 83.74 0 1 0 0 167.48A83.74 83.74 0 0 0 84 .28zm38.4 120.78a5.22 5.22 0 0 1-7.18 1.73c-19.66-12.01-44.41-14.73-73.56-8.07a5.22 5.22 0 0 1-2.33-10.18c31.9-7.3 59.27-4.15 81.34 9.34a5.22 5.22 0 0 1 1.73 7.18zm10.25-22.8a6.53 6.53 0 0 1-8.98 2.15c-22.51-13.84-56.82-17.85-83.45-9.77a6.54 6.54 0 0 1-3.8-12.49c30.42-9.23 68.23-4.76 94.08 11.13a6.53 6.53 0 0 1 2.15 8.97zm.88-23.75C106.54 58.48 62.01 57 36.24 64.82a7.83 7.83 0 1 1-4.55-14.99c29.58-8.98 78.76-7.24 109.83 11.2a7.82 7.82 0 1 1-7.99 13.48z"/></svg>