<svg id="Layer_1" xmlns="http://www.w3.org/2000/svg" viewBox="0 0 125 40"><style>.st2{fill:#00a0ee}</style><g id="_Group_"><g id="_Group_2"><path id="_Compound_Path_" class="st2" d="M82.6 15.1c2.7 0 4.9 2.2 4.9 4.9s-2.2 4.9-4.9 4.9-4.9-2.2-4.9-4.9 2.2-4.9 4.9-4.9m0-3.2c-4.5 0-8.1 3.6-8.1 8.1s3.6 8.1 8.1 8.1 8.1-3.6 8.1-8.1-3.7-8.1-8.1-8.1z"/><path id="_Compound_Path_2" class="st2" d="M32.3 12.4v1.3c-3.5-2.8-8.6-2.3-11.4 1.2s-2.3 8.6 1.2 11.4c3 2.4 7.3 2.4 10.2 0v1.3h3V12.4h-3zM27.4 25c-2.8 0-5-2.3-5-5s2.3-5 5-5c2.8 0 5 2.3 5 5 0 2.8-2.2 5-5 5z"/><path id="_Compound_Path_3" class="st2" d="M114.8 12.4v1.3c-3.5-2.8-8.6-2.3-11.4 1.2-2.8 3.5-2.3 8.6 1.2 11.4 3 2.4 7.3 2.4 10.2 0v1.3h3V12.4h-3zM109.9 25c-2.8 0-5-2.3-5-5s2.3-5 5-5c2.8 0 5 2.3 5 5 0 2.8-2.2 5-5 5z"/><path id="_Path_" class="st2" d="M96 13.4c-1.7 1.1-3.2 3.1-3.2 6.6v7.7H96V20c0-5 5.2-4.8 5.2-4.8V12c0-.1-2.8-.2-5.2 1.4z"/><path id="_Path_2" class="st2" d="M50.7 13.5c-3.6-2.7-8.7-2-11.3 1.6-1.1 1.4-1.6 3.1-1.6 4.9v7.6H41V20c0-2.7 2.2-4.9 4.9-4.9s4.9 2.2 4.9 4.9v7.6H54V20c-.1-2.5-1.3-4.9-3.3-6.5z"/><path id="_Compound_Path_4" class="st2" d="M70.8 7.5c-.8 0-1.5.7-1.5 1.5v4.7c-3.5-2.8-8.6-2.3-11.4 1.2-2.8 3.5-2.3 8.6 1.2 11.4 3 2.4 7.3 2.4 10.2 0v1.3h3V7.5h-1.5zM64.4 25c-2.8 0-5-2.3-5-5 0-2.8 2.3-5 5-5 2.8 0 5 2.3 5 5 0 2.8-2.2 5-5 5z"/><path id="_Compound_Path_5" class="st2" d="M9.1 11.9c-1.9 0-3.7.6-5.1 1.8v-1.3H1v20.1h1.5c.8 0 1.5-.7 1.5-1.5v-4.7c3.5 2.8 8.6 2.3 11.4-1.2 2.8-3.5 2.3-8.6-1.2-11.4-1.4-1.2-3.2-1.8-5.1-1.8zM8.9 25c-2.8 0-5-2.3-5-5s2.3-5 5-5 5 2.3 5 5c.1 2.8-2.2 5-5 5z"/></g></g><path class="st2" d="M122.2 13.2c-1.6 0-2.8-1.3-2.8-2.8s1.3-2.8 2.8-2.8c1.6 0 2.8 1.3 2.8 2.8 0 1.5-1.3 2.8-2.8 2.8zm0-5.3c-1.4 0-2.5 1.1-2.5 2.5s1.1 2.5 2.5 2.5 2.5-1.1 2.5-2.5-1.1-2.5-2.5-2.5zm.8 4.1l-.8-1.3h-.6V12h-.4V8.8h1.3c.5 0 1 .4 1 .9v.1c0 .5-.3.9-.8 1l.9 1.3-.6-.1zm-.6-2.9h-.9v1.2h.9c.3 0 .6-.3.6-.6s-.3-.6-.6-.6z"/></svg>