<svg version="1" xmlns="http://www.w3.org/2000/svg" viewBox="0 0 6990 4910"><path d="M2465 4859c-826-23-1451-71-1665-130a952 952 0 0 1-466-302c-115-144-180-328-223-627-129-906-89-2545 74-3045a899 899 0 0 1 416-509c154-85 311-117 729-150 512-42 943-56 1835-63 1474-11 2603 41 2995 137a848 848 0 0 1 635 597c142 434 195 1756 109 2703-30 331-79 606-135 750a895 895 0 0 1-497 486c-200 80-738 125-1852 154-424 11-1548 11-1955-1z" fill="red"/><g fill="#fffefe"><path d="M2888 4863c90-2 234-2 320 0 86 1 13 3-163 3s-247-2-157-3zM3763 4863c82-2 212-2 290 0 78 1 12 3-148 3-159 0-223-2-142-3zM2408 4853c45-2 119-2 165 0 45 1 8 3-83 3s-128-2-82-3zM4413 4853c37-2 97-2 135 0 37 2 6 3-68 3s-105-1-67-3zM2108 4843c28-2 76-2 105 0 28 2 5 3-53 3s-81-1-52-3zM4788 4843c29-2 74-2 100 0s2 3-53 3-76-1-47-3zM1878 4833c23-2 59-2 80 0 20 2 1 4-43 4s-61-2-37-4zM5048 4833c23-2 61-2 85 0 23 2 4 4-43 4s-66-2-42-4zM1683 4823c20-2 54-2 75 0 20 2 3 4-38 4s-58-2-37-4zM5263 4823c20-2 54-2 75 0 20 2 3 4-38 4s-58-2-37-4zM1523 4813c15-2 39-2 55 0 15 2 2 4-28 4s-43-2-27-4zM5427 4813c18-2 50-2 70 0 21 2 7 4-32 4-38 0-55-2-38-4zM1383 4803c15-2 37-2 50 0 12 2 0 4-28 4-27 0-38-2-22-4zM5588 4803c18-2 45-2 60 0s0 4-33 4-45-2-27-4zM1268 4793c12-2 32-2 45 0 12 2 2 4-23 4s-35-2-22-4zM5703 4793c15-2 39-2 55 0 15 2 2 4-28 4s-43-2-27-4zM1158 4783c12-2 30-2 40 0 9 3-1 5-23 4-22 0-30-2-17-4zM5813 4783c15-2 37-2 50 0 12 2 0 4-28 4-27 0-38-2-22-4zM1073 4773c9-2 25-2 35 0 9 3 1 5-18 5s-27-2-17-5zM5908 4773c12-2 30-2 40 0 9 3-1 5-23 4-22 0-30-2-17-4zM5983 4763c9-2 25-2 35 0 9 3 1 5-18 5s-27-2-17-5zM6250 4705c35-13 66-22 68-20 5 4-105 45-121 44-7 0 17-11 53-24zM6440 4616c0-2 14-14 30-26 17-12 30-19 30-16 0 2-13 14-30 26-16 12-30 19-30 16zM6581 4496c36-39 78-90 94-113 32-50 44-57 18-11-10 17-54 68-98 113-60 61-63 64-14 11zM292 4373c-26-38-34-53-29-53 2 0 16 18 31 40 29 45 28 56-2 13zM6732 4285c12-24 23-43 26-41 4 5-36 86-43 86-3 0 5-20 17-45zM112 3800c0-19 2-27 5-17 2 9 2 25 0 35-3 9-5 1-5-18zM103 3725c0-22 2-30 4-17 2 12 2 30 0 40-3 9-5-1-4-23zM6872 3710c0-19 2-27 5-17 2 9 2 25 0 35-3 9-5 1-5-18zM93 3640c0-25 2-35 4-22 2 12 2 32 0 45-2 12-4 2-4-23zM6883 3625c0-22 2-30 4-17 2 12 2 30 0 40-3 9-5-1-4-23zM83 3545c0-27 2-38 4-22 2 15 2 37 0 50-2 12-4 0-4-28zM6893 3530c0-25 2-35 4-22 2 12 2 32 0 45-2 12-4 2-4-23zM73 3435c0-27 2-38 4-22 2 15 2 37 0 50-2 12-4 0-4-28zM2800 2449c0-631 4-1029 9-1027 31 11 1780 1024 1778 1030-2 7-1772 1028-1782 1028-3 0-5-464-5-1031zM6903 3420c0-30 2-43 4-27 2 15 2 39 0 55-2 15-4 2-4-28zM63 3305c0-33 2-45 4-27s2 45 0 60-4 0-4-33zM6913 3290c0-36 2-50 4-32 2 17 2 47 0 65-2 17-4 3-4-33zM53 3140c0-41 2-58 4-37 2 20 2 54 0 75-2 20-4 3-4-38zM6923 3130c0-41 2-58 4-37 2 20 2 54 0 75-2 20-4 3-4-38zM44 2925c0-55 1-76 3-47s2 74 0 100-3 2-3-53zM6934 2915c0-55 1-76 3-47s2 74 0 100-3 2-3-53zM34 2455c0-115 2-161 3-102 2 59 2 154 0 210-1 56-3 8-3-108zM6944 2440c0-113 2-159 3-102 2 56 2 148 0 205-1 56-3 10-3-103zM44 1990c0-52 1-74 3-47 2 26 2 68 0 95-2 26-3 4-3-48zM6934 1975c0-49 1-71 3-48s2 64 0 90-3 8-3-42zM53 1765c0-38 2-53 4-32 2 20 2 52 0 70-2 17-4 1-4-38zM6923 1755c0-33 2-45 4-27s2 45 0 60-4 0-4-33zM63 1610c0-30 2-43 4-27 2 15 2 39 0 55-2 15-4 2-4-28zM6913 1600c0-30 2-43 4-27 2 15 2 39 0 55-2 15-4 2-4-28zM73 1475c0-27 2-38 4-22 2 15 2 37 0 50-2 12-4 0-4-28zM6903 1470c0-25 2-35 4-22 2 12 2 32 0 45-2 12-4 2-4-23zM83 1365c0-22 2-30 4-17 2 12 2 30 0 40-3 9-5-1-4-23zM6893 1365c0-22 2-30 4-17 2 12 2 30 0 40-3 9-5-1-4-23zM92 1270c0-19 2-27 5-17 2 9 2 25 0 35-3 9-5 1-5-18zM6882 1270c0-19 2-27 5-17 2 9 2 25 0 35-3 9-5 1-5-18zM6872 1190c0-19 2-27 5-17 2 9 2 25 0 35-3 9-5 1-5-18zM277 549c10-17 24-36 32-42 8-7 2 7-14 31-32 49-45 57-18 11zM6594 427c-27-29-69-70-94-91-51-44-26-28 36 23 37 30 121 121 111 121-2 0-26-24-53-53zM400 395c19-19 36-35 39-35s-10 16-29 35-36 35-39 35 10-16 29-35zM485 325c22-20 49-41 60-47 25-13 13-2-50 46l-50 38 40-37zM6350 245c-36-19-61-34-57-35 10 0 127 59 127 65 0 7 2 8-70-30zM570 266c0-3 14-12 30-21 17-9 30-13 30-11 0 3-13 12-30 21-16 9-30 13-30 11zM660 215c14-8 30-14 35-14 6 0-1 6-15 14s-29 14-35 14c-5 0 1-6 15-14zM963 133c9-2 25-2 35 0 9 3 1 5-18 5s-27-2-17-5zM1043 123c9-2 25-2 35 0 9 3 1 5-18 5s-27-2-17-5zM5858 123c12-2 30-2 40 0 9 3-1 5-23 4-22 0-30-2-17-4zM1128 113c12-2 32-2 45 0 12 2 2 4-23 4s-35-2-22-4zM5768 113c12-2 30-2 40 0 9 3-1 5-23 4-22 0-30-2-17-4zM1233 103c15-2 37-2 50 0 12 2 0 4-28 4-27 0-38-2-22-4zM5653 103c15-2 37-2 50 0 12 2 0 4-28 4-27 0-38-2-22-4zM1353 93c15-2 37-2 50 0 12 2 0 4-28 4-27 0-38-2-22-4zM5533 93c15-2 39-2 55 0 15 2 2 4-28 4s-43-2-27-4zM1488 83c18-2 45-2 60 0s0 4-33 4-45-2-27-4zM5388 83c17-2 47-2 65 0 17 2 3 4-33 4s-50-2-32-4zM1647 73c18-2 50-2 70 0 21 2 7 4-32 4-38 0-55-2-38-4zM5213 73c20-2 54-2 75 0 20 2 3 4-38 4s-58-2-37-4zM1843 63c26-2 67-2 90 0s2 3-48 3c-49 0-68-1-42-3zM5008 63c23-2 61-2 85 0 23 2 4 4-43 4s-66-2-42-4zM2073 53c31-2 83-2 115 0 31 2 5 3-58 3s-89-1-57-3zM4748 53c28-2 76-2 105 0 28 2 5 3-53 3s-81-1-52-3zM2383 43c48-2 125-2 170 0 45 1 6 3-88 3-93 0-130-2-82-3zM4393 43c43-2 110-2 150 0 40 1 5 3-78 3-82 0-115-2-72-3zM2853 33c92-2 242-2 335 0 92 1 16 3-168 3s-260-2-167-3zM3768 33c83-2 221-2 305 0 83 1 15 3-153 3s-236-2-152-3z"/></g></svg>