<svg role="img" aria-label="Google Play" xmlns="http://www.w3.org/2000/svg" viewBox="0 0 561.8 129.2"><path d="M89.2 84.5c15.3-8.4 27-14.8 28-15.3 3.2-1.7 6.5-6.2 0-9.7-2.1-1.1-13.4-7.3-28-15.3L69.1 64.4l20.1 20.1z" fill="#ffd400"/><path d="M69.1 64.4L4.9 129.1c1.5.2 3.2-.2 5.2-1.3 4.2-2.3 48.8-26.7 79.1-43.3L69.1 64.4z" fill="#f33"/><path d="M69.1 64.4l20.1-20.2S14.6 3.5 10.1 1.1C8.4.1 6.5-.2 4.8.1l64.3 64.3z" fill="#48ff48"/><path d="M69.1 64.4L4.8.1C2.2.7 0 3 0 7.7v113.8c0 4.3 1.7 7.4 4.9 7.7l64.2-64.8z" fill="#3bccff"/><path d="M278.2 51.6c-11.5 0-21 8.9-21 21.1 0 12.1 9.4 21.1 21 21.1s21-8.9 21-21.1c0-12.2-9.4-21.1-21-21.1zm0 33.9c-6.3 0-11.8-5.3-11.8-12.8 0-7.6 5.5-12.8 11.8-12.8 6.3 0 11.8 5.2 11.8 12.8 0 7.5-5.5 12.8-11.8 12.8zm-45.8-33.9c-11.6 0-21 8.9-21 21.1 0 12.1 9.4 21.1 21 21.1s21-8.9 21-21.1c0-12.2-9.4-21.1-21-21.1zm0 33.9c-6.3 0-11.8-5.3-11.8-12.8 0-7.6 5.5-12.8 11.8-12.8 6.3 0 11.8 5.2 11.8 12.8 0 7.5-5.4 12.8-11.8 12.8zM178 58.1V67h21.2c-.6 5-2.3 8.7-4.8 11.2-3.1 3.1-7.9 6.5-16.4 6.5-13.1 0-23.3-10.6-23.3-23.8s10.2-23.8 23.3-23.8c7.1 0 12.2 2.8 16 6.4l6.3-6.3c-5.3-5.1-12.4-9-22.3-9-17.9 0-33 14.7-33 32.7s15 32.7 33 32.7c9.7 0 16.9-3.2 22.7-9.2 5.9-5.9 7.7-14.2 7.7-20.9 0-2.1-.2-4-.5-5.6l-29.9.2zM400.7 65c-1.7-4.7-7.1-13.4-17.9-13.4-10.8 0-19.7 8.5-19.7 21.1 0 11.8 8.9 21.1 20.7 21.1 9.6 0 15.1-5.9 17.4-9.3l-7.1-4.8c-2.4 3.5-5.6 5.8-10.3 5.8-4.7 0-8-2.1-10.1-6.4l28-11.7-1-2.4zm-28.5 7.1c-.2-8.1 6.3-12.3 10.9-12.3 3.7 0 6.7 1.8 7.8 4.5l-18.7 7.8zm-22.7 20.4h9.2V30.6h-9.2v61.9zm-15.1-36.2h-.3c-2.1-2.5-6-4.7-11-4.7-10.5 0-20 9.3-20 21.1s9.6 21 20 21c5 0 8.9-2.2 11-4.8h.3v3c0 8.1-4.3 12.4-11.2 12.4-5.6 0-9.1-4.1-10.5-7.5l-8 3.4c2.3 5.6 8.4 12.5 18.5 12.5 10.8 0 19.9-6.4 19.9-21.9V52.9h-8.7v3.4zm-10.5 29.2c-6.3 0-11.6-5.3-11.6-12.7 0-7.4 5.3-12.8 11.6-12.8 6.2 0 11.2 5.4 11.2 12.8 0 7.3-5 12.7-11.2 12.7zm119.8-54.9h-22v61.9h9.2V69h12.8c10.2 0 20.2-7.4 20.2-19.2 0-11.8-10-19.2-20.2-19.2zm.3 29.8h-13.1V39.2H444c6.8 0 10.8 5.7 10.8 10.6-.1 4.8-4 10.6-10.8 10.6zm56.7-8.9c-6.6 0-13.5 2.9-16.3 9.5l8.1 3.4c1.8-3.4 5-4.5 8.4-4.5 4.8 0 9.6 2.9 9.7 8v.6c-1.7-1-5.2-2.4-9.6-2.4-8.8 0-17.7 4.9-17.7 13.9 0 8.3 7.2 13.6 15.2 13.6 6.2 0 9.6-2.8 11.7-6.1h.3v4.8h8.9V68.6c-.1-10.9-8.2-17.1-18.7-17.1zm-1.1 33.9c-3 0-7.2-1.5-7.2-5.2 0-4.8 5.2-6.6 9.7-6.6 4 0 5.9.9 8.4 2.1-.7 5.7-5.6 9.7-10.9 9.7zm52-32.5l-10.5 26.8h-.3l-10.9-26.8H520l16.4 37.5-9.3 20.9h9.6l25.2-58.4h-10.3zM469 92.5h9.2V30.6H469v61.9z" fill="#808285"/></svg>