<svg role="img" aria-label="I Heart Radio" xmlns="http://www.w3.org/2000/svg" viewBox="0 0 614 182"><defs/><g fill="none" fill-rule="evenodd"><path d="M296 143c11 0 19-5 19-15s-7-15-19-15h-23v30h23zm-31-34c0-2 2-4 4-4h28c9 0 17 3 21 8 4 3 6 8 6 14v1c0 12-8 19-20 22l19 24 1 3c0 2-2 4-4 4l-4-2-21-28h-22v26c0 2-2 4-4 4s-4-2-4-4v-68zM391 153l-18-38-17 38h35zm-53 22l30-66c1-3 3-4 5-4h1c2 0 4 1 5 4l30 66 1 2c0 2-2 4-4 4s-4-1-4-3l-8-17h-41l-8 17c-1 2-2 3-4 3s-4-2-4-4l1-2zM452 173c19 0 31-13 31-29 0-17-12-30-31-30h-18v59h18zm-26-63c0-2 2-4 4-4h22c24 0 40 16 40 37v1c0 21-16 37-40 37h-22c-2 0-4-2-4-4v-67zM511 109c0-2 2-4 4-4s4 2 4 4v68c0 2-2 4-4 4s-4-2-4-4v-68M605 143c0-17-12-31-29-31s-29 14-29 31 12 31 29 31 29-14 29-31zm-67 0c0-21 15-39 38-39s38 18 38 39-15 39-38 39-38-18-38-39z" fill="#919395"/><path d="M221 64c0 19-11 37-31 55a5 5 0 01-6 0c-2-2-2-5 0-7 18-16 27-32 27-48 0-13-8-28-18-35a5 5 0 015-8c13 8 23 27 23 43zm-61 39a5 5 0 01-6-1c-1-3 0-6 2-7 10-6 18-18 18-29 0-10-6-20-15-25a5 5 0 014-8c12 6 20 19 20 33 0 15-9 30-23 37zm-37-13a20 20 0 110-41 20 20 0 010 41zm-31 12a5 5 0 01-6 1c-14-7-23-22-23-37 0-14 8-27 20-33a5 5 0 014 8c-9 5-15 15-15 25 0 11 8 23 18 29 2 1 3 4 2 7zm-30 17a5 5 0 01-6 0c-20-18-31-36-31-55 0-16 10-35 23-43a5 5 0 015 8c-10 7-18 22-18 35 0 16 9 32 27 48 2 2 2 5 0 7zM179 0c-23 0-44 12-56 30A67 67 0 000 67c0 24 15 40 30 56l61 58c3 3 9 0 9-4v-45a23 23 0 1146 0v45c0 4 6 7 9 4l61-58c15-16 30-32 30-56 0-37-30-67-67-67z" fill="#C6002B"/><path fill="#111820" d="M300 8h23v30h28V8h23v81h-23V58h-28v31h-23V8M422 52c0-6-4-11-10-11s-11 5-11 11h21zm-42 6c0-18 13-33 32-33 21 0 31 16 31 35v4h-42c2 7 7 10 14 10 5 0 9-2 13-6l13 10c-6 8-15 13-28 13-19 0-33-13-33-33zM517 26h22v13c4-9 10-14 20-14v23h-2c-11 0-18 7-18 21v20h-22V26M573 69V44h-7V26h7V10h22v16h15v18h-15v21c0 4 2 6 6 6l9-2v17c-4 3-9 4-16 4-13 0-21-6-21-21M279 2a12 12 0 100 23 12 12 0 000-23M476 77c-5 0-9-3-9-7s3-6 9-6h12v1c0 2-1 11-12 12zm33-19c0-20-14-33-33-33-13 0-22 5-28 13l13 10c4-4 8-6 13-6 7 0 12 3 14 10h-15c-18 0-27 7-27 20 0 12 9 19 24 19 8 0 14-3 18-8v6h21V59v-1zM278 31c-7 0-12 5-12 11v47h24V42c0-6-5-11-12-11"/></g></svg>