<svg role="img" aria-label="Tidal" xmlns="http://www.w3.org/2000/svg" viewBox="0 0 51 7.2"><defs/><defs><clipPath id="ta" clipPathUnits="userSpaceOnUse"><path d="M0 0h612v792H0z"/></clipPath></defs><path d="M18.6 6.8h-1.3V2.2h-1.7V1.1h4.7v1.1h-1.7zM25.5 6.8h-1.3V1.1h1.3zM48.4 5.7h2.3v1.1H47V1.1h1.3z" fill="#100f0d"/><g clip-path="url(#ta)" transform="matrix(.35278 0 0 -.35278 -35.7 179.9)"><path d="M185.6 506.7h6c4.4 0 8.8-2.3 8.8-8 0-5.4-4.3-8.2-8.6-8.2h-6.2zm3.6-13h2.3c3 0 5 2 5 5 0 2.9-2 4.9-5 4.9h-2.3z" fill="#100f0d"/></g><path d="M42.2 6.8h1.5l-2.4-5.7H40l-2.4 5.7H39l.4-1.1h2.4zm-2.4-2.1l.8-2.3.9 2.3zM7 2L5.2 3.5 3.6 1.9 5.3.3zM7 5.3L5.2 6.9 3.6 5.3l1.7-1.7zM3.6 2L1.9 3.5.3 1.9 1.9.3zM10.3 2L8.6 3.5 7 1.9 8.6.3z" fill="#100f0d"/></svg>