<svg xmlns="http://www.w3.org/2000/svg" xml:space="preserve" viewBox="0 0 1000 1000"><path fill="#ff0050" d="M655.85 360.98a392.76 392.76 0 0 0 229.1 73.27V269.94c-16.17 0-32.3-1.68-48.11-5.03v129.34a392.82 392.82 0 0 1-229.1-73.28v335.31C607.74 824.02 471.7 960 303.88 960a302.56 302.56 0 0 1-169.17-51.36C189.9 965.02 266.84 1000 351.98 1000c167.82 0 303.88-135.97 303.88-303.72v-335.3zM715.2 195.2a228.98 228.98 0 0 1-59.35-134.08V40h-45.59c11.48 65.43 50.62 121.33 104.94 155.2zM240.85 779.9a138.3 138.3 0 0 1-28.35-84.1c0-76.72 62.23-138.92 139-138.92a139.01 139.01 0 0 1 42.17 6.5V395.41a306.59 306.59 0 0 0-48.1-2.77V523.4a139.37 139.37 0 0 0-42.18-6.5c-76.77 0-139 62.2-139 138.92 0 54.25 31.11 101.22 76.47 124.1z"/><path d="M607.74 320.97a392.82 392.82 0 0 0 229.1 73.28V264.9a229.96 229.96 0 0 1-121.64-69.7c-54.32-33.87-93.47-89.77-104.94-155.2H490.5v656.28c-.27 76.5-62.4 138.45-139 138.45a138.8 138.8 0 0 1-110.65-54.82c-45.36-22.88-76.46-69.85-76.46-124.1 0-76.73 62.22-138.93 139-138.93 14.7 0 28.88 2.3 42.18 6.51V392.64C180.7 396.04 48.11 530.7 48.11 696.28a302.6 302.6 0 0 0 86.6 212.35A302.54 302.54 0 0 0 303.88 960c167.81 0 303.86-135.98 303.86-303.71V320.97z"/><path fill="#00F2EA" d="M836.84 264.9v-34.97c-43 .07-85.15-11.97-121.64-34.73a229.78 229.78 0 0 0 121.64 69.7zM610.26 40a232.97 232.97 0 0 1-2.52-18.87V0H442.38v656.28c-.26 76.5-62.38 138.45-139 138.45-22.49 0-43.72-5.33-62.53-14.82a138.82 138.82 0 0 0 110.65 54.82c76.6 0 138.73-61.94 139-138.45V40h119.76zM345.57 392.64v-37.23a306.66 306.66 0 0 0-41.69-2.83C136.05 352.58 0 488.56 0 656.28c0 105.16 53.47 197.83 134.72 252.35a302.6 302.6 0 0 1-86.6-212.35c0-165.59 132.58-300.23 297.45-303.64z"/></svg>