<svg xmlns="http://www.w3.org/2000/svg" xmlns:xlink="http://www.w3.org/1999/xlink" width="624" height="624.1" viewBox="0 0 468 468.1"><defs><clipPath id="f"><path d="M0 0h468v468H0zm0 0"/></clipPath><filter id="a" filterUnits="objectBoundingBox" x="0%" y="0%" width="100%" height="100%"><feColorMatrix in="SourceGraphic" values="0 0 0 0 1 0 0 0 0 1 0 0 0 0 1 0 0 0 1 0"/></filter><mask id="h"><path fill-opacity=".5" d="M0 0h468v468.1H0z" filter="url(#a)"/></mask><clipPath id="b"><path d="M186.4 21.3a232.2 232.2 0 0 0-186-2.5l68 152.4a63.3 63.3 0 0 1 49 .7zm0 0"/></clipPath><linearGradient id="c" gradientUnits="userSpaceOnUse" x1=".5" x2="99.5" gradientTransform="matrix(1.88306 -.00355 .00328 1.73665 -.8 86.4)"><stop offset="0" stop-color="#ff5856"/><stop offset=".1" stop-color="#ff6852"/><stop offset=".2" stop-color="#ff8d49"/><stop offset=".3" stop-color="#ffac42"/><stop offset=".4" stop-color="#ffd23a"/><stop offset=".5" stop-color="#dfce4b"/><stop offset=".6" stop-color="#b0bd66"/><stop offset=".7" stop-color="#80ad81"/><stop offset=".8" stop-color="#6d968d"/><stop offset=".9" stop-color="#657894"/><stop offset="1" stop-color="#5f4d99"/></linearGradient><g clip-path="url(#b)" id="g"><path d="M0 .4l.4 171.9 186.3-.4L186.4.1zm0 0" fill="url(#c)"/></g><mask id="j"><path fill-opacity=".5" d="M0 0h468v468.1H0z" filter="url(#a)"/></mask><clipPath id="d"><path d="M.6 149a230.4 230.4 0 0 0 184.7-1L119.3.6a61.7 61.7 0 0 1-51.1.5zm0 0"/></clipPath><linearGradient id="e" gradientUnits="userSpaceOnUse" x1=".5" x2="99.5" gradientTransform="matrix(-1.8704 .00353 -.0032 -1.69594 186.5 84)"><stop offset="0" stop-color="#ff5856"/><stop offset=".1" stop-color="#ff6852"/><stop offset=".2" stop-color="#ff8d49"/><stop offset=".3" stop-color="#ffac42"/><stop offset=".4" stop-color="#ffd23a"/><stop offset=".5" stop-color="#dfce4b"/><stop offset=".6" stop-color="#b0bd66"/><stop offset=".7" stop-color="#80ad81"/><stop offset=".8" stop-color="#6d968d"/><stop offset=".9" stop-color="#657894"/><stop offset="1" stop-color="#5f4d99"/></linearGradient><g clip-path="url(#d)" id="i"><path d="M185.6 168L185.3.2.3.6l.3 167.7zm0 0" fill="url(#e)"/></g><clipPath id="k"><path d="M260 86h206v359H260zm0 0"/></clipPath><clipPath id="l"><path d="M411.2 86.3c34.7 40.3 53 90.5 54 141.4a232.3 232.3 0 0 1-137.9 216.7l-66.9-146L285.9 192zm0 0"/></clipPath><linearGradient id="m" gradientUnits="userSpaceOnUse" x1=".5" x2="100" gradientTransform="matrix(2.0746 -.00391 .0068 3.60403 259 265.5)"><stop offset="0" stop-color="#fefefe"/><stop offset="1" stop-color="#929292"/></linearGradient><clipPath id="n"><path d="M59.3 384.7A230 230 0 0 1 9 184.3 230 230 0 0 1 143.7 22.1l68.8 152.2a64.7 64.7 0 0 0-44.9 65 61.2 61.2 0 0 0 16.9 38.6zm0 0"/></clipPath><linearGradient id="o" gradientUnits="userSpaceOnUse" x1=".5" x2="100" gradientTransform="matrix(-2.11754 .004 -.00688 -3.64974 213.9 203.2)"><stop offset="0" stop-color="#fff"/><stop offset="1" stop-color="#929292"/></linearGradient></defs><g clip-path="url(#f)"><path d="M399.5 68.5A233.3 233.3 0 0 1 468 234a234 234 0 1 1-68.5-165.5zm0 0" fill="#929292"/></g><path d="M397 71A230.4 230.4 0 1 1 71 397 230.4 230.4 0 0 1 397 71zm0 0" fill="#e9e9e9"/><use xlink:href="#g" transform="translate(143 3)" mask="url(#h)"/><use xlink:href="#i" transform="translate(142 297)" mask="url(#j)"/><g clip-path="url(#k)"><g clip-path="url(#l)"><path d="M259.7 86.3l.7 358.4 206.5-.3-.7-358.5zm0 0" fill="url(#m)"/></g></g><g clip-path="url(#n)"><path d="M213.2 384.7l-.7-363-210.7.4.7 363zm0 0" fill="url(#o)"/></g><path d="M300.3 172a90.7 90.7 0 1 1-128.4 128.3A90.7 90.7 0 0 1 300.2 172zm0 0" fill="#5e5e5e" fill-opacity=".6"/><path d="M282 190.3a64.8 64.8 0 1 1-91.7 91.6 64.8 64.8 0 0 1 91.6-91.6zm0 0" fill="#fff"/><g clip-path="url(#q)"><path d="M282 190.3a64.8 64.8 0 1 1-91.7 91.6 64.8 64.8 0 0 1 91.6-91.6zm0 0" fill="none" stroke-width="5" stroke="#8c8c8c"/></g></svg>