<svg xmlns="http://www.w3.org/2000/svg" viewBox="0 0 125 40"><path fill="#FFF" d="M27.34 28.29c.33-.55.16-1.27-.4-1.61-4.93-3.02-11.05-3.72-18.19-2.09a1.17 1.17 0 1 0 .52 2.28c6.52-1.5 12.06-.88 16.46 1.8.55.34 1.27.17 1.6-.39zM32.23 17.26c.49-.83.22-1.9-.62-2.4-6.95-4.13-17.95-4.52-24.57-2.5a1.75 1.75 0 0 0 1.02 3.35c5.77-1.75 15.73-1.42 21.77 2.16.83.5 1.9.22 2.4-.61zM29.16 21.18c-5.79-3.56-14.25-4.56-21.05-2.5a1.46 1.46 0 0 0 .84 2.8c5.96-1.8 13.64-.9 18.68 2.19.68.42 1.43.2 2.01-.48.59-.7.2-1.59-.48-2.01z"/><path fill="#24CF5F" d="M18.6 1.27A18.6 18.6 0 0 0-.06 20 18.77 18.77 0 0 0 18.7 38.73 18.69 18.69 0 0 0 37.39 20 18.7 18.7 0 0 0 18.6 1.27zm-9.33 25.6a1.17 1.17 0 1 1-.52-2.28c7.14-1.63 13.26-.93 18.2 2.09a1.17 1.17 0 0 1-1.22 2c-4.4-2.7-9.94-3.3-16.46-1.81zm20.37-3.68c-.58.68-1.33.9-2.01.48-5.04-3.1-12.72-4-18.68-2.19-.77.24-1.59-.2-1.82-.97-.23-.77.2-1.59.97-1.82 6.8-2.07 15.27-1.07 21.06 2.49.68.42 1.07 1.32.48 2zm.19-5.32c-6.04-3.58-16-3.91-21.77-2.16a1.75 1.75 0 0 1-1.02-3.36c6.62-2 17.62-1.62 24.58 2.5a1.75 1.75 0 0 1-1.8 3.02zM51.1 18.56c-3.23-.77-3.8-1.31-3.8-2.45 0-1.07 1-1.8 2.5-1.8 1.47 0 2.91.55 4.43 1.68a.21.21 0 0 0 .3-.05l1.58-2.22a.21.21 0 0 0-.04-.29 9.56 9.56 0 0 0-6.21-2.15c-3.5 0-5.94 2.1-5.94 5.1 0 3.2 2.1 4.35 5.75 5.23 3.1.7 3.61 1.3 3.61 2.37 0 1.19-1.05 1.92-2.75 1.92-1.9 0-3.43-.63-5.15-2.12a.21.21 0 0 0-.3.02l-1.77 2.1a.21.21 0 0 0 .02.3c2 1.79 4.47 2.74 7.13 2.74 3.76 0 6.2-2.06 6.2-5.24 0-2.7-1.61-4.18-5.55-5.14zM65.17 15.37c-1.64 0-2.97.64-4.08 1.96v-1.48c0-.12-.1-.21-.21-.21h-2.9c-.11 0-.2.1-.2.2v16.47c0 .12.09.22.2.22h2.9c.12 0 .21-.1.21-.22v-5.2a5.2 5.2 0 0 0 4.08 1.85c3.03 0 6.1-2.33 6.1-6.8 0-4.46-3.07-6.79-6.1-6.79zm2.73 6.8c0 2.27-1.4 3.85-3.4 3.85-1.99 0-3.48-1.65-3.48-3.85s1.5-3.86 3.47-3.86c1.98 0 3.4 1.62 3.4 3.86zM79.13 15.37c-3.9 0-6.96 3-6.96 6.84 0 3.8 3.03 6.77 6.91 6.77a6.8 6.8 0 1 0 .05-13.61zm0 10.67c-2.08 0-3.64-1.66-3.64-3.88 0-2.22 1.5-3.83 3.6-3.83 2.08 0 3.66 1.67 3.66 3.88 0 2.22-1.52 3.83-3.62 3.83zM94.4 15.63h-3.19v-3.25c0-.12-.09-.22-.2-.22h-2.9c-.12 0-.21.1-.21.22v3.25h-1.4c-.11 0-.2.1-.2.22v2.49c0 .11.09.2.2.2h1.4V25c0 2.6 1.3 3.92 3.85 3.92 1.04 0 1.9-.21 2.7-.67.08-.04.12-.11.12-.19v-2.37a.21.21 0 0 0-.3-.2c-.57.3-1.1.42-1.71.42-.93 0-1.34-.42-1.34-1.37v-5.98h3.18c.12 0 .21-.1.21-.21v-2.5a.2.2 0 0 0-.2-.2zM105.5 15.65v-.4c0-1.18.46-1.7 1.47-1.7.6 0 1.1.12 1.63.3a.21.21 0 0 0 .28-.2V11.2c0-.09-.06-.17-.15-.2a7.97 7.97 0 0 0-2.4-.35c-2.68 0-4.1 1.51-4.1 4.36v.61h-1.39c-.11 0-.2.1-.2.22v2.5c0 .11.09.21.2.21h1.4v9.94c0 .11.09.2.2.2h2.9c.12 0 .22-.09.22-.2v-9.94h2.7l4.14 9.93c-.47 1.05-.93 1.25-1.56 1.25-.51 0-1.05-.15-1.6-.45a.21.21 0 0 0-.17-.01.2.2 0 0 0-.12.11l-.98 2.15a.2.2 0 0 0 .09.28 6.1 6.1 0 0 0 3.1.79c2.13 0 3.31-1 4.35-3.68l5.03-12.98a.21.21 0 0 0-.2-.29h-3.02a.21.21 0 0 0-.2.14l-3.08 8.82-3.39-8.82a.21.21 0 0 0-.2-.14h-4.94zM99.07 15.63h-2.9c-.11 0-.2.1-.2.22v12.63c0 .12.09.22.2.22h2.9c.12 0 .21-.1.21-.22V15.85c0-.12-.1-.21-.21-.21zM97.64 9.88a2.08 2.08 0 1 0 0 4.15 2.08 2.08 0 0 0 0-4.15zM123.01 19.7a2.03 2.03 0 0 1-2.04-2.04c0-1.12.9-2.05 2.05-2.05s2.04.92 2.04 2.04-.9 2.05-2.05 2.05zm.01-3.89c-1.04 0-1.83.83-1.83 1.85a1.8 1.8 0 0 0 1.82 1.83c1.04 0 1.84-.82 1.84-1.84a1.8 1.8 0 0 0-1.83-1.84zm.45 2.05l.58.8h-.49l-.52-.74h-.44v.74h-.4v-2.13h.95c.5 0 .82.25.82.68 0 .35-.2.56-.5.65zm-.34-.97h-.53v.68h.53c.27 0 .42-.13.42-.34 0-.22-.16-.34-.42-.34z"/></svg>