<svg xmlns="http://www.w3.org/2000/svg" viewBox="0 0 125 40"><path fill="#707171" d="M62.8 17.9c-2.6 0-4.6 2-4.6 4.6 0 2.6 2 4.6 4.6 4.6 2.5 0 4.6-2 4.6-4.6 0-2.7-2.1-4.6-4.6-4.6zm0 7.4c-1.4 0-2.6-1.2-2.6-2.8 0-1.7 1.2-2.8 2.6-2.8 1.4 0 2.6 1.1 2.6 2.8 0 1.6-1.3 2.8-2.6 2.8zm-10-7.4c-2.6 0-4.7 2-4.7 4.6 0 2.6 2 4.6 4.6 4.6 2.5 0 4.6-2 4.6-4.6 0-2.7-2-4.6-4.6-4.6zm0 7.4c-1.5 0-2.7-1.2-2.7-2.8 0-1.7 1.2-2.8 2.6-2.8 1.4 0 2.6 1.1 2.6 2.8 0 1.6-1.2 2.8-2.6 2.8zm-12-6v2h4.6a4 4 0 0 1-1 2.4c-.7.7-1.8 1.4-3.6 1.4-3 0-5.2-2.3-5.2-5.2a5 5 0 0 1 8.7-3.7l1.3-1.4a6.8 6.8 0 0 0-4.8-2c-4 0-7.3 3.2-7.3 7.1 0 4 3.3 7.2 7.3 7.2 2 0 3.7-.7 5-2 1.2-1.3 1.6-3.1 1.6-4.6v-1.2h-6.6zm48.8 1.5c-.3-1-1.5-3-3.9-3-2.3 0-4.3 2-4.3 4.7 0 2.6 2 4.6 4.5 4.6 2.1 0 3.4-1.3 3.9-2L88.2 24c-.5.8-1.2 1.3-2.3 1.3-1 0-1.7-.5-2.2-1.4l6.2-2.6-.3-.5zm-6.2 1.5c0-1.7 1.4-2.6 2.4-2.6.8 0 1.5.4 1.7 1l-4.1 1.6zm-5 4.5h2V13.3h-2v13.5zm-3.3-7.9c-.5-.5-1.4-1-2.5-1-2.3 0-4.4 2-4.4 4.6 0 2.6 2.1 4.6 4.4 4.6 1.1 0 2-.5 2.4-1v.6c0 1.7-.8 2.7-2.4 2.7-1.2 0-2-1-2.3-1.7l-1.7.8a4.4 4.4 0 0 0 4 2.7c2.4 0 4.4-1.4 4.4-4.8v-8.2h-1.9v.7zm-2.3 6.4c-1.4 0-2.6-1.2-2.6-2.8 0-1.6 1.2-2.8 2.6-2.8 1.4 0 2.4 1.2 2.4 2.8 0 1.6-1 2.8-2.4 2.8zm26.3-12h-4.8v13.5h2v-5.1H99c2.2 0 4.4-1.6 4.4-4.2s-2.2-4.2-4.4-4.2zm0 6.5h-2.8v-4.6H99c1.5 0 2.4 1.2 2.4 2.3 0 1-.9 2.3-2.4 2.3zm12.5-2c-1.5 0-3 .7-3.6 2.1l1.8.8c.4-.8 1-1 1.8-1 1 0 2.1.6 2.1 1.7v.2c-.3-.2-1.1-.6-2-.6-2 0-4 1.1-4 3s1.6 3 3.4 3c1.4 0 2.1-.6 2.6-1.3v1h2v-5.1c0-2.4-1.8-3.7-4.1-3.7zm-.3 7.5c-.6 0-1.5-.4-1.5-1.2 0-1 1.1-1.4 2.1-1.4.9 0 1.3.2 1.8.4a2.4 2.4 0 0 1-2.4 2.2zm11.5-7.1l-2.3 5.8h-.1l-2.4-5.8h-2.2l3.6 8.1-2 4.6h2l5.6-12.7h-2.2zm-18.2 8.6h2V13.3h-2v13.5z"/><linearGradient id="a" gradientUnits="userSpaceOnUse" x1="12.8" y1="-1285.8" x2="-5.3" y2="-1303.9" gradientTransform="matrix(1 0 0 -1 0 -1278)"><stop offset="0" stop-color="#00a0ff"/><stop offset="0" stop-color="#00a1ff"/><stop offset=".3" stop-color="#00beff"/><stop offset=".5" stop-color="#00d2ff"/><stop offset=".8" stop-color="#00dfff"/><stop offset="1" stop-color="#00e3ff"/></linearGradient><path fill="url(#a)" d="M.5 6.6C.2 6.9 0 7.4 0 8v23.8c0 .7.2 1.2.5 1.5v.1L14 20.2v-.4L.6 6.5H.5z"/><linearGradient id="b" gradientUnits="userSpaceOnUse" x1="25.7" y1="-1298" x2="-.4" y2="-1298" gradientTransform="matrix(1 0 0 -1 0 -1278)"><stop offset="0" stop-color="#ffe000"/><stop offset=".4" stop-color="#ffbd00"/><stop offset=".8" stop-color="orange"/><stop offset="1" stop-color="#ff9c00"/></linearGradient><path fill="url(#b)" d="M18.4 24.6l-4.5-4.4v-.4l4.5-4.4h.1l5.3 3c1.5.9 1.5 2.3 0 3.2l-5.3 3h-.1z"/><linearGradient id="c" gradientUnits="userSpaceOnUse" x1="16" y1="-1300.5" x2="-8.5" y2="-1325" gradientTransform="matrix(1 0 0 -1 0 -1278)"><stop offset="0" stop-color="#ff3a44"/><stop offset="1" stop-color="#c31162"/></linearGradient><path fill="url(#c)" d="M18.5 24.6L13.9 20 .5 33.4c.5.6 1.3.6 2.2.1l15.8-9"/><linearGradient id="d" gradientUnits="userSpaceOnUse" x1="-2.9" y1="-1276.6" x2="8.1" y2="-1287.6" gradientTransform="matrix(1 0 0 -1 0 -1278)"><stop offset="0" stop-color="#32a071"/><stop offset=".1" stop-color="#2da771"/><stop offset=".5" stop-color="#15cf74"/><stop offset=".8" stop-color="#06e775"/><stop offset="1" stop-color="#00f076"/></linearGradient><path fill="url(#d)" d="M18.5 15.4l-15.8-9C1.8 6 1 6 .5 6.7L13.9 20l4.6-4.6z"/><path opacity=".2" d="M18.4 24.5L2.7 33.4c-.8.5-1.6.4-2.1 0H.5v.1c.6.5 1.4.5 2.2 0l15.8-9h-.1z"/><path opacity=".1" d="M.5 33.3c-.3-.3-.5-.9-.5-1.5v.1c0 .7.2 1.2.5 1.5v-.1zM23.8 21.4l-5.4 3 .1.2 5.3-3c.7-.5 1.1-1 1.1-1.6 0 .5-.4 1-1.1 1.4z"/><path opacity=".3" fill="#FFF" d="M2.7 6.6l21 12c.8.4 1.2.9 1.2 1.4 0-.6-.4-1.1-1.1-1.6l-21-12C1.1 5.7 0 6.5 0 8.2v.1c0-1.7 1.2-2.4 2.7-1.6z"/></svg>