<svg id="Layer_1" xmlns="http://www.w3.org/2000/svg" viewBox="0 0 125 40"><style>.st2{fill:#f90}</style><path class="st2" d="M73.2 30.2a45.6 45.6 0 0 1-56.4-4.1c-.6-.6-.1-1.4.7-.9a61.6 61.6 0 0 0 54.6 3.5c1.3-.6 2.2.6 1.1 1.5z"/><path class="st2" d="M76.1 26.9c-.9-1.1-5.8-.5-8-.3-.7.1-.8-.5-.2-.9 3.9-2.8 10.4-2 11.1-1.1.8.9-.2 7.5-3.9 10.6-.6.5-1.1.2-.9-.4.9-2.1 2.7-6.8 1.9-7.9z"/><path d="M68.2 5.9V3.1c0-.4.3-.7.7-.7h12c.4 0 .7.3.7.7v2.3c0 .4-.3.9-.9 1.7l-6.2 9c2.3-.1 4.8.3 6.8 1.5.5.3.6.7.6 1.1v2.9c0 .4-.4.9-.9.6-3.7-2-8.6-2.2-12.7 0-.4.2-.9-.2-.9-.6v-2.8c0-.4 0-1.2.4-1.9L75 6.4h-6.3c-.2.2-.5-.1-.5-.5zM24.4 22.9h-3.7c-.3 0-.6-.3-.7-.6V3.2c0-.4.3-.7.7-.7h3.4c.4 0 .6.3.7.6v2.5h.2c.9-2.4 2.6-3.5 4.8-3.5 2.3 0 3.7 1.1 4.7 3.5a5.2 5.2 0 0 1 5-3.5 5 5 0 0 1 4.2 2.1c1.2 1.6.9 3.9.9 6v12c0 .4-.3.7-.7.7h-3.6a.7.7 0 0 1-.7-.7V12.1c0-.8.1-2.8-.1-3.6-.3-1.3-1.1-1.6-2.1-1.6-.9 0-1.8.6-2.2 1.6-.4 1-.3 2.6-.3 3.7v10.1c0 .4-.3.7-.7.7h-3.6a.7.7 0 0 1-.7-.7V12.2c0-2.1.3-5.3-2.2-5.3-2.6 0-2.5 3-2.5 5.3v10.1c-.1.3-.4.6-.8.6zM91.9 2.1c5.4 0 8.4 4.7 8.4 10.8 0 5.8-3.2 10.4-8.4 10.4-5.3 0-8.2-4.7-8.2-10.6 0-6 2.9-10.6 8.2-10.6zM92 6c-2.7 0-2.9 3.7-2.9 6.1 0 2.3 0 7.3 2.8 7.3s3-4 3-6.5a22 22 0 0 0-.5-5.1C93.9 6.5 93.1 6 92 6zM107.3 22.9h-3.6a.7.7 0 0 1-.7-.7V3.1c0-.3.3-.6.7-.6h3.4c.3 0 .6.2.6.5v3h.1c1-2.6 2.5-3.9 5-3.9a5 5 0 0 1 4.3 2.2c1 1.5 1 4.1 1 5.9v12c0 .3-.3.6-.7.6h-3.7c-.3 0-.6-.3-.7-.6V11.9c0-2.1.2-5.1-2.3-5.1-.9 0-1.7.6-2.1 1.5a8.8 8.8 0 0 0-.6 3.6v10.3c0 .4-.3.7-.7.7zM17.3 19.4c-.7-.9-1.4-1.7-1.4-3.4v-5.8c0-2.5.2-4.7-1.6-6.4-1.4-1.4-3.7-1.9-5.5-1.9-3.5 0-7.4 1.3-8.2 5.7-.1.5.3.7.6.8l3.5.4c.3 0 .6-.3.6-.7.3-1.5 1.5-2.2 2.9-2.2.8 0 1.6.3 2.1 1 .5.8.4 1.8.4 2.7v.4c-2.1.2-4.9.4-6.9 1.3a6.4 6.4 0 0 0-3.9 6.1c0 3.9 2.4 5.8 5.5 5.8 2.6 0 4-.6 6-2.7.7 1 .9 1.4 2.1 2.5.3.2.6.1.9-.1l2.8-2.5c.4-.3.3-.7.1-1zm-7.2-1.7c-.6 1-1.5 1.7-2.5 1.7-1.4 0-2.2-1.1-2.2-2.7 0-3.2 2.8-3.7 5.4-3.7v.8c0 1.4 0 2.6-.7 3.9zM65.1 19.4c-.7-.9-1.4-1.7-1.4-3.4v-5.8c0-2.5.2-4.7-1.6-6.4-1.4-1.4-3.7-1.9-5.5-1.9-3.5 0-7.4 1.3-8.2 5.7-.1.5.2.7.5.8l3.5.4c.3 0 .6-.3.6-.7.3-1.5 1.5-2.2 2.9-2.2.8 0 1.6.3 2.1 1 .5.8.4 1.8.4 2.7v.4c-2.1.2-4.9.4-6.9 1.3a6.4 6.4 0 0 0-3.9 6.1c0 3.9 2.4 5.8 5.5 5.8 2.6 0 4-.6 6-2.7.7 1 .9 1.4 2.1 2.5.3.2.6.1.9-.1l2.8-2.5c.5-.3.5-.7.2-1zM58 17.7c-.6 1-1.5 1.7-2.5 1.7-1.4 0-2.2-1.1-2.2-2.7 0-3.2 2.8-3.7 5.4-3.7v.8c-.1 1.4 0 2.6-.7 3.9z"/></svg>