<svg xmlns="http://www.w3.org/2000/svg" viewBox="0 0 125 40"><path d="M18.4 7.3H7c-1 0-2 .1-3 .4a5.4 5.4 0 0 0-3.5 3 10 10 0 0 0-.5 3.6v11.4c0 1.2.1 2.4.5 3.6a5.4 5.4 0 0 0 3.4 3c1 .3 2 .4 3 .4h11.5c1 0 2-.1 3-.4a5.4 5.4 0 0 0 3.5-3c.3-1.2.5-2.4.5-3.6V14.3a10 10 0 0 0-.5-3.6 5.4 5.4 0 0 0-3.5-3c-1-.3-2-.4-3-.4z"/><path fill="#FFF" d="M18.4 7.7c1 0 2 0 3 .3a5 5 0 0 1 3.1 2.8c.4 1.2.6 2.3.5 3.5v11.4c0 1.2-.1 2.3-.5 3.5a5 5 0 0 1-3.2 2.8c-1 .2-2 .4-3 .3H7c-1 0-2 0-3-.3a5 5 0 0 1-3.2-2.8 9.7 9.7 0 0 1-.4-3.5V14.3c0-1.2 0-2.4.4-3.5A5 5 0 0 1 4 8c1-.3 2-.4 3-.3h11.4"/><g transform="translate(5 4)"><linearGradient id="a" gradientUnits="userSpaceOnUse" x1="11.8" y1="580.7" x2="3" y2="567.8" gradientTransform="translate(0 -558)"><stop offset="0" stop-color="#22c9fd"/><stop offset="0" stop-color="#2abefd"/><stop offset=".4" stop-color="#6b6bff"/><stop offset=".5" stop-color="#756af3"/><stop offset=".6" stop-color="#8d68d6"/><stop offset=".6" stop-color="#ac65b2"/><stop offset=".6" stop-color="#b864a4"/><stop offset=".7" stop-color="#d56182"/><stop offset=".8" stop-color="#ec5f67"/><stop offset=".9" stop-color="#fa5d56"/><stop offset="1" stop-color="#ff5d50"/></linearGradient><path fill="url(#a)" d="M13.6 8c0-.5-.3-.9-.7-.8L4.7 8.8c-.6.1-.8.5-.8 1v9.6c0 1-.8.7-1.8 1-1.9.4-2 1.2-2 1.5-.2 1 0 2.1 1.4 2.5H3c.9-.3 1.3-.7 1.7-1.5.2-.4.2-1 .2-1.5v-8c0-.4.2-.6.6-.7l6.5-1.3c.5 0 .6.2.6.7v5.6c0 1.2-2.2.5-3.5 1.7-.5.5-.6 1.4-.4 1.9.2.7.7 1.2 1.4 1.3.5.1 2 .3 2.9-.8.6-.8.6-1.2.6-1.9V8z"/></g><g><path d="M38.5 22h-4.8l-1.2 3.4h-2L35 12.8h2.1l4.6 12.6h-2.1L38.5 22zm-4.3-1.6H38L36 15l-1.8 5.5zM51.4 20.8c0 2.8-1.5 4.7-3.8 4.7a3 3 0 0 1-2.9-1.6v4.5h-1.9V16.2h1.8v1.6c.7-1 1.8-1.7 3-1.7 2.3 0 3.8 1.9 3.8 4.7zm-2 0c0-1.9-.9-3-2.3-3-1.5 0-2.4 1.2-2.4 3s1 3 2.4 3 2.4-1.1 2.4-3zM61.4 20.8c0 2.8-1.5 4.7-3.8 4.7a3 3 0 0 1-2.8-1.6v4.5h-2V16.2h1.9v1.6c.6-1 1.7-1.7 2.9-1.7 2.3 0 3.8 1.9 3.8 4.7zm-1.9 0c0-1.9-1-3-2.4-3s-2.4 1.2-2.4 3 1 3 2.4 3c1.5 0 2.4-1.1 2.4-3zM63 12.8h1.8v12.6H63zM74.6 22.7c-.5 1.8-2.1 3-4 2.8-2.6 0-4.3-1.8-4.3-4.7 0-2.8 1.7-4.7 4.3-4.7 2.5 0 4 1.8 4 4.5v.7h-6.4a2.4 2.4 0 0 0 2.5 2.7 2 2 0 0 0 2.1-1.3h1.8zM68.2 20h4.6a2.2 2.2 0 0 0-2.2-2.4 2.3 2.3 0 0 0-2.4 2.4zM90.8 25.4v-9.3L87 25.3h-1.4l-3.8-9.2h-.1v9.3H80V12.8h2.2l4.1 9.9 4.1-9.9h2.2v12.6zM102.6 25.4h-1.8v-1.6a2.9 2.9 0 0 1-2.9 1.7 3 3 0 0 1-3.2-3.4v-5.9h1.9v5.5c0 1.4.7 2.1 2 2.1a2.1 2.1 0 0 0 2.1-2.3v-5.3h1.9v9.2zM108 16.1c2 0 3.4 1.1 3.4 2.8h-1.7c-.1-.8-.8-1.3-1.8-1.3s-1.7.4-1.7 1.1c0 .6.4 1 1.4 1.2l1.5.3c1.9.5 2.5 1.2 2.5 2.5 0 1.6-1.5 2.8-3.7 2.8s-3.6-1.1-3.8-2.8h1.9c.1.9.8 1.3 2 1.3 1 0 1.8-.4 1.8-1.1 0-.6-.4-1-1.3-1.2l-1.7-.3c-1.6-.4-2.4-1.3-2.4-2.6 0-1.6 1.4-2.7 3.5-2.7zM113.1 13.8a1 1 0 1 1 1 1 1 1 0 0 1-1-1zm.2 2.4h1.8v9.2h-1.8v-9.2zM123.2 19.4a2 2 0 0 0-2.2-1.7c-1.4 0-2.3 1.2-2.3 3 0 2 1 3.2 2.4 3.2 1 .1 2-.6 2.1-1.6h1.8c-.2 2-2 3.4-4 3.2-2.6 0-4.3-1.8-4.3-4.7 0-2.8 1.7-4.7 4.3-4.7 2-.1 3.8 1.3 4 3.3h-1.8z"/></g></svg>