<svg xmlns="http://www.w3.org/2000/svg" viewBox="0 0 125 40" enable-background="new 0 0 125 40"><defs><filter id="a" filterUnits="userSpaceOnUse" x="0" y="7.24" width="25.53" height="25.53"><feColorMatrix values="1 0 0 0 0 0 1 0 0 0 0 0 1 0 0 0 0 0 1 0"/></filter></defs><mask maskUnits="userSpaceOnUse" x="0" y="7.24" width="25.53" height="25.53" id="b"><path fill="#FFF" d="M0 7.24h25.53v25.53H0z" filter="url(#a)"/></mask><g mask="url(#b)"><defs><filter id="c" filterUnits="userSpaceOnUse" x="0" y="7.24" width="25.53" height="25.53"><feColorMatrix values="1 0 0 0 0 0 1 0 0 0 0 0 1 0 0 0 0 0 1 0"/></filter></defs><mask maskUnits="userSpaceOnUse" x="0" y="7.24" width="25.53" height="25.53" id="d"><path fill="#FFF" d="M7.83 7.24h-.76l-.77.01c-.56.01-1.12.05-1.68.15a5.69 5.69 0 0 0-2.95 1.5 5.38 5.38 0 0 0-1.5 2.96c-.1.55-.14 1.12-.16 1.68v.77l-.01.73v9.92a89.55 89.55 0 0 0 .01 1.5c.02.56.05 1.13.15 1.68a5.66 5.66 0 0 0 1.51 2.95 5.38 5.38 0 0 0 2.95 1.51c.55.1 1.12.14 1.68.15l.77.01h11.39l.77-.01c.56-.02 1.12-.05 1.67-.15a5.66 5.66 0 0 0 2.95-1.5 5.35 5.35 0 0 0 1.51-2.96c.1-.55.14-1.12.15-1.68a32.95 32.95 0 0 0 .01-1.5v-9.92-.73-.77c-.02-.56-.06-1.12-.16-1.68a5.66 5.66 0 0 0-1.5-2.95A5.35 5.35 0 0 0 20.9 7.4a11.1 11.1 0 0 0-1.67-.15h-.77l-.77-.01H7.84z" filter="url(#c)"/></mask><linearGradient id="e" gradientUnits="userSpaceOnUse" x1="-385.52" y1="-171.17" x2="-385.52" y2="-172.19" gradientTransform="matrix(25.164 0 0 -25.164 9713.93 -4300.14)"><stop offset="0" stop-color="#ef4db7"/><stop offset="1" stop-color="#c643fd"/></linearGradient><path mask="url(#d)" fill="url(#e)" d="M0 7.24h25.53v25.53H0z"/></g><g><path d="M31.4 14.13c0-.6.48-1.09 1.08-1.09.62 0 1.1.48 1.1 1.09 0 .59-.48 1.07-1.1 1.07-.6 0-1.09-.48-1.09-1.07zm.14 2.42h1.89v9.2h-1.9v-9.2zm6.91 9.2V14.8H34.6v-1.68h9.68v1.68h-3.86v10.94h-1.96zm13.71 0h-1.8v-1.58h-.05c-.53 1.1-1.44 1.68-2.85 1.68-2 0-3.23-1.3-3.23-3.4v-5.9h1.89v5.53c0 1.4.66 2.15 1.97 2.15 1.36 0 2.18-.95 2.18-2.38v-5.3h1.9v9.2zm1.86-9.2h1.8v1.56h.05c.55-1.1 1.47-1.67 2.9-1.67 2.02 0 3.18 1.3 3.18 3.41v5.9h-1.9v-5.53c0-1.38-.63-2.15-1.96-2.15-1.36 0-2.18.96-2.18 2.38v5.3h-1.89v-9.2zm17.63 6.5c-.25 1.67-1.88 2.81-3.96 2.81-2.67 0-4.33-1.8-4.33-4.67 0-2.88 1.67-4.76 4.25-4.76 2.55 0 4.15 1.75 4.15 4.54v.65h-6.5v.11c0 1.58 1 2.6 2.48 2.6 1.05 0 1.87-.49 2.12-1.28h1.8zm-6.38-2.75h4.6c-.04-1.4-.94-2.34-2.26-2.34-1.3 0-2.24.95-2.34 2.34zm11.38-3.86c2.04 0 3.5 1.13 3.54 2.76h-1.77c-.08-.82-.77-1.32-1.82-1.32-1.03 0-1.7.48-1.7 1.2 0 .54.45.91 1.4 1.15l1.55.36c1.85.44 2.55 1.12 2.55 2.47 0 1.66-1.57 2.8-3.82 2.8-2.17 0-3.63-1.11-3.77-2.79h1.87c.13.88.84 1.35 1.99 1.35 1.13 0 1.83-.46 1.83-1.2 0-.56-.35-.87-1.3-1.11l-1.65-.4c-1.66-.4-2.5-1.26-2.5-2.53 0-1.63 1.46-2.74 3.6-2.74zm10.45 5.8c.14 1.24 1.35 2.06 3.01 2.06 1.6 0 2.74-.82 2.74-1.95 0-.98-.69-1.56-2.32-1.96l-1.64-.4c-2.32-.56-3.4-1.64-3.4-3.4 0-2.18 1.9-3.67 4.6-3.67 2.67 0 4.5 1.5 4.55 3.67h-1.9c-.12-1.26-1.16-2.02-2.68-2.02s-2.56.77-2.56 1.89c0 .89.66 1.41 2.3 1.82l1.38.34c2.6.61 3.67 1.65 3.67 3.5 0 2.36-1.88 3.84-4.88 3.84-2.8 0-4.68-1.45-4.8-3.73h1.93zm11.72-7.87v2.18h1.75v1.5h-1.75v5.06c0 .8.35 1.16 1.12 1.16.19 0 .5-.03.62-.05v1.49c-.21.05-.63.09-1.05.09-1.86 0-2.59-.7-2.59-2.49v-5.27h-1.34v-1.5h1.34v-2.17h1.9zm2.52 6.78c0-2.9 1.7-4.72 4.37-4.72s4.36 1.82 4.36 4.72c0 2.9-1.69 4.71-4.36 4.71-2.68 0-4.37-1.8-4.37-4.71zm6.8 0c0-1.99-.9-3.16-2.43-3.16s-2.44 1.18-2.44 3.16c0 1.99.9 3.15 2.44 3.15s2.44-1.16 2.44-3.15zm3.39-4.6h1.8v1.56h.04a2.2 2.2 0 0 1 2.22-1.66c.27 0 .5.04.64.07v1.77a2.65 2.65 0 0 0-.85-.12c-1.21 0-1.96.82-1.96 2.12v5.45h-1.9v-9.2zm13.36 6.5c-.25 1.67-1.88 2.81-3.96 2.81-2.67 0-4.33-1.8-4.33-4.67 0-2.88 1.67-4.76 4.26-4.76 2.54 0 4.14 1.75 4.14 4.54v.65h-6.5v.11c0 1.58 1 2.6 2.48 2.6 1.05 0 1.87-.49 2.12-1.28h1.8zm-6.38-2.75h4.6c-.04-1.4-.94-2.34-2.26-2.34-1.3 0-2.24.95-2.34 2.34z"/><defs><filter id="f" filterUnits="userSpaceOnUse" x="12.76" y="21.65" width="5.97" height="6.8"><feColorMatrix values="1 0 0 0 0 0 1 0 0 0 0 0 1 0 0 0 0 0 1 0"/></filter></defs><mask maskUnits="userSpaceOnUse" x="12.76" y="21.65" width="5.97" height="6.8" id="g"><path fill="#FFF" d="M0 7.24h25.53v25.53H0z" filter="url(#f)"/></mask><g mask="url(#g)"><g transform="translate(12 14)"><defs><filter id="h" filterUnits="userSpaceOnUse" x=".76" y="7.65" width="5.97" height="6.8"><feColorMatrix values="1 0 0 0 0 0 1 0 0 0 0 0 1 0 0 0 0 0 1 0"/></filter></defs><mask maskUnits="userSpaceOnUse" x=".76" y="7.65" width="5.97" height="6.8" id="i"><path fill="#FFF" d="M.76 10.53l4.46 3.25.73.5c.08.05.17.1.27.13h.03c.07.03.13.04.2.03a.28.28 0 0 0 .24-.18.57.57 0 0 0 .03-.19v-.04c0-.1-.01-.2-.04-.3-.07-.27-.16-.56-.25-.83l-1.7-5.25-3.97 2.88z" filter="url(#h)"/></mask><radialGradient id="j" cx="-347.7" cy="-304.21" r="0" gradientTransform="matrix(5.882 0 0 -5.882 2033.72 -1778.86)" gradientUnits="userSpaceOnUse"><stop offset="0" stop-color="#f9e3fb"/><stop offset=".75" stop-color="#f9e3fb"/><stop offset=".81" stop-color="#f8defb"/><stop offset=".88" stop-color="#f3d0fa"/><stop offset=".96" stop-color="#ecbaf9"/><stop offset=".98" stop-color="#eab2f9"/><stop offset="1" stop-color="#eab2f9"/></radialGradient><path mask="url(#i)" fill="url(#j)" d="M.76 7.65h5.97v6.8H.76z"/></g></g><defs><filter id="k" filterUnits="userSpaceOnUse" x="3.3" y="16.98" width="7" height="4.67"><feColorMatrix values="1 0 0 0 0 0 1 0 0 0 0 0 1 0 0 0 0 0 1 0"/></filter></defs><mask maskUnits="userSpaceOnUse" x="3.3" y="16.98" width="7" height="4.67" id="l"><path fill="#FFF" d="M0 7.24h25.53v25.53H0z" filter="url(#k)"/></mask><g mask="url(#l)"><g transform="translate(3 9)"><defs><filter id="m" filterUnits="userSpaceOnUse" x=".3" y="7.98" width="7" height="4.67"><feColorMatrix values="1 0 0 0 0 0 1 0 0 0 0 0 1 0 0 0 0 0 1 0"/></filter></defs><mask maskUnits="userSpaceOnUse" x=".3" y="7.98" width="7" height="4.67" id="n"><path fill="#FFF" d="M1.78 7.98l-.87.03a1.15 1.15 0 0 0-.33.06.51.51 0 0 0-.17.1.29.29 0 0 0-.1.12.3.3 0 0 0 0 .16l.09.18.02.02c.06.08.13.16.2.22l.7.53 4.47 3.25L7.3 7.98H1.8z" filter="url(#m)"/></mask><radialGradient id="o" cx="-319.36" cy="-339.83" r=".01" gradientTransform="matrix(4.599 0 0 -4.599 1456.84 -1564.65)" gradientUnits="userSpaceOnUse"><stop offset="0" stop-color="#fae1f8"/><stop offset=".6" stop-color="#fae1f8"/><stop offset=".85" stop-color="#f7d6f7"/><stop offset="1" stop-color="#f7d6f7"/></radialGradient><path mask="url(#n)" fill="url(#o)" d="M.3 7.98h7v4.67h-7z"/></g></g><g><defs><filter id="p" filterUnits="userSpaceOnUse" x="6.79" y="21.65" width="5.97" height="6.8"><feColorMatrix values="1 0 0 0 0 0 1 0 0 0 0 0 1 0 0 0 0 0 1 0"/></filter></defs><mask maskUnits="userSpaceOnUse" x="6.79" y="21.65" width="5.97" height="6.8" id="q"><path fill="#FFF" d="M0 7.24h25.53v25.53H0z" filter="url(#p)"/></mask><g mask="url(#q)"><g transform="translate(6 14)"><defs><filter id="r" filterUnits="userSpaceOnUse" x=".79" y="7.65" width="5.97" height="6.8"><feColorMatrix values="1 0 0 0 0 0 1 0 0 0 0 0 1 0 0 0 0 0 1 0"/></filter></defs><mask maskUnits="userSpaceOnUse" x=".79" y="7.65" width="5.97" height="6.8" id="s"><path fill="#FFF" d="M1.08 12.9l-.24.84c-.03.1-.05.2-.05.3v.03c0 .07.01.14.04.2.02.05.05.09.1.12s.09.05.14.05a.5.5 0 0 0 .2-.02l.03-.01c.1-.03.18-.08.27-.14.24-.15.48-.32.72-.5l4.47-3.24L4.24 8.7 2.79 7.65l-1.7 5.25z" filter="url(#r)"/></mask><radialGradient id="t" cx="-337.37" cy="-305.69" r="0" gradientTransform="matrix(5.882 0 0 -5.882 1998.55 -1777.68)" gradientUnits="userSpaceOnUse"><stop offset="0" stop-color="#fae9fc"/><stop offset=".67" stop-color="#fae9fc"/><stop offset=".81" stop-color="#f8defa"/><stop offset=".91" stop-color="#f6d4f8"/><stop offset="1" stop-color="#f6d4f8"/></radialGradient><path mask="url(#s)" fill="url(#t)" d="M.79 7.65h5.97v6.8H.79z"/></g></g></g><g><defs><filter id="u" filterUnits="userSpaceOnUse" x="15.21" y="16.98" width="7" height="4.67"><feColorMatrix values="1 0 0 0 0 0 1 0 0 0 0 0 1 0 0 0 0 0 1 0"/></filter></defs><mask maskUnits="userSpaceOnUse" x="15.21" y="16.98" width="7" height="4.67" id="v"><path fill="#FFF" d="M0 7.24h25.53v25.53H0z" filter="url(#u)"/></mask><g mask="url(#v)"><g transform="translate(14 9)"><defs><filter id="w" filterUnits="userSpaceOnUse" x="1.21" y="7.98" width="7" height="4.67"><feColorMatrix values="1 0 0 0 0 0 1 0 0 0 0 0 1 0 0 0 0 0 1 0"/></filter></defs><mask maskUnits="userSpaceOnUse" x="1.21" y="7.98" width="7" height="4.67" id="x"><path fill="#FFF" d="M1.21 7.98l1.52 4.67L7.19 9.4l.7-.53c.08-.06.15-.13.2-.21l.03-.03a.5.5 0 0 0 .08-.18.3.3 0 0 0 0-.16.3.3 0 0 0-.1-.13.53.53 0 0 0-.16-.1H7.9C7.8 8.03 7.7 8 7.6 8c-.28-.02-.57-.03-.87-.03H1.21z" filter="url(#w)"/></mask><radialGradient id="y" cx="-327.82" cy="-345.73" r=".01" gradientTransform="matrix(4.599 0 0 -4.599 1513.81 -1564.65)" gradientUnits="userSpaceOnUse"><stop offset="0" stop-color="#fae9fb"/><stop offset=".68" stop-color="#fae9fb"/><stop offset=".81" stop-color="#f8def8"/><stop offset=".98" stop-color="#f5caf2"/><stop offset="1" stop-color="#f5caf2"/></radialGradient><path mask="url(#x)" fill="url(#y)" d="M1.21 7.98h7v4.67h-7z"/></g></g></g><g><defs><filter id="z" filterUnits="userSpaceOnUse" x="8.79" y="16.98" width="7.94" height="7.55"><feColorMatrix values="1 0 0 0 0 0 1 0 0 0 0 0 1 0 0 0 0 0 1 0"/></filter></defs><mask maskUnits="userSpaceOnUse" x="8.79" y="16.98" width="7.94" height="7.55" id="A"><path fill="#FFF" d="M0 7.24h25.53v25.53H0z" filter="url(#z)"/></mask><path mask="url(#A)" fill="#FFF" d="M10.3 16.98l-1.51 4.67 1.45 1.05 2.52 1.83 3.97-2.88-1.52-4.67z"/></g></g><g><defs><filter id="B" filterUnits="userSpaceOnUse" x="10.3" y="10.44" width="4.91" height="6.55"><feColorMatrix values="1 0 0 0 0 0 1 0 0 0 0 0 1 0 0 0 0 0 1 0"/></filter></defs><mask maskUnits="userSpaceOnUse" x="10.3" y="10.44" width="4.91" height="6.55" id="C"><path fill="#FFF" d="M0 7.24h25.53v25.53H0z" filter="url(#B)"/></mask><g mask="url(#C)"><g transform="translate(10 3)"><defs><filter id="D" filterUnits="userSpaceOnUse" x=".3" y="7.43" width="4.91" height="6.55"><feColorMatrix values="1 0 0 0 0 0 1 0 0 0 0 0 1 0 0 0 0 0 1 0"/></filter></defs><mask maskUnits="userSpaceOnUse" x=".3" y="7.43" width="4.91" height="6.55" id="E"><path fill="#FFF" d="M2.6 7.48a.52.52 0 0 0-.14.13c0 .01 0 .02-.02.03a15.32 15.32 0 0 0-.43 1.1l-1.7 5.24h4.9l-1.7-5.25-.3-.82c-.03-.1-.08-.19-.14-.27l-.02-.03a.5.5 0 0 0-.14-.13c-.05-.03-.1-.05-.15-.05s-.1.02-.16.05" filter="url(#D)"/></mask><radialGradient id="F" cx="-330.86" cy="-328.42" r=".01" gradientTransform="matrix(4.836 0 0 -4.836 1590.6 -1566.73)" gradientUnits="userSpaceOnUse"><stop offset="0" stop-color="#fbe3f8"/><stop offset=".74" stop-color="#fbe3f8"/><stop offset=".81" stop-color="#fadef6"/><stop offset=".88" stop-color="#f9d1f0"/><stop offset=".96" stop-color="#f6bae7"/><stop offset=".98" stop-color="#f5b1e3"/><stop offset="1" stop-color="#f5b1e3"/></radialGradient><path mask="url(#E)" fill="url(#F)" d="M.3 7.43h4.91v6.55H.3z"/></g></g></g></svg>