<svg role="img" aria-label="Snapchat" xmlns="http://www.w3.org/2000/svg" viewBox="0 0 24 24"><desc>Lorenzo Wood Music on Snapchat</desc><path d="M5.83 4.53c-.6 1.35-.36 3.75-.27 5.44-.65.36-1.48-.27-1.95-.27-.49 0-1.07.32-1.17.8-.06.35.1.85 1.2 1.29.43.17 1.46.37 1.7.93.33.78-1.72 4.4-4.92 4.93a.5.5 0 0 0-.42.52c.06.97 2.24 1.35 3.21 1.5.1.14.18.7.3 1.13.06.2.21.43.59.43.5 0 1.31-.38 2.74-.15 1.4.24 2.71 2.22 5.23 2.22 2.35 0 3.75-2 5.1-2.21a5.89 5.89 0 0 1 2.19.05c.51.1.98.16 1.12-.35.13-.43.21-.99.3-1.12.97-.15 3.16-.53 3.22-1.5a.5.5 0 0 0-.42-.52c-3.15-.52-5.26-4.13-4.92-4.93.24-.56 1.26-.76 1.7-.93.8-.32 1.22-.72 1.2-1.17 0-.59-.7-.94-1.22-.94-.53 0-1.29.63-1.9.29.1-1.7.33-4.1-.27-5.44A6.64 6.64 0 0 0 12 .7a6.6 6.6 0 0 0-6.16 3.83z" fill="#fffc00"/></svg>