<svg xmlns="http://www.w3.org/2000/svg" viewBox="0 0 125 40"><path fill="red" d="M39.03 10.4a5 5 0 0 0-3.52-3.52c-3.11-.83-15.58-.83-15.58-.83s-12.46 0-15.57.83A4.99 4.99 0 0 0 .83 10.4C0 13.51 0 20 0 20s0 6.49.83 9.6a5 5 0 0 0 3.53 3.52c3.1.83 15.57.83 15.57.83s12.47 0 15.58-.83a5 5 0 0 0 3.52-3.52c.84-3.11.84-9.6.84-9.6s0-6.49-.84-9.6z"/><path fill="#FFF" d="M15.95 25.98L26.3 20l-10.35-5.98z"/><g><g fill="#282828"><path d="M57.86 31.43a4.34 4.34 0 0 1-1.68-2.48c-.33-1.12-.5-2.6-.5-4.47v-2.54c0-1.88.2-3.4.57-4.53a4.55 4.55 0 0 1 1.78-2.5c.81-.52 1.87-.78 3.18-.78 1.3 0 2.33.27 3.11.8a4.57 4.57 0 0 1 1.71 2.5c.36 1.12.54 2.63.54 4.51v2.54c0 1.86-.17 3.36-.52 4.49a4.4 4.4 0 0 1-1.71 2.48c-.8.52-1.86.78-3.21.78a5.78 5.78 0 0 1-3.27-.8zm4.42-2.73c.22-.57.33-1.5.33-2.8v-5.44c0-1.26-.1-2.17-.33-2.75-.22-.58-.6-.87-1.15-.87-.53 0-.91.29-1.13.87a8.4 8.4 0 0 0-.33 2.75v5.44c0 1.3.1 2.23.32 2.8.2.57.59.85 1.14.85.55 0 .93-.28 1.15-.85zM118.42 24.52v.88c0 1.13.03 1.97.1 2.53.06.56.2.96.4 1.22.22.26.54.39.98.39.59 0 .99-.23 1.2-.69.23-.45.35-1.21.37-2.28l3.39.2c.02.15.03.36.03.63 0 1.61-.45 2.82-1.33 3.62-.88.8-2.13 1.2-3.75 1.2-1.94 0-3.3-.61-4.08-1.83-.77-1.21-1.16-3.1-1.16-5.64V21.7c0-2.63.4-4.54 1.2-5.75.82-1.2 2.2-1.8 4.16-1.8 1.34 0 2.38.24 3.1.73.73.5 1.23 1.27 1.53 2.31.3 1.05.44 2.5.44 4.33v3h-6.58zm.5-7.36c-.2.25-.34.66-.4 1.22-.07.56-.1 1.4-.1 2.55v1.25h2.87v-1.25c0-1.12-.03-1.97-.11-2.55a2.45 2.45 0 0 0-.41-1.23c-.2-.24-.51-.36-.93-.36-.42 0-.73.13-.93.37zM48.28 24.2L43.81 8.02h3.9l1.57 7.32c.4 1.81.7 3.35.89 4.62h.11c.13-.9.43-2.44.88-4.59l1.63-7.35h3.9l-4.53 16.16v7.76h-3.88v-7.76zM79.28 14.47v17.48H76.2l-.35-2.14h-.08c-.84 1.61-2.1 2.42-3.76 2.42-1.16 0-2.02-.38-2.57-1.14-.55-.76-.83-1.95-.83-3.56V14.47h3.94V27.3c0 .78.08 1.33.25 1.67.18.33.46.5.86.5.34 0 .67-.1.98-.32.32-.2.55-.47.7-.8V14.47h3.94zM99.46 14.47v17.48h-3.08l-.34-2.14h-.09c-.84 1.61-2.1 2.42-3.76 2.42-1.16 0-2.02-.38-2.57-1.14-.55-.76-.83-1.95-.83-3.56V14.47h3.94V27.3c0 .78.08 1.33.26 1.67.17.33.45.5.85.5.34 0 .67-.1.98-.32.32-.2.55-.47.7-.8V14.47h3.94z"/><path d="M89.97 11.2h-3.9v20.75H82.2V11.19h-3.9V8.03h11.66v3.16zM112.48 17.27a4.5 4.5 0 0 0-1.16-2.4 3.1 3.1 0 0 0-2.2-.74c-.71 0-1.39.2-2.02.61-.62.41-1.1.95-1.45 1.61h-.03v-9.2h-3.8v24.8h3.26l.4-1.66h.08c.3.6.76 1.06 1.37 1.4.6.34 1.28.51 2.03.51a3.1 3.1 0 0 0 2.93-1.84c.63-1.22.94-3.13.94-5.74v-2.76c0-1.96-.12-3.5-.35-4.6zm-3.61 7.12c0 1.28-.05 2.27-.16 3-.1.72-.28 1.23-.52 1.54-.25.3-.58.45-1 .45-.32 0-.62-.07-.9-.23-.28-.15-.5-.38-.67-.68v-9.92c.13-.48.36-.87.68-1.17.33-.3.68-.46 1.06-.46.4 0 .7.16.93.47.21.32.37.84.45 1.59.09.74.13 1.8.13 3.16v2.25z"/></g></g></svg>