<svg version="1" xmlns="http://www.w3.org/2000/svg" viewBox="0 0 10240 2160"><g fill="#f7510d"><path d="M2265 1848c-11-6-23-16-27-22s-8-354-8-773c0-673 2-763 15-777 9-8 53-28 98-43 75-24 95-27 237-27 148 0 160 2 250 32 52 17 131 52 174 78 90 53 213 170 270 258 52 80 103 206 118 294 11 66 14 73 33 68 79-22 159-28 228-17 339 54 507 436 319 727-69 106-190 182-322 203-94 15-1358 14-1385-1zM864 1839c-4-7-14-98-22-203-13-161-13-222-3-383 15-229 19-248 52-248 24 0 24 2 42 165 19 175 17 343-6 565-11 101-14 110-34 113-11 2-24-2-29-9zM1011 1828c-5-13-14-115-21-228-11-174-11-253 2-518 15-308 18-332 48-332 26 0 33 26 41 156 26 424 28 497 13 699-9 110-19 210-24 223-6 13-18 22-30 22s-24-9-29-22zM1165 1840c-4-6-13-97-21-203-13-163-14-246-4-552 7-198 15-385 19-415 6-53 7-55 36-55s30 2 36 58c4 32 12 221 19 420 10 315 10 386-4 550-8 103-18 192-21 197-8 13-52 13-60 0zM1315 1838c-3-7-11-105-19-218-13-180-13-257 0-629 9-273 18-429 25-438 14-16 43-17 57 0 6 7 17 187 26 437 15 390 15 443 1 625-9 110-18 208-21 218-6 20-62 24-69 5zM1473 1838c-6-7-16-106-23-219-10-165-10-292 0-645 7-258 17-444 22-451 13-17 53-17 66 0 7 7 16 182 25 454 13 388 13 465 0 644-8 112-20 210-25 217-6 6-21 12-33 12s-27-6-32-12zM1624 1838c-33-53-29-1251 5-1291 16-21 54-22 70-3 20 23 37 825 23 1073-7 124-16 211-23 219-14 17-65 19-75 2zM1781 1833c-5-10-14-108-20-219-13-221 2-990 19-1031 11-27 60-32 79-9 21 25 39 799 24 1045-8 119-17 209-24 217-16 20-66 18-78-3zM1942 1837c-7-7-16-103-23-219-13-240 3-1165 21-1199 7-12 21-19 40-19 58 0 58-1 66 525 5 269 11 454 15 420 4-33 10-269 14-525 8-508 8-510 64-510 59 0 57-14 71 571 9 420 9 580-1 735-13 216-18 234-70 234-49 0-56-26-64-220-4-96-11-184-15-195-4-10-10 68-14 175-8 216-15 240-65 240-16 0-33-6-39-13zM715 1830c-4-6-14-100-23-208-13-169-14-222-3-382 16-232 21-264 44-268 27-5 34 28 53 244 16 191 16 212 0 390-10 104-19 199-22 212-5 23-37 31-49 12zM566 1822c-2-4-12-98-22-210-16-192-16-212 0-404 10-112 20-206 22-210 3-5 13-8 23-8 21 0 21-2 46 260 16 160 16 172-4 364-12 109-24 202-27 207-6 11-31 12-38 1zM416 1743c-3-16-13-95-21-178-15-140-15-161 2-318 17-163 30-214 51-192 6 6 20 88 32 184l21 173-21 172c-12 94-24 174-27 179-10 17-32 5-37-20zM276 1613c-24-123-28-192-16-295 13-108 29-153 49-133 5 6 17 62 25 125 15 108 15 122-1 220-14 81-22 106-35 108-11 2-18-6-22-25zM4344 1419c-23-11-54-33-70-50l-28-29 42-43c31-31 46-39 56-32 58 43 73 49 128 53 66 5 98-13 98-54 0-29-30-45-126-68-125-30-174-78-174-169 0-56 18-95 60-131 84-70 261-56 337 26l23 24-44 43-43 42-38-25c-48-33-95-42-132-24-34 16-42 52-15 67 10 5 55 20 98 31 96 26 132 46 162 91 20 29 23 44 20 99-7 123-68 170-223 169-69 0-100-5-131-20zM4930 1429c-47-19-90-61-117-112-23-44-28-68-31-152s0-109 17-157c52-137 203-197 337-134 86 40 132 119 141 243 11 138-42 255-138 303-42 22-163 27-209 9zm150-122c36-18 70-91 70-152 0-112-44-175-124-175-50 0-83 21-102 66s-18 167 1 204c32 62 97 86 155 57zM5505 1423c-44-23-74-53-98-98-20-37-22-58-25-252l-3-213h131v186c0 147 3 193 15 219 30 61 104 73 157 26l33-29 3-201 3-201h129v188c0 256-21 322-121 372-49 25-179 27-224 3zM5980 1150V860h120l115 172 115 173V860h120v580h-109l-118-176-118-175-3 175-2 176h-120v-290zM6580 1150V858l148 4c140 3 149 4 199 32 88 49 127 127 126 257-1 124-49 206-151 255-51 25-70 28-189 32l-133 4v-292zm270 142c48-23 70-71 70-150 0-109-39-149-152-159l-58-6v333h53c29 0 67-8 87-18zM7279 1417c-52-28-104-92-121-150-6-23-12-76-12-117 0-93 15-147 57-202 61-82 174-117 280-87 44 12 130 90 125 113-1 9-26 27-54 40l-51 24-27-29c-23-24-36-29-73-29-56 0-76 11-104 57-19 30-23 52-23 108 0 108 38 163 118 172 42 5 48 3 82-31l36-36 49 27c27 16 49 33 49 40 0 21-61 83-101 104-57 29-171 27-230-4zM7700 1150V860h130v450h220v130h-350v-290zM8235 1423c-83-43-130-124-141-240-12-130 38-250 125-301 40-23 57-27 126-27 66 0 87 4 122 24 82 47 126 137 127 261 2 137-46 235-135 280-49 25-179 27-224 3zm164-118c42-21 65-77 65-160 0-110-40-165-119-165-81 0-119 55-119 170 0 52 5 85 17 107 30 57 98 78 156 48zM8822 1424c-44-23-96-85-110-133-7-23-12-115-12-235V860h120v178c0 152 3 183 19 219 11 23 28 46 39 52 30 16 84 13 111-5 43-31 51-70 51-264V860h132l-4 203c-3 194-4 204-30 259-39 85-86 112-197 116-65 2-94-2-119-14zM9300 1151V860h123c193 0 266 32 316 139 22 48 26 69 25 146-1 102-15 144-69 204-58 64-119 84-267 89l-128 4v-291zm260 141c51-25 83-91 76-159-9-104-48-142-150-150l-66-6v333h53c29 0 67-8 87-18z"/></g></svg>