<svg xmlns="http://www.w3.org/2000/svg" viewBox="0 0 559 168"><path fill="#1ED760" d="M84 .28a83.74 83.74 0 1 0 0 167.48A83.74 83.74 0 0 0 84 .28zm38.4 120.78a5.22 5.22 0 0 1-7.18 1.73c-19.66-12.01-44.41-14.73-73.56-8.07a5.22 5.22 0 0 1-2.33-10.18c31.9-7.3 59.27-4.15 81.34 9.34a5.22 5.22 0 0 1 1.73 7.18zm10.25-22.8a6.53 6.53 0 0 1-8.98 2.15c-22.51-13.84-56.82-17.85-83.45-9.76a6.54 6.54 0 0 1-3.8-12.5c30.42-9.22 68.23-4.75 94.08 11.13a6.53 6.53 0 0 1 2.15 8.98zm.88-23.75c-26.99-16.03-71.52-17.5-97.29-9.68a7.83 7.83 0 1 1-4.55-15c29.58-8.97 78.76-7.24 109.83 11.2a7.82 7.82 0 1 1-7.99 13.48zm94.56 3.07c-14.46-3.44-17.03-5.87-17.03-10.95 0-4.8 4.52-8.04 11.25-8.04 6.52 0 12.98 2.46 19.76 7.51.2.16.46.22.71.18a.93.93 0 0 0 .63-.39l7.06-9.95a.95.95 0 0 0-.18-1.29c-8.07-6.47-17.15-9.62-27.77-9.62-15.61 0-26.52 9.37-26.52 22.77 0 14.38 9.41 19.47 25.67 23.4 13.83 3.19 16.17 5.86 16.17 10.63 0 5.29-4.72 8.58-12.32 8.58-8.44 0-15.33-2.85-23.03-9.51a.94.94 0 0 0-1.34.1l-7.92 9.42c-.33.4-.29.98.09 1.32a47.19 47.19 0 0 0 31.88 12.22c16.82 0 27.69-9.2 27.69-23.42.03-12.01-7.16-18.66-24.77-22.94l-.03-.02zm62.86-14.26c-7.29 0-13.27 2.88-18.21 8.76v-6.62a.94.94 0 0 0-.94-.95h-12.95a.94.94 0 0 0-.94.95v73.6c0 .52.42.95.94.95h12.95c.52 0 .94-.43.94-.95v-23.23c4.94 5.53 10.92 8.24 18.21 8.24 13.55 0 27.27-10.43 27.27-30.37.02-19.94-13.7-30.38-27.26-30.38h-.01zm12.21 30.38c0 10.15-6.25 17.24-15.21 17.24-8.85 0-15.53-7.41-15.53-17.24 0-9.83 6.68-17.24 15.53-17.24 8.81 0 15.21 7.25 15.21 17.24zm50.21-30.38c-17.45 0-31.12 13.44-31.12 30.6 0 16.97 13.58 30.26 30.91 30.26 17.51 0 31.22-13.4 31.22-30.48 0-17.03-13.62-30.37-31.01-30.37zm0 47.72c-9.28 0-16.28-7.46-16.28-17.35 0-9.93 6.76-17.13 16.07-17.13 9.34 0 16.38 7.46 16.38 17.35 0 9.93-6.8 17.13-16.17 17.13zm68.27-46.53h-14.25V49.94a.94.94 0 0 0-.94-.95H393.5a.95.95 0 0 0-.95.95v14.57h-6.22a.94.94 0 0 0-.94.95v11.12c0 .53.42.95.94.95h6.22v28.8c0 11.63 5.79 17.53 17.22 17.53 4.64 0 8.49-.96 12.12-3.02.3-.16.48-.48.48-.82v-10.6a.94.94 0 0 0-.45-.8.92.92 0 0 0-.92-.04 16.35 16.35 0 0 1-7.6 1.83c-4.15 0-6.01-1.9-6.01-6.11V77.54h14.25c.52 0 .94-.43.94-.95V65.46a.92.92 0 0 0-.93-.95h-.01zm49.64.05v-1.78c0-5.27 2.02-7.61 6.54-7.61 2.7 0 4.87.53 7.3 1.34a.94.94 0 0 0 1.24-.9V44.7a.94.94 0 0 0-.67-.91 35.47 35.47 0 0 0-10.76-1.55c-11.95 0-18.28 6.74-18.28 19.47v2.74h-6.22a.95.95 0 0 0-.95.95v11.18c0 .53.43.95.95.95h6.22v44.4c0 .54.43.96.95.96h12.94c.53 0 .95-.42.95-.95v-44.4h12.09l18.52 44.4c-2.1 4.66-4.17 5.59-6.99 5.59-2.28 0-4.69-.68-7.14-2.03a1.03 1.03 0 0 0-.75-.07.94.94 0 0 0-.56.5l-4.39 9.64a.95.95 0 0 0 .41 1.23 27.25 27.25 0 0 0 13.82 3.54c9.56 0 14.85-4.46 19.5-16.44l22.46-58.04a.92.92 0 0 0-.1-.88.92.92 0 0 0-.77-.41h-13.48a.95.95 0 0 0-.9.63l-13.81 39.44-15.12-39.46a.94.94 0 0 0-.88-.61h-22.12zm-28.78-.05h-12.95a.95.95 0 0 0-.95.95v56.48c0 .53.43.95.95.95h12.95c.52 0 .95-.42.95-.95V65.46a.95.95 0 0 0-.95-.95zm-6.4-25.72a9.28 9.28 0 1 0-.01 18.57 9.28 9.28 0 0 0 .01-18.57zm113.42 43.88c-5.12 0-9.11-4.12-9.11-9.11s4.04-9.16 9.16-9.16 9.11 4.11 9.11 9.1c0 5-4.04 9.17-9.16 9.17zm.05-17.37a8.15 8.15 0 0 0-8.2 8.26c0 4.54 3.51 8.2 8.15 8.2 4.67 0 8.2-3.71 8.2-8.26 0-4.54-3.51-8.2-8.15-8.2zm2.02 9.14l2.58 3.6h-2.18l-2.32-3.3h-1.99v3.3h-1.82V68.5h4.26c2.23 0 3.69 1.13 3.69 3.05.01 1.56-.9 2.52-2.21 2.9h-.01zm-1.54-4.31h-2.37v3.02h2.37c1.18 0 1.89-.58 1.89-1.51 0-.99-.71-1.51-1.89-1.51z"/></svg>