<svg viewBox="0 0 400 400" preserveAspectRatio="xMinYMin" xmlns="http://www.w3.org/2000/svg"><path fill="#686868" d="M337.15 187.9a52.69 52.69 0 0 0 7.24-26.64 53 53 0 0 0-87.14-40.52c-15.3-37.91-52.42-64.68-95.81-64.68-57.06 0-103.31 46.26-103.31 103.31 0 3.48.17 6.92.5 10.3-31.68 14.29-53.77 46.08-53.77 83.1a91.17 91.17 0 0 0 91.17 91.17h220.86c41.49 0 78.25-29.56 78.25-79.9v-.82c0-38.63-24.06-65.07-58-75.32zm-78.05 34.9l-71.3 70.1-77.63-76.32h52.88v-73.52a8.61 8.61 0 0 1 8.61-8.61h31.21a8.6 8.6 0 0 1 8.61 8.6v73.53h53.96l-6.34 6.23z"/></svg>