<svg role="img" aria-label="Apple Music" viewBox="0 0 512 512" xmlns="http://www.w3.org/2000/svg"><rect height="100%" width="100%" rx="15%" fill="#fff"/><style>stop:last-child{stop-color:#fff;stop-opacity:0}</style><linearGradient id="acb" x1=".78" x2=".29" y1=".92" y2=".6"><stop stop-color="#39f" offset="0"/><stop offset="1"/></linearGradient><linearGradient id="aca" x1=".75" x2=".93" y1=".16" y2=".59"><stop stop-color="#f66" offset="0"/><stop offset="1"/></linearGradient><path d="M199 359V199q0-9 10-11l138-28q11-2 12 10v122q0 15-45 20c-57 9-48 105 30 79 30-11 35-40 35-69V88s0-20-17-15l-170 35s-13 2-13 18v203q0 15-45 20c-57 9-48 105 30 79 30-11 35-40 35-69" fill="#96f"/><path d="M199 359V199q0-9 10-11l138-28q11-2 12 10v122q0 15-45 20c-57 9-48 105 30 79 30-11 35-40 35-69V88s0-20-17-15l-170 35s-13 2-13 18v203q0 15-45 20c-57 9-48 105 30 79 30-11 35-40 35-69" fill="url(#acb)"/><path d="M199 359V199q0-9 10-11l138-28q11-2 12 10v122q0 15-45 20c-57 9-48 105 30 79 30-11 35-40 35-69V88s0-20-17-15l-170 35s-13 2-13 18v203q0 15-45 20c-57 9-48 105 30 79 30-11 35-40 35-69" fill="url(#aca)"/></svg>