<svg aria-label="Apple Music" role="img" xmlns="http://www.w3.org/2000/svg" viewBox="0 0 361 361"><defs/><linearGradient id="a" gradientUnits="userSpaceOnUse" x1="180" y1="358.6" x2="180" y2="7.8"><stop offset="0" stop-color="#fa233b"/><stop offset="1" stop-color="#fb5c74"/></linearGradient><path d="M360 113v-13a492 492 0 00-2-35 80 80 0 00-22-41 76 76 0 00-41-22 158 158 0 00-35-2H100a492 492 0 00-35 2 80 80 0 00-41 22A76 76 0 002 65a158 158 0 00-2 35v147a2774 2774 0 002 48 80 80 0 0022 41 76 76 0 0041 22 158 158 0 0035 2h160a492 492 0 0035-2 80 80 0 0041-22 76 76 0 0022-41 158 158 0 002-35V113z" fill-rule="evenodd" clip-rule="evenodd" fill="url(#a)"/><path d="M255 55l-10 2-107 21-7 3c-2 2-3 4-3 7l-1 4v134c0 3 0 6-2 8-2 3-5 4-8 4l-7 2-20 5-11 7c-6 7-9 15-8 23a28 28 0 0022 24c6 1 11 1 19-1l13-4a31 31 0 0015-22l1-13V143c0-6 2-8 7-9l93-19c6-1 9 1 9 7v79c0 3 0 6-3 9l-7 4-7 1-20 5c-5 2-9 5-12 8-6 6-8 14-7 22a28 28 0 0022 25c5 1 11 0 19-1l12-5a31 31 0 0016-21l1-14V64c0-6-4-9-9-9z" fill-rule="evenodd" clip-rule="evenodd" fill="#fff"/></svg>